%TF.GenerationSoftware,KiCad,Pcbnew,5.1.10*%
%TF.CreationDate,2021-12-12T23:24:33+01:00*%
%TF.ProjectId,board,626f6172-642e-46b6-9963-61645f706362,rev?*%
%TF.SameCoordinates,Original*%
%TF.FileFunction,Copper,L2,Bot*%
%TF.FilePolarity,Positive*%
%FSLAX46Y46*%
G04 Gerber Fmt 4.6, Leading zero omitted, Abs format (unit mm)*
G04 Created by KiCad (PCBNEW 5.1.10) date 2021-12-12 23:24:33*
%MOMM*%
%LPD*%
G01*
G04 APERTURE LIST*
%TA.AperFunction,ComponentPad*%
%ADD10O,1.700000X1.700000*%
%TD*%
%TA.AperFunction,ComponentPad*%
%ADD11C,1.700000*%
%TD*%
%TA.AperFunction,SMDPad,CuDef*%
%ADD12C,1.000000*%
%TD*%
%TA.AperFunction,SMDPad,CuDef*%
%ADD13R,0.650000X1.560000*%
%TD*%
%TA.AperFunction,SMDPad,CuDef*%
%ADD14R,0.650000X1.060000*%
%TD*%
%TA.AperFunction,ComponentPad*%
%ADD15C,2.000000*%
%TD*%
%TA.AperFunction,SMDPad,CuDef*%
%ADD16R,2.100000X2.800000*%
%TD*%
%TA.AperFunction,SMDPad,CuDef*%
%ADD17R,0.600000X1.900000*%
%TD*%
%TA.AperFunction,ViaPad*%
%ADD18C,0.800000*%
%TD*%
%TA.AperFunction,ViaPad*%
%ADD19C,1.000000*%
%TD*%
%TA.AperFunction,ViaPad*%
%ADD20C,1.500000*%
%TD*%
%TA.AperFunction,Conductor*%
%ADD21C,0.600000*%
%TD*%
%TA.AperFunction,Conductor*%
%ADD22C,0.250000*%
%TD*%
%TA.AperFunction,Conductor*%
%ADD23C,0.400000*%
%TD*%
%TA.AperFunction,Conductor*%
%ADD24C,0.254000*%
%TD*%
%TA.AperFunction,Conductor*%
%ADD25C,0.100000*%
%TD*%
G04 APERTURE END LIST*
D10*
%TO.P,J2,4*%
%TO.N,GND*%
X121520000Y-71000000D03*
%TO.P,J2,3*%
%TO.N,/QR_CONTROL*%
X118980000Y-71000000D03*
%TO.P,J2,2*%
%TO.N,/QR_CMD*%
X116440000Y-71000000D03*
D11*
%TO.P,J2,1*%
%TO.N,+5V*%
X113900000Y-71000000D03*
%TD*%
D10*
%TO.P,JP1,2*%
%TO.N,GND*%
X110440000Y-61400000D03*
D11*
%TO.P,JP1,1*%
%TO.N,/ESP32.~BOOTLOADER*%
X107900000Y-61400000D03*
%TD*%
%TO.P,R13,2*%
%TO.N,/LED_ERR*%
%TA.AperFunction,SMDPad,CuDef*%
G36*
G01*
X103525000Y-41737500D02*
X103525000Y-41262500D01*
G75*
G02*
X103762500Y-41025000I237500J0D01*
G01*
X104262500Y-41025000D01*
G75*
G02*
X104500000Y-41262500I0J-237500D01*
G01*
X104500000Y-41737500D01*
G75*
G02*
X104262500Y-41975000I-237500J0D01*
G01*
X103762500Y-41975000D01*
G75*
G02*
X103525000Y-41737500I0J237500D01*
G01*
G37*
%TD.AperFunction*%
%TO.P,R13,1*%
%TO.N,Net-(D2-Pad2)*%
%TA.AperFunction,SMDPad,CuDef*%
G36*
G01*
X101700000Y-41737500D02*
X101700000Y-41262500D01*
G75*
G02*
X101937500Y-41025000I237500J0D01*
G01*
X102437500Y-41025000D01*
G75*
G02*
X102675000Y-41262500I0J-237500D01*
G01*
X102675000Y-41737500D01*
G75*
G02*
X102437500Y-41975000I-237500J0D01*
G01*
X101937500Y-41975000D01*
G75*
G02*
X101700000Y-41737500I0J237500D01*
G01*
G37*
%TD.AperFunction*%
%TD*%
%TO.P,R12,2*%
%TO.N,+3V3*%
%TA.AperFunction,SMDPad,CuDef*%
G36*
G01*
X103525000Y-39737500D02*
X103525000Y-39262500D01*
G75*
G02*
X103762500Y-39025000I237500J0D01*
G01*
X104262500Y-39025000D01*
G75*
G02*
X104500000Y-39262500I0J-237500D01*
G01*
X104500000Y-39737500D01*
G75*
G02*
X104262500Y-39975000I-237500J0D01*
G01*
X103762500Y-39975000D01*
G75*
G02*
X103525000Y-39737500I0J237500D01*
G01*
G37*
%TD.AperFunction*%
%TO.P,R12,1*%
%TO.N,Net-(D1-Pad2)*%
%TA.AperFunction,SMDPad,CuDef*%
G36*
G01*
X101700000Y-39737500D02*
X101700000Y-39262500D01*
G75*
G02*
X101937500Y-39025000I237500J0D01*
G01*
X102437500Y-39025000D01*
G75*
G02*
X102675000Y-39262500I0J-237500D01*
G01*
X102675000Y-39737500D01*
G75*
G02*
X102437500Y-39975000I-237500J0D01*
G01*
X101937500Y-39975000D01*
G75*
G02*
X101700000Y-39737500I0J237500D01*
G01*
G37*
%TD.AperFunction*%
%TD*%
%TO.P,X2,2*%
%TO.N,+5V*%
X115080000Y-33300000D03*
%TO.P,X2,1*%
%TO.N,GND*%
X112540000Y-33300000D03*
%TO.P,X2,3*%
%TO.N,/DISPLAY.SCL*%
X117620000Y-33300000D03*
%TO.P,X2,4*%
%TO.N,/DISPLAY.SDA*%
X120160000Y-33300000D03*
%TD*%
D12*
%TO.P,FID8,*%
%TO.N,*%
X132000000Y-61500000D03*
%TD*%
%TO.P,FID7,*%
%TO.N,*%
X129300000Y-61500000D03*
%TD*%
%TO.P,FID4,*%
%TO.N,*%
X125300000Y-33400000D03*
%TD*%
%TO.P,FID3,*%
%TO.N,*%
X107500000Y-33400000D03*
%TD*%
D13*
%TO.P,U3,5*%
%TO.N,+3V3*%
X107950000Y-48050000D03*
%TO.P,U3,4*%
%TO.N,/BUS_CMD*%
X109850000Y-48050000D03*
%TO.P,U3,3*%
%TO.N,GND*%
X109850000Y-45350000D03*
%TO.P,U3,2*%
%TO.N,/QR_CMD*%
X108900000Y-45350000D03*
%TO.P,U3,1*%
%TO.N,/ESP_CMD*%
X107950000Y-45350000D03*
%TD*%
D14*
%TO.P,U1,5*%
%TO.N,Net-(R2-Pad2)*%
X116200000Y-64700000D03*
%TO.P,U1,6*%
%TO.N,/BOOT*%
X115250000Y-64700000D03*
%TO.P,U1,4*%
%TO.N,/FB*%
X117150000Y-64700000D03*
%TO.P,U1,3*%
%TO.N,+12V*%
X117150000Y-62500000D03*
%TO.P,U1,2*%
%TO.N,/SW*%
X116200000Y-62500000D03*
%TO.P,U1,1*%
%TO.N,GND*%
X115250000Y-62500000D03*
%TD*%
D15*
%TO.P,SW1,1*%
%TO.N,GND*%
X125100000Y-64400000D03*
%TO.P,SW1,2*%
%TO.N,/ESP32.~RST*%
X129600000Y-64400000D03*
%TO.P,SW1,1*%
%TO.N,GND*%
X125100000Y-70900000D03*
%TO.P,SW1,2*%
%TO.N,/ESP32.~RST*%
X129600000Y-70900000D03*
%TD*%
%TO.P,R11,2*%
%TO.N,/DISPLAY.SDA*%
%TA.AperFunction,SMDPad,CuDef*%
G36*
G01*
X122275000Y-49062500D02*
X122275000Y-49537500D01*
G75*
G02*
X122037500Y-49775000I-237500J0D01*
G01*
X121537500Y-49775000D01*
G75*
G02*
X121300000Y-49537500I0J237500D01*
G01*
X121300000Y-49062500D01*
G75*
G02*
X121537500Y-48825000I237500J0D01*
G01*
X122037500Y-48825000D01*
G75*
G02*
X122275000Y-49062500I0J-237500D01*
G01*
G37*
%TD.AperFunction*%
%TO.P,R11,1*%
%TO.N,+3V3*%
%TA.AperFunction,SMDPad,CuDef*%
G36*
G01*
X124100000Y-49062500D02*
X124100000Y-49537500D01*
G75*
G02*
X123862500Y-49775000I-237500J0D01*
G01*
X123362500Y-49775000D01*
G75*
G02*
X123125000Y-49537500I0J237500D01*
G01*
X123125000Y-49062500D01*
G75*
G02*
X123362500Y-48825000I237500J0D01*
G01*
X123862500Y-48825000D01*
G75*
G02*
X124100000Y-49062500I0J-237500D01*
G01*
G37*
%TD.AperFunction*%
%TD*%
%TO.P,R10,2*%
%TO.N,/DISPLAY.SCL*%
%TA.AperFunction,SMDPad,CuDef*%
G36*
G01*
X122275000Y-50562500D02*
X122275000Y-51037500D01*
G75*
G02*
X122037500Y-51275000I-237500J0D01*
G01*
X121537500Y-51275000D01*
G75*
G02*
X121300000Y-51037500I0J237500D01*
G01*
X121300000Y-50562500D01*
G75*
G02*
X121537500Y-50325000I237500J0D01*
G01*
X122037500Y-50325000D01*
G75*
G02*
X122275000Y-50562500I0J-237500D01*
G01*
G37*
%TD.AperFunction*%
%TO.P,R10,1*%
%TO.N,+3V3*%
%TA.AperFunction,SMDPad,CuDef*%
G36*
G01*
X124100000Y-50562500D02*
X124100000Y-51037500D01*
G75*
G02*
X123862500Y-51275000I-237500J0D01*
G01*
X123362500Y-51275000D01*
G75*
G02*
X123125000Y-51037500I0J237500D01*
G01*
X123125000Y-50562500D01*
G75*
G02*
X123362500Y-50325000I237500J0D01*
G01*
X123862500Y-50325000D01*
G75*
G02*
X124100000Y-50562500I0J-237500D01*
G01*
G37*
%TD.AperFunction*%
%TD*%
%TO.P,R9,2*%
%TO.N,+5V*%
%TA.AperFunction,SMDPad,CuDef*%
G36*
G01*
X122437500Y-64775000D02*
X121962500Y-64775000D01*
G75*
G02*
X121725000Y-64537500I0J237500D01*
G01*
X121725000Y-64037500D01*
G75*
G02*
X121962500Y-63800000I237500J0D01*
G01*
X122437500Y-63800000D01*
G75*
G02*
X122675000Y-64037500I0J-237500D01*
G01*
X122675000Y-64537500D01*
G75*
G02*
X122437500Y-64775000I-237500J0D01*
G01*
G37*
%TD.AperFunction*%
%TO.P,R9,1*%
%TO.N,Net-(C5-Pad1)*%
%TA.AperFunction,SMDPad,CuDef*%
G36*
G01*
X122437500Y-66600000D02*
X121962500Y-66600000D01*
G75*
G02*
X121725000Y-66362500I0J237500D01*
G01*
X121725000Y-65862500D01*
G75*
G02*
X121962500Y-65625000I237500J0D01*
G01*
X122437500Y-65625000D01*
G75*
G02*
X122675000Y-65862500I0J-237500D01*
G01*
X122675000Y-66362500D01*
G75*
G02*
X122437500Y-66600000I-237500J0D01*
G01*
G37*
%TD.AperFunction*%
%TD*%
%TO.P,R8,2*%
%TO.N,Net-(C5-Pad1)*%
%TA.AperFunction,SMDPad,CuDef*%
G36*
G01*
X120225000Y-66037500D02*
X120225000Y-65562500D01*
G75*
G02*
X120462500Y-65325000I237500J0D01*
G01*
X120962500Y-65325000D01*
G75*
G02*
X121200000Y-65562500I0J-237500D01*
G01*
X121200000Y-66037500D01*
G75*
G02*
X120962500Y-66275000I-237500J0D01*
G01*
X120462500Y-66275000D01*
G75*
G02*
X120225000Y-66037500I0J237500D01*
G01*
G37*
%TD.AperFunction*%
%TO.P,R8,1*%
%TO.N,/FB*%
%TA.AperFunction,SMDPad,CuDef*%
G36*
G01*
X118400000Y-66037500D02*
X118400000Y-65562500D01*
G75*
G02*
X118637500Y-65325000I237500J0D01*
G01*
X119137500Y-65325000D01*
G75*
G02*
X119375000Y-65562500I0J-237500D01*
G01*
X119375000Y-66037500D01*
G75*
G02*
X119137500Y-66275000I-237500J0D01*
G01*
X118637500Y-66275000D01*
G75*
G02*
X118400000Y-66037500I0J237500D01*
G01*
G37*
%TD.AperFunction*%
%TD*%
%TO.P,R7,2*%
%TO.N,+3V3*%
%TA.AperFunction,SMDPad,CuDef*%
G36*
G01*
X105962500Y-47825000D02*
X106437500Y-47825000D01*
G75*
G02*
X106675000Y-48062500I0J-237500D01*
G01*
X106675000Y-48562500D01*
G75*
G02*
X106437500Y-48800000I-237500J0D01*
G01*
X105962500Y-48800000D01*
G75*
G02*
X105725000Y-48562500I0J237500D01*
G01*
X105725000Y-48062500D01*
G75*
G02*
X105962500Y-47825000I237500J0D01*
G01*
G37*
%TD.AperFunction*%
%TO.P,R7,1*%
%TO.N,/QR_CMD*%
%TA.AperFunction,SMDPad,CuDef*%
G36*
G01*
X105962500Y-46000000D02*
X106437500Y-46000000D01*
G75*
G02*
X106675000Y-46237500I0J-237500D01*
G01*
X106675000Y-46737500D01*
G75*
G02*
X106437500Y-46975000I-237500J0D01*
G01*
X105962500Y-46975000D01*
G75*
G02*
X105725000Y-46737500I0J237500D01*
G01*
X105725000Y-46237500D01*
G75*
G02*
X105962500Y-46000000I237500J0D01*
G01*
G37*
%TD.AperFunction*%
%TD*%
%TO.P,R6,2*%
%TO.N,+3V3*%
%TA.AperFunction,SMDPad,CuDef*%
G36*
G01*
X104462500Y-47825000D02*
X104937500Y-47825000D01*
G75*
G02*
X105175000Y-48062500I0J-237500D01*
G01*
X105175000Y-48562500D01*
G75*
G02*
X104937500Y-48800000I-237500J0D01*
G01*
X104462500Y-48800000D01*
G75*
G02*
X104225000Y-48562500I0J237500D01*
G01*
X104225000Y-48062500D01*
G75*
G02*
X104462500Y-47825000I237500J0D01*
G01*
G37*
%TD.AperFunction*%
%TO.P,R6,1*%
%TO.N,/ESP_CMD*%
%TA.AperFunction,SMDPad,CuDef*%
G36*
G01*
X104462500Y-46000000D02*
X104937500Y-46000000D01*
G75*
G02*
X105175000Y-46237500I0J-237500D01*
G01*
X105175000Y-46737500D01*
G75*
G02*
X104937500Y-46975000I-237500J0D01*
G01*
X104462500Y-46975000D01*
G75*
G02*
X104225000Y-46737500I0J237500D01*
G01*
X104225000Y-46237500D01*
G75*
G02*
X104462500Y-46000000I237500J0D01*
G01*
G37*
%TD.AperFunction*%
%TD*%
%TO.P,R5,2*%
%TO.N,/FB*%
%TA.AperFunction,SMDPad,CuDef*%
G36*
G01*
X119375000Y-67062500D02*
X119375000Y-67537500D01*
G75*
G02*
X119137500Y-67775000I-237500J0D01*
G01*
X118637500Y-67775000D01*
G75*
G02*
X118400000Y-67537500I0J237500D01*
G01*
X118400000Y-67062500D01*
G75*
G02*
X118637500Y-66825000I237500J0D01*
G01*
X119137500Y-66825000D01*
G75*
G02*
X119375000Y-67062500I0J-237500D01*
G01*
G37*
%TD.AperFunction*%
%TO.P,R5,1*%
%TO.N,GND*%
%TA.AperFunction,SMDPad,CuDef*%
G36*
G01*
X121200000Y-67062500D02*
X121200000Y-67537500D01*
G75*
G02*
X120962500Y-67775000I-237500J0D01*
G01*
X120462500Y-67775000D01*
G75*
G02*
X120225000Y-67537500I0J237500D01*
G01*
X120225000Y-67062500D01*
G75*
G02*
X120462500Y-66825000I237500J0D01*
G01*
X120962500Y-66825000D01*
G75*
G02*
X121200000Y-67062500I0J-237500D01*
G01*
G37*
%TD.AperFunction*%
%TD*%
%TO.P,R4,2*%
%TO.N,/ESP32.~RST*%
%TA.AperFunction,SMDPad,CuDef*%
G36*
G01*
X126125000Y-43937500D02*
X126125000Y-43462500D01*
G75*
G02*
X126362500Y-43225000I237500J0D01*
G01*
X126862500Y-43225000D01*
G75*
G02*
X127100000Y-43462500I0J-237500D01*
G01*
X127100000Y-43937500D01*
G75*
G02*
X126862500Y-44175000I-237500J0D01*
G01*
X126362500Y-44175000D01*
G75*
G02*
X126125000Y-43937500I0J237500D01*
G01*
G37*
%TD.AperFunction*%
%TO.P,R4,1*%
%TO.N,+3V3*%
%TA.AperFunction,SMDPad,CuDef*%
G36*
G01*
X124300000Y-43937500D02*
X124300000Y-43462500D01*
G75*
G02*
X124537500Y-43225000I237500J0D01*
G01*
X125037500Y-43225000D01*
G75*
G02*
X125275000Y-43462500I0J-237500D01*
G01*
X125275000Y-43937500D01*
G75*
G02*
X125037500Y-44175000I-237500J0D01*
G01*
X124537500Y-44175000D01*
G75*
G02*
X124300000Y-43937500I0J237500D01*
G01*
G37*
%TD.AperFunction*%
%TD*%
%TO.P,R3,2*%
%TO.N,Net-(R2-Pad2)*%
%TA.AperFunction,SMDPad,CuDef*%
G36*
G01*
X119375000Y-62562500D02*
X119375000Y-63037500D01*
G75*
G02*
X119137500Y-63275000I-237500J0D01*
G01*
X118637500Y-63275000D01*
G75*
G02*
X118400000Y-63037500I0J237500D01*
G01*
X118400000Y-62562500D01*
G75*
G02*
X118637500Y-62325000I237500J0D01*
G01*
X119137500Y-62325000D01*
G75*
G02*
X119375000Y-62562500I0J-237500D01*
G01*
G37*
%TD.AperFunction*%
%TO.P,R3,1*%
%TO.N,GND*%
%TA.AperFunction,SMDPad,CuDef*%
G36*
G01*
X121200000Y-62562500D02*
X121200000Y-63037500D01*
G75*
G02*
X120962500Y-63275000I-237500J0D01*
G01*
X120462500Y-63275000D01*
G75*
G02*
X120225000Y-63037500I0J237500D01*
G01*
X120225000Y-62562500D01*
G75*
G02*
X120462500Y-62325000I237500J0D01*
G01*
X120962500Y-62325000D01*
G75*
G02*
X121200000Y-62562500I0J-237500D01*
G01*
G37*
%TD.AperFunction*%
%TD*%
%TO.P,R2,2*%
%TO.N,Net-(R2-Pad2)*%
%TA.AperFunction,SMDPad,CuDef*%
G36*
G01*
X119375000Y-61062500D02*
X119375000Y-61537500D01*
G75*
G02*
X119137500Y-61775000I-237500J0D01*
G01*
X118637500Y-61775000D01*
G75*
G02*
X118400000Y-61537500I0J237500D01*
G01*
X118400000Y-61062500D01*
G75*
G02*
X118637500Y-60825000I237500J0D01*
G01*
X119137500Y-60825000D01*
G75*
G02*
X119375000Y-61062500I0J-237500D01*
G01*
G37*
%TD.AperFunction*%
%TO.P,R2,1*%
%TO.N,+12V*%
%TA.AperFunction,SMDPad,CuDef*%
G36*
G01*
X121200000Y-61062500D02*
X121200000Y-61537500D01*
G75*
G02*
X120962500Y-61775000I-237500J0D01*
G01*
X120462500Y-61775000D01*
G75*
G02*
X120225000Y-61537500I0J237500D01*
G01*
X120225000Y-61062500D01*
G75*
G02*
X120462500Y-60825000I237500J0D01*
G01*
X120962500Y-60825000D01*
G75*
G02*
X121200000Y-61062500I0J-237500D01*
G01*
G37*
%TD.AperFunction*%
%TD*%
%TO.P,R1,2*%
%TO.N,+3V3*%
%TA.AperFunction,SMDPad,CuDef*%
G36*
G01*
X123262500Y-40225000D02*
X123737500Y-40225000D01*
G75*
G02*
X123975000Y-40462500I0J-237500D01*
G01*
X123975000Y-40962500D01*
G75*
G02*
X123737500Y-41200000I-237500J0D01*
G01*
X123262500Y-41200000D01*
G75*
G02*
X123025000Y-40962500I0J237500D01*
G01*
X123025000Y-40462500D01*
G75*
G02*
X123262500Y-40225000I237500J0D01*
G01*
G37*
%TD.AperFunction*%
%TO.P,R1,1*%
%TO.N,/QR_CONTROL*%
%TA.AperFunction,SMDPad,CuDef*%
G36*
G01*
X123262500Y-38400000D02*
X123737500Y-38400000D01*
G75*
G02*
X123975000Y-38637500I0J-237500D01*
G01*
X123975000Y-39137500D01*
G75*
G02*
X123737500Y-39375000I-237500J0D01*
G01*
X123262500Y-39375000D01*
G75*
G02*
X123025000Y-39137500I0J237500D01*
G01*
X123025000Y-38637500D01*
G75*
G02*
X123262500Y-38400000I237500J0D01*
G01*
G37*
%TD.AperFunction*%
%TD*%
D16*
%TO.P,J1,*%
%TO.N,*%
X111450000Y-53850000D03*
X120750000Y-53850000D03*
D17*
%TO.P,J1,4*%
%TO.N,+12V*%
X117600000Y-56200000D03*
%TO.P,J1,3*%
%TO.N,/BUS_CMD*%
X116600000Y-56200000D03*
%TO.P,J1,2*%
%TO.N,/CPU_TX*%
X115600000Y-56200000D03*
%TO.P,J1,1*%
%TO.N,GND*%
X114600000Y-56200000D03*
%TD*%
%TO.P,C5,2*%
%TO.N,/FB*%
%TA.AperFunction,SMDPad,CuDef*%
G36*
G01*
X119475000Y-64062500D02*
X119475000Y-64537500D01*
G75*
G02*
X119237500Y-64775000I-237500J0D01*
G01*
X118637500Y-64775000D01*
G75*
G02*
X118400000Y-64537500I0J237500D01*
G01*
X118400000Y-64062500D01*
G75*
G02*
X118637500Y-63825000I237500J0D01*
G01*
X119237500Y-63825000D01*
G75*
G02*
X119475000Y-64062500I0J-237500D01*
G01*
G37*
%TD.AperFunction*%
%TO.P,C5,1*%
%TO.N,Net-(C5-Pad1)*%
%TA.AperFunction,SMDPad,CuDef*%
G36*
G01*
X121200000Y-64062500D02*
X121200000Y-64537500D01*
G75*
G02*
X120962500Y-64775000I-237500J0D01*
G01*
X120362500Y-64775000D01*
G75*
G02*
X120125000Y-64537500I0J237500D01*
G01*
X120125000Y-64062500D01*
G75*
G02*
X120362500Y-63825000I237500J0D01*
G01*
X120962500Y-63825000D01*
G75*
G02*
X121200000Y-64062500I0J-237500D01*
G01*
G37*
%TD.AperFunction*%
%TD*%
%TO.P,C4,2*%
%TO.N,/BOOT*%
%TA.AperFunction,SMDPad,CuDef*%
G36*
G01*
X114925000Y-66637500D02*
X114925000Y-66162500D01*
G75*
G02*
X115162500Y-65925000I237500J0D01*
G01*
X115762500Y-65925000D01*
G75*
G02*
X116000000Y-66162500I0J-237500D01*
G01*
X116000000Y-66637500D01*
G75*
G02*
X115762500Y-66875000I-237500J0D01*
G01*
X115162500Y-66875000D01*
G75*
G02*
X114925000Y-66637500I0J237500D01*
G01*
G37*
%TD.AperFunction*%
%TO.P,C4,1*%
%TO.N,/SW*%
%TA.AperFunction,SMDPad,CuDef*%
G36*
G01*
X113200000Y-66637500D02*
X113200000Y-66162500D01*
G75*
G02*
X113437500Y-65925000I237500J0D01*
G01*
X114037500Y-65925000D01*
G75*
G02*
X114275000Y-66162500I0J-237500D01*
G01*
X114275000Y-66637500D01*
G75*
G02*
X114037500Y-66875000I-237500J0D01*
G01*
X113437500Y-66875000D01*
G75*
G02*
X113200000Y-66637500I0J237500D01*
G01*
G37*
%TD.AperFunction*%
%TD*%
%TO.P,C3,2*%
%TO.N,GND*%
%TA.AperFunction,SMDPad,CuDef*%
G36*
G01*
X115875000Y-60662500D02*
X115875000Y-61137500D01*
G75*
G02*
X115637500Y-61375000I-237500J0D01*
G01*
X115037500Y-61375000D01*
G75*
G02*
X114800000Y-61137500I0J237500D01*
G01*
X114800000Y-60662500D01*
G75*
G02*
X115037500Y-60425000I237500J0D01*
G01*
X115637500Y-60425000D01*
G75*
G02*
X115875000Y-60662500I0J-237500D01*
G01*
G37*
%TD.AperFunction*%
%TO.P,C3,1*%
%TO.N,+12V*%
%TA.AperFunction,SMDPad,CuDef*%
G36*
G01*
X117600000Y-60662500D02*
X117600000Y-61137500D01*
G75*
G02*
X117362500Y-61375000I-237500J0D01*
G01*
X116762500Y-61375000D01*
G75*
G02*
X116525000Y-61137500I0J237500D01*
G01*
X116525000Y-60662500D01*
G75*
G02*
X116762500Y-60425000I237500J0D01*
G01*
X117362500Y-60425000D01*
G75*
G02*
X117600000Y-60662500I0J-237500D01*
G01*
G37*
%TD.AperFunction*%
%TD*%
%TO.P,C2,2*%
%TO.N,GND*%
%TA.AperFunction,SMDPad,CuDef*%
G36*
G01*
X115300000Y-58349999D02*
X115300000Y-59650001D01*
G75*
G02*
X115050001Y-59900000I-249999J0D01*
G01*
X114224999Y-59900000D01*
G75*
G02*
X113975000Y-59650001I0J249999D01*
G01*
X113975000Y-58349999D01*
G75*
G02*
X114224999Y-58100000I249999J0D01*
G01*
X115050001Y-58100000D01*
G75*
G02*
X115300000Y-58349999I0J-249999D01*
G01*
G37*
%TD.AperFunction*%
%TO.P,C2,1*%
%TO.N,+12V*%
%TA.AperFunction,SMDPad,CuDef*%
G36*
G01*
X118425000Y-58349999D02*
X118425000Y-59650001D01*
G75*
G02*
X118175001Y-59900000I-249999J0D01*
G01*
X117349999Y-59900000D01*
G75*
G02*
X117100000Y-59650001I0J249999D01*
G01*
X117100000Y-58349999D01*
G75*
G02*
X117349999Y-58100000I249999J0D01*
G01*
X118175001Y-58100000D01*
G75*
G02*
X118425000Y-58349999I0J-249999D01*
G01*
G37*
%TD.AperFunction*%
%TD*%
%TO.P,C1,2*%
%TO.N,GND*%
%TA.AperFunction,SMDPad,CuDef*%
G36*
G01*
X126225000Y-40137500D02*
X126225000Y-39662500D01*
G75*
G02*
X126462500Y-39425000I237500J0D01*
G01*
X127062500Y-39425000D01*
G75*
G02*
X127300000Y-39662500I0J-237500D01*
G01*
X127300000Y-40137500D01*
G75*
G02*
X127062500Y-40375000I-237500J0D01*
G01*
X126462500Y-40375000D01*
G75*
G02*
X126225000Y-40137500I0J237500D01*
G01*
G37*
%TD.AperFunction*%
%TO.P,C1,1*%
%TO.N,/ESP32.~RST*%
%TA.AperFunction,SMDPad,CuDef*%
G36*
G01*
X124500000Y-40137500D02*
X124500000Y-39662500D01*
G75*
G02*
X124737500Y-39425000I237500J0D01*
G01*
X125337500Y-39425000D01*
G75*
G02*
X125575000Y-39662500I0J-237500D01*
G01*
X125575000Y-40137500D01*
G75*
G02*
X125337500Y-40375000I-237500J0D01*
G01*
X124737500Y-40375000D01*
G75*
G02*
X124500000Y-40137500I0J237500D01*
G01*
G37*
%TD.AperFunction*%
%TD*%
D18*
%TO.N,GND*%
X128400000Y-39900000D03*
X110800000Y-44700000D03*
%TO.N,/ESP32.~RST*%
X125000000Y-38900000D03*
X108400000Y-65100000D03*
X120100000Y-69799992D03*
D19*
%TO.N,+12V*%
X116200000Y-59400000D03*
D20*
%TO.N,+3V3*%
X123700000Y-57900016D03*
X123700000Y-42200000D03*
D18*
X123000000Y-47900000D03*
X102607197Y-43561858D03*
X108100002Y-49600000D03*
%TO.N,/BUS_CMD*%
X116395281Y-52529178D03*
X114870822Y-52529178D03*
%TO.N,/CPU_TX*%
X116500000Y-38800000D03*
%TO.N,/QR_CONTROL*%
X98286658Y-47788023D03*
X122100000Y-39300000D03*
X111000000Y-40400000D03*
X109100000Y-41400000D03*
X111799992Y-71699992D03*
X111337340Y-69062660D03*
%TO.N,/QR_CMD*%
X106100000Y-45400000D03*
X98252803Y-48794000D03*
X111400000Y-42100000D03*
X110400000Y-70000000D03*
X109127710Y-71332530D03*
%TO.N,+5V*%
X123200000Y-64300000D03*
%TO.N,/ESP_CMD*%
X114500000Y-39900000D03*
%TO.N,/DISPLAY.SCL*%
X117395000Y-52605004D03*
%TO.N,/DISPLAY.SDA*%
X120100000Y-49200000D03*
X118700000Y-52600000D03*
X118800000Y-50474990D03*
%TO.N,/ESP32.TMS*%
X110434939Y-39553215D03*
X103000004Y-50600010D03*
%TO.N,/ESP32.TDI*%
X100699842Y-61197926D03*
X110685188Y-38585021D03*
D20*
%TO.N,/SW*%
X114151153Y-63581057D03*
D18*
%TO.N,/ESP32.TCK*%
X108300000Y-38925010D03*
X104541438Y-60258694D03*
X103825010Y-59428790D03*
X106625010Y-59427928D03*
%TO.N,Net-(D1-Pad2)*%
X101500000Y-40500000D03*
%TO.N,Net-(D2-Pad2)*%
X102100000Y-42699982D03*
%TO.N,/LED_ERR*%
X115105561Y-38800012D03*
%TD*%
D21*
%TO.N,GND*%
X114600000Y-56200000D02*
X114600000Y-59000000D01*
X114637500Y-59000000D02*
X114637500Y-60237500D01*
X114637500Y-60237500D02*
X115300000Y-60900000D01*
X115250000Y-62500000D02*
X115250000Y-61050000D01*
X115250000Y-61050000D02*
X115300000Y-61000000D01*
X115300000Y-61000000D02*
X115300000Y-60900000D01*
D22*
X126762500Y-39900000D02*
X128400000Y-39900000D01*
X120712500Y-62800000D02*
X123300000Y-62800000D01*
X123300000Y-62800000D02*
X125000000Y-64500000D01*
D21*
X114600000Y-59100000D02*
X114700000Y-59000000D01*
X111300000Y-59100000D02*
X114600000Y-59100000D01*
X110440000Y-59960000D02*
X111300000Y-59100000D01*
X110440000Y-61800000D02*
X110440000Y-59960000D01*
X125100000Y-64400000D02*
X125100000Y-70900000D01*
X124800000Y-70600000D02*
X125100000Y-70900000D01*
D22*
X109850000Y-45350000D02*
X110150000Y-45350000D01*
X110150000Y-45350000D02*
X110800000Y-44700000D01*
D21*
X121500000Y-68600000D02*
X121500000Y-71000000D01*
X120712500Y-67812500D02*
X121500000Y-68600000D01*
X120712500Y-67300000D02*
X120712500Y-67812500D01*
D22*
%TO.N,/ESP32.~RST*%
X125000000Y-38900000D02*
X125000000Y-39800000D01*
X125100000Y-39900000D02*
X127500000Y-42300000D01*
X125037500Y-39900000D02*
X125100000Y-39900000D01*
X127400000Y-43700000D02*
X127500000Y-43800000D01*
X126612500Y-43700000D02*
X127400000Y-43700000D01*
X127500000Y-42300000D02*
X127500000Y-43800000D01*
X129600000Y-64500000D02*
X129700000Y-64500000D01*
X126500000Y-61400000D02*
X129600000Y-64500000D01*
X126500000Y-56900000D02*
X126500000Y-61400000D01*
X127500000Y-55900000D02*
X126500000Y-56900000D01*
X127500000Y-43800000D02*
X127500000Y-55900000D01*
X108400000Y-65100000D02*
X112100000Y-68800000D01*
X112100000Y-68800000D02*
X119100008Y-68800000D01*
X119100008Y-68800000D02*
X120100000Y-69799992D01*
D21*
%TO.N,+12V*%
X117600000Y-56200000D02*
X117600000Y-59100000D01*
X117762500Y-59000000D02*
X117762500Y-60237500D01*
X117762500Y-60237500D02*
X117100000Y-60900000D01*
X117150000Y-62500000D02*
X117150000Y-61150000D01*
X117150000Y-61150000D02*
X117000000Y-61000000D01*
D22*
X119650000Y-60237500D02*
X117762500Y-60237500D01*
X120712500Y-61300000D02*
X119650000Y-60237500D01*
D21*
X117762500Y-59000000D02*
X116600000Y-59000000D01*
X116600000Y-59000000D02*
X116200000Y-59400000D01*
D22*
%TO.N,Net-(C5-Pad1)*%
X120662500Y-64300000D02*
X120662500Y-65762500D01*
X120662500Y-65762500D02*
X120700000Y-65800000D01*
X120712500Y-65800000D02*
X121800000Y-65800000D01*
X121800000Y-65800000D02*
X122200000Y-66200000D01*
%TO.N,+3V3*%
X123800000Y-43700000D02*
X123700000Y-43600000D01*
D21*
X123700000Y-43600000D02*
X123700000Y-42200000D01*
D22*
X124787500Y-43700000D02*
X123800000Y-43700000D01*
X123600000Y-50800000D02*
X123700000Y-50900000D01*
D21*
X123700000Y-57900016D02*
X123700000Y-50900000D01*
D22*
X106200000Y-48312500D02*
X107887500Y-48312500D01*
X107887500Y-48312500D02*
X107900000Y-48300000D01*
X106200000Y-48312500D02*
X104712500Y-48312500D01*
X104712500Y-48312500D02*
X104700000Y-48300000D01*
D21*
X123700000Y-47800000D02*
X123700000Y-43600000D01*
X123700000Y-50900000D02*
X123700000Y-47800000D01*
X123600000Y-47900000D02*
X123700000Y-47800000D01*
X123000000Y-47900000D02*
X123600000Y-47900000D01*
D22*
X103007196Y-43161859D02*
X102607197Y-43561858D01*
X104012500Y-39500000D02*
X103007196Y-40505304D01*
X103007196Y-40505304D02*
X103007196Y-43161859D01*
X108100002Y-48200002D02*
X108100002Y-49600000D01*
X107950000Y-48050000D02*
X108100002Y-48200002D01*
X123700000Y-42200000D02*
X123700000Y-40800000D01*
X123700000Y-40800000D02*
X123700000Y-40700000D01*
%TO.N,/BUS_CMD*%
X116600000Y-52733897D02*
X116395281Y-52529178D01*
X116600000Y-55800000D02*
X116600000Y-52733897D01*
X116500000Y-55900000D02*
X116600000Y-55800000D01*
X114870822Y-49470822D02*
X114870822Y-52529178D01*
X113450000Y-48050000D02*
X114870822Y-49470822D01*
X109850000Y-48050000D02*
X113450000Y-48050000D01*
%TO.N,/CPU_TX*%
X115600000Y-39700000D02*
X116500000Y-38800000D01*
X115600000Y-56200000D02*
X115600000Y-39700000D01*
%TO.N,/QR_CONTROL*%
X122100000Y-39300000D02*
X122500000Y-38900000D01*
X122500000Y-38900000D02*
X123600000Y-38900000D01*
X110000000Y-41400000D02*
X109100000Y-41400000D01*
X111000000Y-40400000D02*
X110000000Y-41400000D01*
X95912316Y-70148727D02*
X97863580Y-72099991D01*
X95912316Y-49596680D02*
X95912316Y-70148727D01*
X111399993Y-72099991D02*
X111799992Y-71699992D01*
X97863580Y-72099991D02*
X111399993Y-72099991D01*
X98286658Y-47788023D02*
X97720973Y-47788023D01*
X97720973Y-47788023D02*
X95912316Y-49596680D01*
X117242659Y-69262659D02*
X111537339Y-69262659D01*
X118980000Y-71000000D02*
X117242659Y-69262659D01*
X111537339Y-69262659D02*
X111337340Y-69062660D01*
%TO.N,/QR_CMD*%
X106200000Y-46487500D02*
X108502502Y-46487500D01*
X107822498Y-46487500D02*
X108502502Y-46487500D01*
X106100000Y-45400000D02*
X106100000Y-46300000D01*
X106100000Y-46300000D02*
X106200000Y-46400000D01*
X108900000Y-46487500D02*
X108900000Y-45400000D01*
X108502502Y-46487500D02*
X108900000Y-46487500D01*
X110402502Y-46487500D02*
X111799999Y-45090003D01*
X111799999Y-42499999D02*
X111400000Y-42100000D01*
X111799999Y-45090003D02*
X111799999Y-42499999D01*
X108502502Y-46487500D02*
X110402502Y-46487500D01*
X108885239Y-71575001D02*
X109127710Y-71332530D01*
X97975001Y-71575001D02*
X108885239Y-71575001D01*
X115399996Y-69799996D02*
X110600004Y-69799996D01*
X96362327Y-50684476D02*
X96362327Y-69962327D01*
X110600004Y-69799996D02*
X110400000Y-70000000D01*
X98252803Y-48794000D02*
X96362327Y-50684476D01*
X116600000Y-71000000D02*
X115399996Y-69799996D01*
X96362327Y-69962327D02*
X97975001Y-71575001D01*
%TO.N,+5V*%
X123200000Y-64300000D02*
X122200000Y-64300000D01*
D21*
X111782139Y-36717861D02*
X115100000Y-33400000D01*
X109967997Y-70900009D02*
X106367988Y-67300000D01*
X99193382Y-38406618D02*
X100800000Y-36800000D01*
X113900000Y-70700000D02*
X111032004Y-70700000D01*
X111032004Y-70700000D02*
X110831995Y-70900009D01*
X110831995Y-70900009D02*
X109967997Y-70900009D01*
X106367988Y-67300000D02*
X98500000Y-67300000D01*
X98500000Y-67300000D02*
X96987338Y-65787338D01*
X100800000Y-36800000D02*
X110148806Y-36800000D01*
X96987338Y-65787338D02*
X96987338Y-58255338D01*
X96987338Y-58255338D02*
X99193382Y-56049294D01*
X99193382Y-56049294D02*
X99193382Y-38406618D01*
X110148806Y-36800000D02*
X110230945Y-36717861D01*
X110230945Y-36717861D02*
X111782139Y-36717861D01*
D22*
%TO.N,Net-(R2-Pad2)*%
X118887500Y-62787500D02*
X118887500Y-61300000D01*
X118100000Y-63600000D02*
X118900000Y-62800000D01*
X118900000Y-62800000D02*
X118887500Y-62787500D01*
X116800000Y-63600000D02*
X118100000Y-63600000D01*
X116200000Y-64200000D02*
X116800000Y-63600000D01*
X116200000Y-64700000D02*
X116200000Y-64200000D01*
%TO.N,/ESP_CMD*%
X109385340Y-42841658D02*
X111051999Y-41174999D01*
X104700000Y-46487500D02*
X104700000Y-45726998D01*
X111051999Y-41174999D02*
X113225001Y-41174999D01*
X107585340Y-42841658D02*
X109385340Y-42841658D01*
X113225001Y-41174999D02*
X114500000Y-39900000D01*
X107950000Y-45050000D02*
X106663499Y-43763499D01*
X107950000Y-45350000D02*
X107950000Y-45050000D01*
X106663499Y-43763499D02*
X107585340Y-42841658D01*
X104700000Y-45726998D02*
X106663499Y-43763499D01*
%TO.N,/DISPLAY.SCL*%
X117620000Y-33300000D02*
X117500000Y-33420000D01*
X117395000Y-49805000D02*
X117395000Y-52605004D01*
X117400000Y-49800000D02*
X117395000Y-49805000D01*
X117400000Y-49800000D02*
X117450012Y-49749988D01*
X117450012Y-49749988D02*
X119122992Y-49749988D01*
X119122992Y-49749988D02*
X120173004Y-50800000D01*
X120173004Y-50800000D02*
X121800000Y-50800000D01*
X117620000Y-38853004D02*
X116900000Y-39573004D01*
X116900000Y-39573004D02*
X116900000Y-49300000D01*
X117620000Y-33300000D02*
X117620000Y-38853004D01*
X116900000Y-49300000D02*
X117400000Y-49800000D01*
%TO.N,/DISPLAY.SDA*%
X121009999Y-48290001D02*
X120100000Y-49200000D01*
X121009999Y-34149999D02*
X121009999Y-48290001D01*
X120160000Y-33300000D02*
X121009999Y-34149999D01*
X120200000Y-49300000D02*
X120100000Y-49200000D01*
X121787500Y-49300000D02*
X120200000Y-49300000D01*
X118700000Y-52600000D02*
X118700000Y-50574990D01*
X118700000Y-50574990D02*
X118800000Y-50474990D01*
%TO.N,/ESP32.TMS*%
X109346785Y-39553215D02*
X103000004Y-45899996D01*
X110434939Y-39553215D02*
X109346785Y-39553215D01*
X103000004Y-45899996D02*
X103000004Y-50600010D01*
%TO.N,/ESP32.TDI*%
X107350011Y-58289009D02*
X102274999Y-53213997D01*
X102274999Y-45988590D02*
X109678568Y-38585021D01*
X102274999Y-53213997D02*
X102274999Y-45988590D01*
X109678568Y-38585021D02*
X110685188Y-38585021D01*
X107350011Y-59775929D02*
X107350011Y-58289009D01*
X105928014Y-61197926D02*
X107350011Y-59775929D01*
X100699842Y-61197926D02*
X105928014Y-61197926D01*
D23*
%TO.N,/BOOT*%
X115250000Y-66350000D02*
X115200000Y-66400000D01*
X115250000Y-64700000D02*
X115250000Y-66350000D01*
D21*
%TO.N,/SW*%
X115923945Y-63581057D02*
X114151153Y-63581057D01*
X116200000Y-63305002D02*
X115923945Y-63581057D01*
X116200000Y-62500000D02*
X116200000Y-63305002D01*
D23*
X114100000Y-63632210D02*
X114151153Y-63581057D01*
X114100000Y-65737500D02*
X114100000Y-63632210D01*
X113437500Y-66400000D02*
X114100000Y-65737500D01*
D22*
%TO.N,/FB*%
X117150000Y-64700000D02*
X118500000Y-64700000D01*
X118500000Y-64700000D02*
X118900000Y-64300000D01*
X118937500Y-64300000D02*
X118937500Y-65862500D01*
X118937500Y-65862500D02*
X118900000Y-65900000D01*
X118887500Y-65800000D02*
X118887500Y-67287500D01*
X118887500Y-67287500D02*
X118900000Y-67300000D01*
%TO.N,/ESP32.TCK*%
X101824988Y-57428768D02*
X103825010Y-59428790D01*
X101824988Y-45400022D02*
X101824988Y-57428768D01*
X108300000Y-38925010D02*
X101824988Y-45400022D01*
X104541438Y-60258694D02*
X105794244Y-60258694D01*
X105794244Y-60258694D02*
X106625010Y-59427928D01*
%TO.N,Net-(D1-Pad2)*%
X101500000Y-40500000D02*
X102100000Y-39900000D01*
X102100000Y-39900000D02*
X102100000Y-39400000D01*
%TO.N,Net-(D2-Pad2)*%
X102200000Y-42599982D02*
X102100000Y-42699982D01*
X102200000Y-41500000D02*
X102200000Y-42599982D01*
%TO.N,/LED_ERR*%
X110489833Y-37342872D02*
X113648421Y-37342872D01*
X113648421Y-37342872D02*
X115105561Y-38800012D01*
X104012500Y-41500000D02*
X108037502Y-37474998D01*
X110357707Y-37474998D02*
X110489833Y-37342872D01*
X108037502Y-37474998D02*
X110357707Y-37474998D01*
%TD*%
D24*
%TO.N,GND*%
X125743377Y-44556623D02*
X125876058Y-44665512D01*
X126027433Y-44746423D01*
X126191684Y-44796248D01*
X126362500Y-44813072D01*
X126740000Y-44813072D01*
X126740001Y-55585197D01*
X125989002Y-56336196D01*
X125959999Y-56359999D01*
X125904871Y-56427174D01*
X125865026Y-56475724D01*
X125795634Y-56605546D01*
X125794454Y-56607754D01*
X125750997Y-56751015D01*
X125740000Y-56862668D01*
X125740000Y-56862678D01*
X125736324Y-56900000D01*
X125740000Y-56937323D01*
X125740001Y-61362668D01*
X125736324Y-61400000D01*
X125740001Y-61437333D01*
X125750998Y-61548986D01*
X125759960Y-61578529D01*
X125794454Y-61692246D01*
X125865026Y-61824276D01*
X125930021Y-61903472D01*
X125960000Y-61940001D01*
X125988998Y-61963799D01*
X128014635Y-63989436D01*
X127965000Y-64238967D01*
X127965000Y-64561033D01*
X128027832Y-64876912D01*
X128151082Y-65174463D01*
X128330013Y-65442252D01*
X128557748Y-65669987D01*
X128825537Y-65848918D01*
X129123088Y-65972168D01*
X129438967Y-66035000D01*
X129761033Y-66035000D01*
X130076912Y-65972168D01*
X130374463Y-65848918D01*
X130642252Y-65669987D01*
X130869987Y-65442252D01*
X131048918Y-65174463D01*
X131172168Y-64876912D01*
X131235000Y-64561033D01*
X131235000Y-64238967D01*
X131172168Y-63923088D01*
X131048918Y-63625537D01*
X130869987Y-63357748D01*
X130642252Y-63130013D01*
X130374463Y-62951082D01*
X130076912Y-62827832D01*
X129761033Y-62765000D01*
X129438967Y-62765000D01*
X129123088Y-62827832D01*
X129037914Y-62863112D01*
X127563014Y-61388212D01*
X128165000Y-61388212D01*
X128165000Y-61611788D01*
X128208617Y-61831067D01*
X128294176Y-62037624D01*
X128418388Y-62223520D01*
X128576480Y-62381612D01*
X128762376Y-62505824D01*
X128968933Y-62591383D01*
X129188212Y-62635000D01*
X129411788Y-62635000D01*
X129631067Y-62591383D01*
X129837624Y-62505824D01*
X130023520Y-62381612D01*
X130181612Y-62223520D01*
X130305824Y-62037624D01*
X130391383Y-61831067D01*
X130435000Y-61611788D01*
X130435000Y-61388212D01*
X130865000Y-61388212D01*
X130865000Y-61611788D01*
X130908617Y-61831067D01*
X130994176Y-62037624D01*
X131118388Y-62223520D01*
X131276480Y-62381612D01*
X131462376Y-62505824D01*
X131668933Y-62591383D01*
X131888212Y-62635000D01*
X132111788Y-62635000D01*
X132331067Y-62591383D01*
X132537624Y-62505824D01*
X132723520Y-62381612D01*
X132881612Y-62223520D01*
X133005824Y-62037624D01*
X133091383Y-61831067D01*
X133135000Y-61611788D01*
X133135000Y-61388212D01*
X133091383Y-61168933D01*
X133005824Y-60962376D01*
X132881612Y-60776480D01*
X132723520Y-60618388D01*
X132537624Y-60494176D01*
X132331067Y-60408617D01*
X132111788Y-60365000D01*
X131888212Y-60365000D01*
X131668933Y-60408617D01*
X131462376Y-60494176D01*
X131276480Y-60618388D01*
X131118388Y-60776480D01*
X130994176Y-60962376D01*
X130908617Y-61168933D01*
X130865000Y-61388212D01*
X130435000Y-61388212D01*
X130391383Y-61168933D01*
X130305824Y-60962376D01*
X130181612Y-60776480D01*
X130023520Y-60618388D01*
X129837624Y-60494176D01*
X129631067Y-60408617D01*
X129411788Y-60365000D01*
X129188212Y-60365000D01*
X128968933Y-60408617D01*
X128762376Y-60494176D01*
X128576480Y-60618388D01*
X128418388Y-60776480D01*
X128294176Y-60962376D01*
X128208617Y-61168933D01*
X128165000Y-61388212D01*
X127563014Y-61388212D01*
X127260000Y-61085199D01*
X127260000Y-59063193D01*
X127523088Y-59172168D01*
X127838967Y-59235000D01*
X128161033Y-59235000D01*
X128476912Y-59172168D01*
X128774463Y-59048918D01*
X128873000Y-58983078D01*
X128873000Y-60000000D01*
X128875440Y-60024776D01*
X128882667Y-60048601D01*
X128894403Y-60070557D01*
X128910197Y-60089803D01*
X128929443Y-60105597D01*
X128951399Y-60117333D01*
X128975224Y-60124560D01*
X129000000Y-60127000D01*
X136440000Y-60127000D01*
X136440000Y-71840000D01*
X130938310Y-71840000D01*
X131048918Y-71674463D01*
X131172168Y-71376912D01*
X131235000Y-71061033D01*
X131235000Y-70738967D01*
X131172168Y-70423088D01*
X131048918Y-70125537D01*
X130869987Y-69857748D01*
X130642252Y-69630013D01*
X130374463Y-69451082D01*
X130076912Y-69327832D01*
X129761033Y-69265000D01*
X129438967Y-69265000D01*
X129123088Y-69327832D01*
X128825537Y-69451082D01*
X128557748Y-69630013D01*
X128330013Y-69857748D01*
X128151082Y-70125537D01*
X128027832Y-70423088D01*
X127965000Y-70738967D01*
X127965000Y-71061033D01*
X128027832Y-71376912D01*
X128151082Y-71674463D01*
X128261690Y-71840000D01*
X126279058Y-71840000D01*
X126499814Y-71760044D01*
X126640704Y-71470429D01*
X126722384Y-71158892D01*
X126741718Y-70837405D01*
X126697961Y-70518325D01*
X126592795Y-70213912D01*
X126499814Y-70039956D01*
X126235413Y-69944192D01*
X125279605Y-70900000D01*
X125293748Y-70914143D01*
X125114143Y-71093748D01*
X125100000Y-71079605D01*
X125085858Y-71093748D01*
X124906253Y-70914143D01*
X124920395Y-70900000D01*
X123964587Y-69944192D01*
X123700186Y-70039956D01*
X123559296Y-70329571D01*
X123477616Y-70641108D01*
X123458282Y-70962595D01*
X123502039Y-71281675D01*
X123607205Y-71586088D01*
X123700186Y-71760044D01*
X123920942Y-71840000D01*
X122739812Y-71840000D01*
X122864157Y-71631252D01*
X122961481Y-71356891D01*
X122840814Y-71127000D01*
X121647000Y-71127000D01*
X121647000Y-71147000D01*
X121393000Y-71147000D01*
X121393000Y-71127000D01*
X121373000Y-71127000D01*
X121373000Y-70873000D01*
X121393000Y-70873000D01*
X121393000Y-69679845D01*
X121647000Y-69679845D01*
X121647000Y-70873000D01*
X122840814Y-70873000D01*
X122961481Y-70643109D01*
X122864157Y-70368748D01*
X122715178Y-70118645D01*
X122520269Y-69902412D01*
X122335491Y-69764587D01*
X124144192Y-69764587D01*
X125100000Y-70720395D01*
X126055808Y-69764587D01*
X125960044Y-69500186D01*
X125670429Y-69359296D01*
X125358892Y-69277616D01*
X125037405Y-69258282D01*
X124718325Y-69302039D01*
X124413912Y-69407205D01*
X124239956Y-69500186D01*
X124144192Y-69764587D01*
X122335491Y-69764587D01*
X122286920Y-69728359D01*
X122024099Y-69603175D01*
X121876890Y-69558524D01*
X121647000Y-69679845D01*
X121393000Y-69679845D01*
X121163110Y-69558524D01*
X121110425Y-69574504D01*
X121095226Y-69498094D01*
X121017205Y-69309736D01*
X120903937Y-69140218D01*
X120759774Y-68996055D01*
X120590256Y-68882787D01*
X120401898Y-68804766D01*
X120201939Y-68764992D01*
X120139802Y-68764992D01*
X119663812Y-68289002D01*
X119640009Y-68259999D01*
X119635334Y-68256163D01*
X119732783Y-68176188D01*
X119773815Y-68226185D01*
X119870506Y-68305537D01*
X119980820Y-68364502D01*
X120100518Y-68400812D01*
X120225000Y-68413072D01*
X120426750Y-68410000D01*
X120585500Y-68251250D01*
X120585500Y-67427000D01*
X120839500Y-67427000D01*
X120839500Y-68251250D01*
X120998250Y-68410000D01*
X121200000Y-68413072D01*
X121324482Y-68400812D01*
X121444180Y-68364502D01*
X121554494Y-68305537D01*
X121651185Y-68226185D01*
X121730537Y-68129494D01*
X121789502Y-68019180D01*
X121825812Y-67899482D01*
X121838072Y-67775000D01*
X121835000Y-67585750D01*
X121676250Y-67427000D01*
X120839500Y-67427000D01*
X120585500Y-67427000D01*
X120565500Y-67427000D01*
X120565500Y-67173000D01*
X120585500Y-67173000D01*
X120585500Y-67153000D01*
X120839500Y-67153000D01*
X120839500Y-67173000D01*
X121632632Y-67173000D01*
X121791684Y-67221248D01*
X121962500Y-67238072D01*
X122437500Y-67238072D01*
X122608316Y-67221248D01*
X122772567Y-67171423D01*
X122923942Y-67090512D01*
X123056623Y-66981623D01*
X123165512Y-66848942D01*
X123246423Y-66697567D01*
X123296248Y-66533316D01*
X123313072Y-66362500D01*
X123313072Y-65862500D01*
X123296248Y-65691684D01*
X123248844Y-65535413D01*
X124144192Y-65535413D01*
X124239956Y-65799814D01*
X124529571Y-65940704D01*
X124841108Y-66022384D01*
X125162595Y-66041718D01*
X125481675Y-65997961D01*
X125786088Y-65892795D01*
X125960044Y-65799814D01*
X126055808Y-65535413D01*
X125100000Y-64579605D01*
X124144192Y-65535413D01*
X123248844Y-65535413D01*
X123246423Y-65527433D01*
X123165512Y-65376058D01*
X123131816Y-65335000D01*
X123301939Y-65335000D01*
X123501898Y-65295226D01*
X123679639Y-65221603D01*
X123700186Y-65260044D01*
X123964587Y-65355808D01*
X124920395Y-64400000D01*
X125279605Y-64400000D01*
X126235413Y-65355808D01*
X126499814Y-65260044D01*
X126640704Y-64970429D01*
X126722384Y-64658892D01*
X126741718Y-64337405D01*
X126697961Y-64018325D01*
X126592795Y-63713912D01*
X126499814Y-63539956D01*
X126235413Y-63444192D01*
X125279605Y-64400000D01*
X124920395Y-64400000D01*
X123964587Y-63444192D01*
X123846275Y-63487044D01*
X123690256Y-63382795D01*
X123501898Y-63304774D01*
X123301939Y-63265000D01*
X123098061Y-63265000D01*
X122910506Y-63302307D01*
X122839937Y-63264587D01*
X124144192Y-63264587D01*
X125100000Y-64220395D01*
X126055808Y-63264587D01*
X125960044Y-63000186D01*
X125670429Y-62859296D01*
X125358892Y-62777616D01*
X125037405Y-62758282D01*
X124718325Y-62802039D01*
X124413912Y-62907205D01*
X124239956Y-63000186D01*
X124144192Y-63264587D01*
X122839937Y-63264587D01*
X122772567Y-63228577D01*
X122608316Y-63178752D01*
X122437500Y-63161928D01*
X121962500Y-63161928D01*
X121836438Y-63174344D01*
X121835000Y-63085750D01*
X121676250Y-62927000D01*
X120839500Y-62927000D01*
X120839500Y-62947000D01*
X120585500Y-62947000D01*
X120585500Y-62927000D01*
X120565500Y-62927000D01*
X120565500Y-62673000D01*
X120585500Y-62673000D01*
X120585500Y-62653000D01*
X120839500Y-62653000D01*
X120839500Y-62673000D01*
X121676250Y-62673000D01*
X121835000Y-62514250D01*
X121838072Y-62325000D01*
X121825812Y-62200518D01*
X121789502Y-62080820D01*
X121730537Y-61970506D01*
X121723595Y-61962047D01*
X121771423Y-61872567D01*
X121821248Y-61708316D01*
X121838072Y-61537500D01*
X121838072Y-61062500D01*
X121821248Y-60891684D01*
X121771423Y-60727433D01*
X121690512Y-60576058D01*
X121581623Y-60443377D01*
X121448942Y-60334488D01*
X121297567Y-60253577D01*
X121133316Y-60203752D01*
X120962500Y-60186928D01*
X120674229Y-60186928D01*
X120213804Y-59726502D01*
X120190001Y-59697499D01*
X120074276Y-59602526D01*
X119942247Y-59531954D01*
X119798986Y-59488497D01*
X119687333Y-59477500D01*
X119687322Y-59477500D01*
X119650000Y-59473824D01*
X119612678Y-59477500D01*
X119063072Y-59477500D01*
X119063072Y-58349999D01*
X119046008Y-58176745D01*
X118995472Y-58010149D01*
X118913405Y-57856613D01*
X118802962Y-57722038D01*
X118668387Y-57611595D01*
X118535000Y-57540298D01*
X118535000Y-57181192D01*
X118538072Y-57150000D01*
X118538072Y-55250000D01*
X118525812Y-55125518D01*
X118489502Y-55005820D01*
X118430537Y-54895506D01*
X118351185Y-54798815D01*
X118254494Y-54719463D01*
X118144180Y-54660498D01*
X118024482Y-54624188D01*
X117900000Y-54611928D01*
X117360000Y-54611928D01*
X117360000Y-53640004D01*
X117496939Y-53640004D01*
X117696898Y-53600230D01*
X117885256Y-53522209D01*
X118051245Y-53411299D01*
X118209744Y-53517205D01*
X118398102Y-53595226D01*
X118598061Y-53635000D01*
X118801939Y-53635000D01*
X119001898Y-53595226D01*
X119061928Y-53570361D01*
X119061928Y-55250000D01*
X119074188Y-55374482D01*
X119110498Y-55494180D01*
X119169463Y-55604494D01*
X119248815Y-55701185D01*
X119345506Y-55780537D01*
X119455820Y-55839502D01*
X119575518Y-55875812D01*
X119700000Y-55888072D01*
X121800000Y-55888072D01*
X121924482Y-55875812D01*
X122044180Y-55839502D01*
X122154494Y-55780537D01*
X122251185Y-55701185D01*
X122330537Y-55604494D01*
X122389502Y-55494180D01*
X122425812Y-55374482D01*
X122438072Y-55250000D01*
X122438072Y-52450000D01*
X122425812Y-52325518D01*
X122389502Y-52205820D01*
X122330537Y-52095506D01*
X122251185Y-51998815D01*
X122154494Y-51919463D01*
X122126194Y-51904336D01*
X122208316Y-51896248D01*
X122372567Y-51846423D01*
X122523942Y-51765512D01*
X122656623Y-51656623D01*
X122700000Y-51603768D01*
X122743377Y-51656623D01*
X122765001Y-51674369D01*
X122765000Y-56876331D01*
X122624201Y-57017130D01*
X122472629Y-57243973D01*
X122368225Y-57496027D01*
X122315000Y-57763605D01*
X122315000Y-58036427D01*
X122368225Y-58304005D01*
X122472629Y-58556059D01*
X122624201Y-58782902D01*
X122817114Y-58975815D01*
X123043957Y-59127387D01*
X123296011Y-59231791D01*
X123563589Y-59285016D01*
X123836411Y-59285016D01*
X124103989Y-59231791D01*
X124356043Y-59127387D01*
X124582886Y-58975815D01*
X124775799Y-58782902D01*
X124927371Y-58556059D01*
X125031775Y-58304005D01*
X125085000Y-58036427D01*
X125085000Y-57763605D01*
X125031775Y-57496027D01*
X124927371Y-57243973D01*
X124775799Y-57017130D01*
X124635000Y-56876331D01*
X124635000Y-51440710D01*
X124671423Y-51372567D01*
X124721248Y-51208316D01*
X124738072Y-51037500D01*
X124738072Y-50562500D01*
X124721248Y-50391684D01*
X124671423Y-50227433D01*
X124635000Y-50159290D01*
X124635000Y-49940710D01*
X124671423Y-49872567D01*
X124721248Y-49708316D01*
X124738072Y-49537500D01*
X124738072Y-49062500D01*
X124721248Y-48891684D01*
X124671423Y-48727433D01*
X124635000Y-48659290D01*
X124635000Y-47845931D01*
X124639524Y-47800001D01*
X124635000Y-47754068D01*
X124635000Y-44813072D01*
X125037500Y-44813072D01*
X125208316Y-44796248D01*
X125372567Y-44746423D01*
X125523942Y-44665512D01*
X125656623Y-44556623D01*
X125700000Y-44503768D01*
X125743377Y-44556623D01*
%TA.AperFunction,Conductor*%
D25*
G36*
X125743377Y-44556623D02*
G01*
X125876058Y-44665512D01*
X126027433Y-44746423D01*
X126191684Y-44796248D01*
X126362500Y-44813072D01*
X126740000Y-44813072D01*
X126740001Y-55585197D01*
X125989002Y-56336196D01*
X125959999Y-56359999D01*
X125904871Y-56427174D01*
X125865026Y-56475724D01*
X125795634Y-56605546D01*
X125794454Y-56607754D01*
X125750997Y-56751015D01*
X125740000Y-56862668D01*
X125740000Y-56862678D01*
X125736324Y-56900000D01*
X125740000Y-56937323D01*
X125740001Y-61362668D01*
X125736324Y-61400000D01*
X125740001Y-61437333D01*
X125750998Y-61548986D01*
X125759960Y-61578529D01*
X125794454Y-61692246D01*
X125865026Y-61824276D01*
X125930021Y-61903472D01*
X125960000Y-61940001D01*
X125988998Y-61963799D01*
X128014635Y-63989436D01*
X127965000Y-64238967D01*
X127965000Y-64561033D01*
X128027832Y-64876912D01*
X128151082Y-65174463D01*
X128330013Y-65442252D01*
X128557748Y-65669987D01*
X128825537Y-65848918D01*
X129123088Y-65972168D01*
X129438967Y-66035000D01*
X129761033Y-66035000D01*
X130076912Y-65972168D01*
X130374463Y-65848918D01*
X130642252Y-65669987D01*
X130869987Y-65442252D01*
X131048918Y-65174463D01*
X131172168Y-64876912D01*
X131235000Y-64561033D01*
X131235000Y-64238967D01*
X131172168Y-63923088D01*
X131048918Y-63625537D01*
X130869987Y-63357748D01*
X130642252Y-63130013D01*
X130374463Y-62951082D01*
X130076912Y-62827832D01*
X129761033Y-62765000D01*
X129438967Y-62765000D01*
X129123088Y-62827832D01*
X129037914Y-62863112D01*
X127563014Y-61388212D01*
X128165000Y-61388212D01*
X128165000Y-61611788D01*
X128208617Y-61831067D01*
X128294176Y-62037624D01*
X128418388Y-62223520D01*
X128576480Y-62381612D01*
X128762376Y-62505824D01*
X128968933Y-62591383D01*
X129188212Y-62635000D01*
X129411788Y-62635000D01*
X129631067Y-62591383D01*
X129837624Y-62505824D01*
X130023520Y-62381612D01*
X130181612Y-62223520D01*
X130305824Y-62037624D01*
X130391383Y-61831067D01*
X130435000Y-61611788D01*
X130435000Y-61388212D01*
X130865000Y-61388212D01*
X130865000Y-61611788D01*
X130908617Y-61831067D01*
X130994176Y-62037624D01*
X131118388Y-62223520D01*
X131276480Y-62381612D01*
X131462376Y-62505824D01*
X131668933Y-62591383D01*
X131888212Y-62635000D01*
X132111788Y-62635000D01*
X132331067Y-62591383D01*
X132537624Y-62505824D01*
X132723520Y-62381612D01*
X132881612Y-62223520D01*
X133005824Y-62037624D01*
X133091383Y-61831067D01*
X133135000Y-61611788D01*
X133135000Y-61388212D01*
X133091383Y-61168933D01*
X133005824Y-60962376D01*
X132881612Y-60776480D01*
X132723520Y-60618388D01*
X132537624Y-60494176D01*
X132331067Y-60408617D01*
X132111788Y-60365000D01*
X131888212Y-60365000D01*
X131668933Y-60408617D01*
X131462376Y-60494176D01*
X131276480Y-60618388D01*
X131118388Y-60776480D01*
X130994176Y-60962376D01*
X130908617Y-61168933D01*
X130865000Y-61388212D01*
X130435000Y-61388212D01*
X130391383Y-61168933D01*
X130305824Y-60962376D01*
X130181612Y-60776480D01*
X130023520Y-60618388D01*
X129837624Y-60494176D01*
X129631067Y-60408617D01*
X129411788Y-60365000D01*
X129188212Y-60365000D01*
X128968933Y-60408617D01*
X128762376Y-60494176D01*
X128576480Y-60618388D01*
X128418388Y-60776480D01*
X128294176Y-60962376D01*
X128208617Y-61168933D01*
X128165000Y-61388212D01*
X127563014Y-61388212D01*
X127260000Y-61085199D01*
X127260000Y-59063193D01*
X127523088Y-59172168D01*
X127838967Y-59235000D01*
X128161033Y-59235000D01*
X128476912Y-59172168D01*
X128774463Y-59048918D01*
X128873000Y-58983078D01*
X128873000Y-60000000D01*
X128875440Y-60024776D01*
X128882667Y-60048601D01*
X128894403Y-60070557D01*
X128910197Y-60089803D01*
X128929443Y-60105597D01*
X128951399Y-60117333D01*
X128975224Y-60124560D01*
X129000000Y-60127000D01*
X136440000Y-60127000D01*
X136440000Y-71840000D01*
X130938310Y-71840000D01*
X131048918Y-71674463D01*
X131172168Y-71376912D01*
X131235000Y-71061033D01*
X131235000Y-70738967D01*
X131172168Y-70423088D01*
X131048918Y-70125537D01*
X130869987Y-69857748D01*
X130642252Y-69630013D01*
X130374463Y-69451082D01*
X130076912Y-69327832D01*
X129761033Y-69265000D01*
X129438967Y-69265000D01*
X129123088Y-69327832D01*
X128825537Y-69451082D01*
X128557748Y-69630013D01*
X128330013Y-69857748D01*
X128151082Y-70125537D01*
X128027832Y-70423088D01*
X127965000Y-70738967D01*
X127965000Y-71061033D01*
X128027832Y-71376912D01*
X128151082Y-71674463D01*
X128261690Y-71840000D01*
X126279058Y-71840000D01*
X126499814Y-71760044D01*
X126640704Y-71470429D01*
X126722384Y-71158892D01*
X126741718Y-70837405D01*
X126697961Y-70518325D01*
X126592795Y-70213912D01*
X126499814Y-70039956D01*
X126235413Y-69944192D01*
X125279605Y-70900000D01*
X125293748Y-70914143D01*
X125114143Y-71093748D01*
X125100000Y-71079605D01*
X125085858Y-71093748D01*
X124906253Y-70914143D01*
X124920395Y-70900000D01*
X123964587Y-69944192D01*
X123700186Y-70039956D01*
X123559296Y-70329571D01*
X123477616Y-70641108D01*
X123458282Y-70962595D01*
X123502039Y-71281675D01*
X123607205Y-71586088D01*
X123700186Y-71760044D01*
X123920942Y-71840000D01*
X122739812Y-71840000D01*
X122864157Y-71631252D01*
X122961481Y-71356891D01*
X122840814Y-71127000D01*
X121647000Y-71127000D01*
X121647000Y-71147000D01*
X121393000Y-71147000D01*
X121393000Y-71127000D01*
X121373000Y-71127000D01*
X121373000Y-70873000D01*
X121393000Y-70873000D01*
X121393000Y-69679845D01*
X121647000Y-69679845D01*
X121647000Y-70873000D01*
X122840814Y-70873000D01*
X122961481Y-70643109D01*
X122864157Y-70368748D01*
X122715178Y-70118645D01*
X122520269Y-69902412D01*
X122335491Y-69764587D01*
X124144192Y-69764587D01*
X125100000Y-70720395D01*
X126055808Y-69764587D01*
X125960044Y-69500186D01*
X125670429Y-69359296D01*
X125358892Y-69277616D01*
X125037405Y-69258282D01*
X124718325Y-69302039D01*
X124413912Y-69407205D01*
X124239956Y-69500186D01*
X124144192Y-69764587D01*
X122335491Y-69764587D01*
X122286920Y-69728359D01*
X122024099Y-69603175D01*
X121876890Y-69558524D01*
X121647000Y-69679845D01*
X121393000Y-69679845D01*
X121163110Y-69558524D01*
X121110425Y-69574504D01*
X121095226Y-69498094D01*
X121017205Y-69309736D01*
X120903937Y-69140218D01*
X120759774Y-68996055D01*
X120590256Y-68882787D01*
X120401898Y-68804766D01*
X120201939Y-68764992D01*
X120139802Y-68764992D01*
X119663812Y-68289002D01*
X119640009Y-68259999D01*
X119635334Y-68256163D01*
X119732783Y-68176188D01*
X119773815Y-68226185D01*
X119870506Y-68305537D01*
X119980820Y-68364502D01*
X120100518Y-68400812D01*
X120225000Y-68413072D01*
X120426750Y-68410000D01*
X120585500Y-68251250D01*
X120585500Y-67427000D01*
X120839500Y-67427000D01*
X120839500Y-68251250D01*
X120998250Y-68410000D01*
X121200000Y-68413072D01*
X121324482Y-68400812D01*
X121444180Y-68364502D01*
X121554494Y-68305537D01*
X121651185Y-68226185D01*
X121730537Y-68129494D01*
X121789502Y-68019180D01*
X121825812Y-67899482D01*
X121838072Y-67775000D01*
X121835000Y-67585750D01*
X121676250Y-67427000D01*
X120839500Y-67427000D01*
X120585500Y-67427000D01*
X120565500Y-67427000D01*
X120565500Y-67173000D01*
X120585500Y-67173000D01*
X120585500Y-67153000D01*
X120839500Y-67153000D01*
X120839500Y-67173000D01*
X121632632Y-67173000D01*
X121791684Y-67221248D01*
X121962500Y-67238072D01*
X122437500Y-67238072D01*
X122608316Y-67221248D01*
X122772567Y-67171423D01*
X122923942Y-67090512D01*
X123056623Y-66981623D01*
X123165512Y-66848942D01*
X123246423Y-66697567D01*
X123296248Y-66533316D01*
X123313072Y-66362500D01*
X123313072Y-65862500D01*
X123296248Y-65691684D01*
X123248844Y-65535413D01*
X124144192Y-65535413D01*
X124239956Y-65799814D01*
X124529571Y-65940704D01*
X124841108Y-66022384D01*
X125162595Y-66041718D01*
X125481675Y-65997961D01*
X125786088Y-65892795D01*
X125960044Y-65799814D01*
X126055808Y-65535413D01*
X125100000Y-64579605D01*
X124144192Y-65535413D01*
X123248844Y-65535413D01*
X123246423Y-65527433D01*
X123165512Y-65376058D01*
X123131816Y-65335000D01*
X123301939Y-65335000D01*
X123501898Y-65295226D01*
X123679639Y-65221603D01*
X123700186Y-65260044D01*
X123964587Y-65355808D01*
X124920395Y-64400000D01*
X125279605Y-64400000D01*
X126235413Y-65355808D01*
X126499814Y-65260044D01*
X126640704Y-64970429D01*
X126722384Y-64658892D01*
X126741718Y-64337405D01*
X126697961Y-64018325D01*
X126592795Y-63713912D01*
X126499814Y-63539956D01*
X126235413Y-63444192D01*
X125279605Y-64400000D01*
X124920395Y-64400000D01*
X123964587Y-63444192D01*
X123846275Y-63487044D01*
X123690256Y-63382795D01*
X123501898Y-63304774D01*
X123301939Y-63265000D01*
X123098061Y-63265000D01*
X122910506Y-63302307D01*
X122839937Y-63264587D01*
X124144192Y-63264587D01*
X125100000Y-64220395D01*
X126055808Y-63264587D01*
X125960044Y-63000186D01*
X125670429Y-62859296D01*
X125358892Y-62777616D01*
X125037405Y-62758282D01*
X124718325Y-62802039D01*
X124413912Y-62907205D01*
X124239956Y-63000186D01*
X124144192Y-63264587D01*
X122839937Y-63264587D01*
X122772567Y-63228577D01*
X122608316Y-63178752D01*
X122437500Y-63161928D01*
X121962500Y-63161928D01*
X121836438Y-63174344D01*
X121835000Y-63085750D01*
X121676250Y-62927000D01*
X120839500Y-62927000D01*
X120839500Y-62947000D01*
X120585500Y-62947000D01*
X120585500Y-62927000D01*
X120565500Y-62927000D01*
X120565500Y-62673000D01*
X120585500Y-62673000D01*
X120585500Y-62653000D01*
X120839500Y-62653000D01*
X120839500Y-62673000D01*
X121676250Y-62673000D01*
X121835000Y-62514250D01*
X121838072Y-62325000D01*
X121825812Y-62200518D01*
X121789502Y-62080820D01*
X121730537Y-61970506D01*
X121723595Y-61962047D01*
X121771423Y-61872567D01*
X121821248Y-61708316D01*
X121838072Y-61537500D01*
X121838072Y-61062500D01*
X121821248Y-60891684D01*
X121771423Y-60727433D01*
X121690512Y-60576058D01*
X121581623Y-60443377D01*
X121448942Y-60334488D01*
X121297567Y-60253577D01*
X121133316Y-60203752D01*
X120962500Y-60186928D01*
X120674229Y-60186928D01*
X120213804Y-59726502D01*
X120190001Y-59697499D01*
X120074276Y-59602526D01*
X119942247Y-59531954D01*
X119798986Y-59488497D01*
X119687333Y-59477500D01*
X119687322Y-59477500D01*
X119650000Y-59473824D01*
X119612678Y-59477500D01*
X119063072Y-59477500D01*
X119063072Y-58349999D01*
X119046008Y-58176745D01*
X118995472Y-58010149D01*
X118913405Y-57856613D01*
X118802962Y-57722038D01*
X118668387Y-57611595D01*
X118535000Y-57540298D01*
X118535000Y-57181192D01*
X118538072Y-57150000D01*
X118538072Y-55250000D01*
X118525812Y-55125518D01*
X118489502Y-55005820D01*
X118430537Y-54895506D01*
X118351185Y-54798815D01*
X118254494Y-54719463D01*
X118144180Y-54660498D01*
X118024482Y-54624188D01*
X117900000Y-54611928D01*
X117360000Y-54611928D01*
X117360000Y-53640004D01*
X117496939Y-53640004D01*
X117696898Y-53600230D01*
X117885256Y-53522209D01*
X118051245Y-53411299D01*
X118209744Y-53517205D01*
X118398102Y-53595226D01*
X118598061Y-53635000D01*
X118801939Y-53635000D01*
X119001898Y-53595226D01*
X119061928Y-53570361D01*
X119061928Y-55250000D01*
X119074188Y-55374482D01*
X119110498Y-55494180D01*
X119169463Y-55604494D01*
X119248815Y-55701185D01*
X119345506Y-55780537D01*
X119455820Y-55839502D01*
X119575518Y-55875812D01*
X119700000Y-55888072D01*
X121800000Y-55888072D01*
X121924482Y-55875812D01*
X122044180Y-55839502D01*
X122154494Y-55780537D01*
X122251185Y-55701185D01*
X122330537Y-55604494D01*
X122389502Y-55494180D01*
X122425812Y-55374482D01*
X122438072Y-55250000D01*
X122438072Y-52450000D01*
X122425812Y-52325518D01*
X122389502Y-52205820D01*
X122330537Y-52095506D01*
X122251185Y-51998815D01*
X122154494Y-51919463D01*
X122126194Y-51904336D01*
X122208316Y-51896248D01*
X122372567Y-51846423D01*
X122523942Y-51765512D01*
X122656623Y-51656623D01*
X122700000Y-51603768D01*
X122743377Y-51656623D01*
X122765001Y-51674369D01*
X122765000Y-56876331D01*
X122624201Y-57017130D01*
X122472629Y-57243973D01*
X122368225Y-57496027D01*
X122315000Y-57763605D01*
X122315000Y-58036427D01*
X122368225Y-58304005D01*
X122472629Y-58556059D01*
X122624201Y-58782902D01*
X122817114Y-58975815D01*
X123043957Y-59127387D01*
X123296011Y-59231791D01*
X123563589Y-59285016D01*
X123836411Y-59285016D01*
X124103989Y-59231791D01*
X124356043Y-59127387D01*
X124582886Y-58975815D01*
X124775799Y-58782902D01*
X124927371Y-58556059D01*
X125031775Y-58304005D01*
X125085000Y-58036427D01*
X125085000Y-57763605D01*
X125031775Y-57496027D01*
X124927371Y-57243973D01*
X124775799Y-57017130D01*
X124635000Y-56876331D01*
X124635000Y-51440710D01*
X124671423Y-51372567D01*
X124721248Y-51208316D01*
X124738072Y-51037500D01*
X124738072Y-50562500D01*
X124721248Y-50391684D01*
X124671423Y-50227433D01*
X124635000Y-50159290D01*
X124635000Y-49940710D01*
X124671423Y-49872567D01*
X124721248Y-49708316D01*
X124738072Y-49537500D01*
X124738072Y-49062500D01*
X124721248Y-48891684D01*
X124671423Y-48727433D01*
X124635000Y-48659290D01*
X124635000Y-47845931D01*
X124639524Y-47800001D01*
X124635000Y-47754068D01*
X124635000Y-44813072D01*
X125037500Y-44813072D01*
X125208316Y-44796248D01*
X125372567Y-44746423D01*
X125523942Y-44665512D01*
X125656623Y-44556623D01*
X125700000Y-44503768D01*
X125743377Y-44556623D01*
G37*
%TD.AperFunction*%
D24*
X114110822Y-49785624D02*
X114110823Y-51825466D01*
X114066885Y-51869404D01*
X113953617Y-52038922D01*
X113875596Y-52227280D01*
X113835822Y-52427239D01*
X113835822Y-52631117D01*
X113875596Y-52831076D01*
X113953617Y-53019434D01*
X114066885Y-53188952D01*
X114211048Y-53333115D01*
X114380566Y-53446383D01*
X114568924Y-53524404D01*
X114768883Y-53564178D01*
X114840000Y-53564178D01*
X114840000Y-54660750D01*
X114727000Y-54773750D01*
X114727000Y-54974947D01*
X114710498Y-55005820D01*
X114674188Y-55125518D01*
X114661928Y-55250000D01*
X114661928Y-57150000D01*
X114674188Y-57274482D01*
X114710498Y-57394180D01*
X114727000Y-57425053D01*
X114727000Y-57626250D01*
X114764500Y-57663750D01*
X114764500Y-58873000D01*
X114784500Y-58873000D01*
X114784500Y-59127000D01*
X114764500Y-59127000D01*
X114764500Y-59147000D01*
X114510500Y-59147000D01*
X114510500Y-59127000D01*
X113498750Y-59127000D01*
X113340000Y-59285750D01*
X113336928Y-59900000D01*
X113349188Y-60024482D01*
X113385498Y-60144180D01*
X113444463Y-60254494D01*
X113523815Y-60351185D01*
X113620506Y-60430537D01*
X113730820Y-60489502D01*
X113850518Y-60525812D01*
X113975000Y-60538072D01*
X114163738Y-60536533D01*
X114165000Y-60614250D01*
X114323750Y-60773000D01*
X115210500Y-60773000D01*
X115210500Y-60753000D01*
X115464500Y-60753000D01*
X115464500Y-60773000D01*
X115484500Y-60773000D01*
X115484500Y-61027000D01*
X115464500Y-61027000D01*
X115464500Y-61047000D01*
X115210500Y-61047000D01*
X115210500Y-61027000D01*
X114323750Y-61027000D01*
X114165000Y-61185750D01*
X114161928Y-61375000D01*
X114174188Y-61499482D01*
X114210498Y-61619180D01*
X114269463Y-61729494D01*
X114316863Y-61787251D01*
X114299188Y-61845518D01*
X114286928Y-61970000D01*
X114289777Y-62196497D01*
X114287564Y-62196057D01*
X114014742Y-62196057D01*
X113747164Y-62249282D01*
X113495110Y-62353686D01*
X113268267Y-62505258D01*
X113075354Y-62698171D01*
X112923782Y-62925014D01*
X112819378Y-63177068D01*
X112766153Y-63444646D01*
X112766153Y-63717468D01*
X112819378Y-63985046D01*
X112923782Y-64237100D01*
X113075354Y-64463943D01*
X113265001Y-64653590D01*
X113265000Y-65304263D01*
X113102433Y-65353577D01*
X112951058Y-65434488D01*
X112818377Y-65543377D01*
X112709488Y-65676058D01*
X112628577Y-65827433D01*
X112578752Y-65991684D01*
X112561928Y-66162500D01*
X112561928Y-66637500D01*
X112578752Y-66808316D01*
X112628577Y-66972567D01*
X112709488Y-67123942D01*
X112818377Y-67256623D01*
X112951058Y-67365512D01*
X113102433Y-67446423D01*
X113266684Y-67496248D01*
X113437500Y-67513072D01*
X114037500Y-67513072D01*
X114208316Y-67496248D01*
X114372567Y-67446423D01*
X114523942Y-67365512D01*
X114600000Y-67303093D01*
X114676058Y-67365512D01*
X114827433Y-67446423D01*
X114991684Y-67496248D01*
X115162500Y-67513072D01*
X115762500Y-67513072D01*
X115933316Y-67496248D01*
X116097567Y-67446423D01*
X116248942Y-67365512D01*
X116381623Y-67256623D01*
X116490512Y-67123942D01*
X116571423Y-66972567D01*
X116621248Y-66808316D01*
X116638072Y-66637500D01*
X116638072Y-66162500D01*
X116621248Y-65991684D01*
X116582046Y-65862454D01*
X116649482Y-65855812D01*
X116675000Y-65848071D01*
X116700518Y-65855812D01*
X116825000Y-65868072D01*
X117475000Y-65868072D01*
X117599482Y-65855812D01*
X117719180Y-65819502D01*
X117761928Y-65796652D01*
X117761928Y-66037500D01*
X117778752Y-66208316D01*
X117828577Y-66372567D01*
X117909488Y-66523942D01*
X117930873Y-66550000D01*
X117909488Y-66576058D01*
X117828577Y-66727433D01*
X117778752Y-66891684D01*
X117761928Y-67062500D01*
X117761928Y-67537500D01*
X117778752Y-67708316D01*
X117828577Y-67872567D01*
X117909488Y-68023942D01*
X117922667Y-68040000D01*
X112414802Y-68040000D01*
X109435000Y-65060199D01*
X109435000Y-64998061D01*
X109395226Y-64798102D01*
X109317205Y-64609744D01*
X109203937Y-64440226D01*
X109059774Y-64296063D01*
X108890256Y-64182795D01*
X108701898Y-64104774D01*
X108501939Y-64065000D01*
X108298061Y-64065000D01*
X108098102Y-64104774D01*
X107909744Y-64182795D01*
X107740226Y-64296063D01*
X107596063Y-64440226D01*
X107482795Y-64609744D01*
X107404774Y-64798102D01*
X107365000Y-64998061D01*
X107365000Y-65201939D01*
X107404774Y-65401898D01*
X107482795Y-65590256D01*
X107596063Y-65759774D01*
X107740226Y-65903937D01*
X107909744Y-66017205D01*
X108098102Y-66095226D01*
X108298061Y-66135000D01*
X108360199Y-66135000D01*
X110580744Y-68355545D01*
X110533403Y-68402886D01*
X110420135Y-68572404D01*
X110342114Y-68760762D01*
X110302340Y-68960721D01*
X110302340Y-68965000D01*
X110298061Y-68965000D01*
X110098102Y-69004774D01*
X109909744Y-69082795D01*
X109740226Y-69196063D01*
X109663283Y-69273006D01*
X107061618Y-66671341D01*
X107032332Y-66635656D01*
X106889960Y-66518814D01*
X106727528Y-66431993D01*
X106551280Y-66378529D01*
X106413920Y-66365000D01*
X106367988Y-66360476D01*
X106322056Y-66365000D01*
X98887290Y-66365000D01*
X98202597Y-65680307D01*
X98396746Y-65810034D01*
X98728411Y-65947414D01*
X99080504Y-66017450D01*
X99439496Y-66017450D01*
X99791589Y-65947414D01*
X100123254Y-65810034D01*
X100421744Y-65610589D01*
X100675589Y-65356744D01*
X100875034Y-65058254D01*
X101012414Y-64726589D01*
X101082450Y-64374496D01*
X101082450Y-64015504D01*
X101012414Y-63663411D01*
X100910467Y-63417288D01*
X101113696Y-63376863D01*
X101319398Y-63291659D01*
X101504524Y-63167961D01*
X101661961Y-63010524D01*
X101785659Y-62825398D01*
X101800000Y-62790776D01*
X101814341Y-62825398D01*
X101938039Y-63010524D01*
X102095476Y-63167961D01*
X102280602Y-63291659D01*
X102486304Y-63376863D01*
X102689533Y-63417288D01*
X102587586Y-63663411D01*
X102517550Y-64015504D01*
X102517550Y-64374496D01*
X102587586Y-64726589D01*
X102724966Y-65058254D01*
X102924411Y-65356744D01*
X103178256Y-65610589D01*
X103476746Y-65810034D01*
X103808411Y-65947414D01*
X104160504Y-66017450D01*
X104519496Y-66017450D01*
X104871589Y-65947414D01*
X105203254Y-65810034D01*
X105501744Y-65610589D01*
X105755589Y-65356744D01*
X105955034Y-65058254D01*
X106092414Y-64726589D01*
X106162450Y-64374496D01*
X106162450Y-64015504D01*
X106092414Y-63663411D01*
X105955034Y-63331746D01*
X105755589Y-63033256D01*
X105501744Y-62779411D01*
X105203254Y-62579966D01*
X104871589Y-62442586D01*
X104519496Y-62372550D01*
X104160504Y-62372550D01*
X103943435Y-62415728D01*
X103946300Y-62401325D01*
X103946300Y-62178675D01*
X103902863Y-61960304D01*
X103901878Y-61957926D01*
X105890692Y-61957926D01*
X105928014Y-61961602D01*
X105965336Y-61957926D01*
X105965347Y-61957926D01*
X106077000Y-61946929D01*
X106220261Y-61903472D01*
X106352290Y-61832900D01*
X106455215Y-61748432D01*
X106472068Y-61833158D01*
X106584010Y-62103411D01*
X106746525Y-62346632D01*
X106953368Y-62553475D01*
X107196589Y-62715990D01*
X107466842Y-62827932D01*
X107753740Y-62885000D01*
X108046260Y-62885000D01*
X108333158Y-62827932D01*
X108603411Y-62715990D01*
X108846632Y-62553475D01*
X109053475Y-62346632D01*
X109175195Y-62164466D01*
X109244822Y-62281355D01*
X109439731Y-62497588D01*
X109673080Y-62671641D01*
X109935901Y-62796825D01*
X110083110Y-62841476D01*
X110313000Y-62720155D01*
X110313000Y-61527000D01*
X110567000Y-61527000D01*
X110567000Y-62720155D01*
X110796890Y-62841476D01*
X110944099Y-62796825D01*
X111206920Y-62671641D01*
X111440269Y-62497588D01*
X111635178Y-62281355D01*
X111784157Y-62031252D01*
X111881481Y-61756891D01*
X111760814Y-61527000D01*
X110567000Y-61527000D01*
X110313000Y-61527000D01*
X110293000Y-61527000D01*
X110293000Y-61273000D01*
X110313000Y-61273000D01*
X110313000Y-60079845D01*
X110567000Y-60079845D01*
X110567000Y-61273000D01*
X111760814Y-61273000D01*
X111881481Y-61043109D01*
X111784157Y-60768748D01*
X111635178Y-60518645D01*
X111440269Y-60302412D01*
X111206920Y-60128359D01*
X110944099Y-60003175D01*
X110796890Y-59958524D01*
X110567000Y-60079845D01*
X110313000Y-60079845D01*
X110083110Y-59958524D01*
X109935901Y-60003175D01*
X109673080Y-60128359D01*
X109439731Y-60302412D01*
X109244822Y-60518645D01*
X109175195Y-60635534D01*
X109053475Y-60453368D01*
X108846632Y-60246525D01*
X108603411Y-60084010D01*
X108333158Y-59972068D01*
X108098849Y-59925461D01*
X108099014Y-59924915D01*
X108110011Y-59813262D01*
X108110011Y-59813253D01*
X108113687Y-59775930D01*
X108110011Y-59738607D01*
X108110011Y-58326332D01*
X108113687Y-58289009D01*
X108110011Y-58251686D01*
X108110011Y-58251676D01*
X108099014Y-58140023D01*
X108086874Y-58100000D01*
X113336928Y-58100000D01*
X113340000Y-58714250D01*
X113498750Y-58873000D01*
X114510500Y-58873000D01*
X114510500Y-57623750D01*
X114473000Y-57586250D01*
X114473000Y-56327000D01*
X113823750Y-56327000D01*
X113665000Y-56485750D01*
X113661928Y-57150000D01*
X113674188Y-57274482D01*
X113710498Y-57394180D01*
X113766833Y-57499574D01*
X113730820Y-57510498D01*
X113620506Y-57569463D01*
X113523815Y-57648815D01*
X113444463Y-57745506D01*
X113385498Y-57855820D01*
X113349188Y-57975518D01*
X113336928Y-58100000D01*
X108086874Y-58100000D01*
X108055557Y-57996762D01*
X107984985Y-57864733D01*
X107890012Y-57749008D01*
X107861014Y-57725210D01*
X103034999Y-52899196D01*
X103034999Y-52450000D01*
X109761928Y-52450000D01*
X109761928Y-55250000D01*
X109774188Y-55374482D01*
X109810498Y-55494180D01*
X109869463Y-55604494D01*
X109948815Y-55701185D01*
X110045506Y-55780537D01*
X110155820Y-55839502D01*
X110275518Y-55875812D01*
X110400000Y-55888072D01*
X112500000Y-55888072D01*
X112624482Y-55875812D01*
X112744180Y-55839502D01*
X112854494Y-55780537D01*
X112951185Y-55701185D01*
X113030537Y-55604494D01*
X113089502Y-55494180D01*
X113125812Y-55374482D01*
X113138072Y-55250000D01*
X113661928Y-55250000D01*
X113665000Y-55914250D01*
X113823750Y-56073000D01*
X114473000Y-56073000D01*
X114473000Y-54773750D01*
X114314250Y-54615000D01*
X114300000Y-54611928D01*
X114175518Y-54624188D01*
X114055820Y-54660498D01*
X113945506Y-54719463D01*
X113848815Y-54798815D01*
X113769463Y-54895506D01*
X113710498Y-55005820D01*
X113674188Y-55125518D01*
X113661928Y-55250000D01*
X113138072Y-55250000D01*
X113138072Y-52450000D01*
X113125812Y-52325518D01*
X113089502Y-52205820D01*
X113030537Y-52095506D01*
X112951185Y-51998815D01*
X112854494Y-51919463D01*
X112744180Y-51860498D01*
X112624482Y-51824188D01*
X112500000Y-51811928D01*
X110400000Y-51811928D01*
X110275518Y-51824188D01*
X110155820Y-51860498D01*
X110045506Y-51919463D01*
X109948815Y-51998815D01*
X109869463Y-52095506D01*
X109810498Y-52205820D01*
X109774188Y-52325518D01*
X109761928Y-52450000D01*
X103034999Y-52450000D01*
X103034999Y-51635010D01*
X103101943Y-51635010D01*
X103301902Y-51595236D01*
X103490260Y-51517215D01*
X103659778Y-51403947D01*
X103803941Y-51259784D01*
X103917209Y-51090266D01*
X103995230Y-50901908D01*
X104035004Y-50701949D01*
X104035004Y-50498071D01*
X103995230Y-50298112D01*
X103917209Y-50109754D01*
X103803941Y-49940236D01*
X103760004Y-49896299D01*
X103760004Y-49080033D01*
X103843377Y-49181623D01*
X103976058Y-49290512D01*
X104127433Y-49371423D01*
X104291684Y-49421248D01*
X104462500Y-49438072D01*
X104937500Y-49438072D01*
X105108316Y-49421248D01*
X105272567Y-49371423D01*
X105423942Y-49290512D01*
X105450000Y-49269127D01*
X105476058Y-49290512D01*
X105627433Y-49371423D01*
X105791684Y-49421248D01*
X105962500Y-49438072D01*
X106437500Y-49438072D01*
X106608316Y-49421248D01*
X106772567Y-49371423D01*
X106923942Y-49290512D01*
X107056623Y-49181623D01*
X107078609Y-49154833D01*
X107094463Y-49184494D01*
X107132590Y-49230953D01*
X107104776Y-49298102D01*
X107065002Y-49498061D01*
X107065002Y-49701939D01*
X107104776Y-49901898D01*
X107182797Y-50090256D01*
X107296065Y-50259774D01*
X107440228Y-50403937D01*
X107609746Y-50517205D01*
X107798104Y-50595226D01*
X107998063Y-50635000D01*
X108201941Y-50635000D01*
X108401900Y-50595226D01*
X108590258Y-50517205D01*
X108759776Y-50403937D01*
X108903939Y-50259774D01*
X109017207Y-50090256D01*
X109095228Y-49901898D01*
X109135002Y-49701939D01*
X109135002Y-49498061D01*
X109095384Y-49298886D01*
X109170506Y-49360537D01*
X109280820Y-49419502D01*
X109400518Y-49455812D01*
X109525000Y-49468072D01*
X110175000Y-49468072D01*
X110299482Y-49455812D01*
X110419180Y-49419502D01*
X110529494Y-49360537D01*
X110626185Y-49281185D01*
X110705537Y-49184494D01*
X110764502Y-49074180D01*
X110800812Y-48954482D01*
X110813072Y-48830000D01*
X110813072Y-48810000D01*
X113135199Y-48810000D01*
X114110822Y-49785624D01*
%TA.AperFunction,Conductor*%
D25*
G36*
X114110822Y-49785624D02*
G01*
X114110823Y-51825466D01*
X114066885Y-51869404D01*
X113953617Y-52038922D01*
X113875596Y-52227280D01*
X113835822Y-52427239D01*
X113835822Y-52631117D01*
X113875596Y-52831076D01*
X113953617Y-53019434D01*
X114066885Y-53188952D01*
X114211048Y-53333115D01*
X114380566Y-53446383D01*
X114568924Y-53524404D01*
X114768883Y-53564178D01*
X114840000Y-53564178D01*
X114840000Y-54660750D01*
X114727000Y-54773750D01*
X114727000Y-54974947D01*
X114710498Y-55005820D01*
X114674188Y-55125518D01*
X114661928Y-55250000D01*
X114661928Y-57150000D01*
X114674188Y-57274482D01*
X114710498Y-57394180D01*
X114727000Y-57425053D01*
X114727000Y-57626250D01*
X114764500Y-57663750D01*
X114764500Y-58873000D01*
X114784500Y-58873000D01*
X114784500Y-59127000D01*
X114764500Y-59127000D01*
X114764500Y-59147000D01*
X114510500Y-59147000D01*
X114510500Y-59127000D01*
X113498750Y-59127000D01*
X113340000Y-59285750D01*
X113336928Y-59900000D01*
X113349188Y-60024482D01*
X113385498Y-60144180D01*
X113444463Y-60254494D01*
X113523815Y-60351185D01*
X113620506Y-60430537D01*
X113730820Y-60489502D01*
X113850518Y-60525812D01*
X113975000Y-60538072D01*
X114163738Y-60536533D01*
X114165000Y-60614250D01*
X114323750Y-60773000D01*
X115210500Y-60773000D01*
X115210500Y-60753000D01*
X115464500Y-60753000D01*
X115464500Y-60773000D01*
X115484500Y-60773000D01*
X115484500Y-61027000D01*
X115464500Y-61027000D01*
X115464500Y-61047000D01*
X115210500Y-61047000D01*
X115210500Y-61027000D01*
X114323750Y-61027000D01*
X114165000Y-61185750D01*
X114161928Y-61375000D01*
X114174188Y-61499482D01*
X114210498Y-61619180D01*
X114269463Y-61729494D01*
X114316863Y-61787251D01*
X114299188Y-61845518D01*
X114286928Y-61970000D01*
X114289777Y-62196497D01*
X114287564Y-62196057D01*
X114014742Y-62196057D01*
X113747164Y-62249282D01*
X113495110Y-62353686D01*
X113268267Y-62505258D01*
X113075354Y-62698171D01*
X112923782Y-62925014D01*
X112819378Y-63177068D01*
X112766153Y-63444646D01*
X112766153Y-63717468D01*
X112819378Y-63985046D01*
X112923782Y-64237100D01*
X113075354Y-64463943D01*
X113265001Y-64653590D01*
X113265000Y-65304263D01*
X113102433Y-65353577D01*
X112951058Y-65434488D01*
X112818377Y-65543377D01*
X112709488Y-65676058D01*
X112628577Y-65827433D01*
X112578752Y-65991684D01*
X112561928Y-66162500D01*
X112561928Y-66637500D01*
X112578752Y-66808316D01*
X112628577Y-66972567D01*
X112709488Y-67123942D01*
X112818377Y-67256623D01*
X112951058Y-67365512D01*
X113102433Y-67446423D01*
X113266684Y-67496248D01*
X113437500Y-67513072D01*
X114037500Y-67513072D01*
X114208316Y-67496248D01*
X114372567Y-67446423D01*
X114523942Y-67365512D01*
X114600000Y-67303093D01*
X114676058Y-67365512D01*
X114827433Y-67446423D01*
X114991684Y-67496248D01*
X115162500Y-67513072D01*
X115762500Y-67513072D01*
X115933316Y-67496248D01*
X116097567Y-67446423D01*
X116248942Y-67365512D01*
X116381623Y-67256623D01*
X116490512Y-67123942D01*
X116571423Y-66972567D01*
X116621248Y-66808316D01*
X116638072Y-66637500D01*
X116638072Y-66162500D01*
X116621248Y-65991684D01*
X116582046Y-65862454D01*
X116649482Y-65855812D01*
X116675000Y-65848071D01*
X116700518Y-65855812D01*
X116825000Y-65868072D01*
X117475000Y-65868072D01*
X117599482Y-65855812D01*
X117719180Y-65819502D01*
X117761928Y-65796652D01*
X117761928Y-66037500D01*
X117778752Y-66208316D01*
X117828577Y-66372567D01*
X117909488Y-66523942D01*
X117930873Y-66550000D01*
X117909488Y-66576058D01*
X117828577Y-66727433D01*
X117778752Y-66891684D01*
X117761928Y-67062500D01*
X117761928Y-67537500D01*
X117778752Y-67708316D01*
X117828577Y-67872567D01*
X117909488Y-68023942D01*
X117922667Y-68040000D01*
X112414802Y-68040000D01*
X109435000Y-65060199D01*
X109435000Y-64998061D01*
X109395226Y-64798102D01*
X109317205Y-64609744D01*
X109203937Y-64440226D01*
X109059774Y-64296063D01*
X108890256Y-64182795D01*
X108701898Y-64104774D01*
X108501939Y-64065000D01*
X108298061Y-64065000D01*
X108098102Y-64104774D01*
X107909744Y-64182795D01*
X107740226Y-64296063D01*
X107596063Y-64440226D01*
X107482795Y-64609744D01*
X107404774Y-64798102D01*
X107365000Y-64998061D01*
X107365000Y-65201939D01*
X107404774Y-65401898D01*
X107482795Y-65590256D01*
X107596063Y-65759774D01*
X107740226Y-65903937D01*
X107909744Y-66017205D01*
X108098102Y-66095226D01*
X108298061Y-66135000D01*
X108360199Y-66135000D01*
X110580744Y-68355545D01*
X110533403Y-68402886D01*
X110420135Y-68572404D01*
X110342114Y-68760762D01*
X110302340Y-68960721D01*
X110302340Y-68965000D01*
X110298061Y-68965000D01*
X110098102Y-69004774D01*
X109909744Y-69082795D01*
X109740226Y-69196063D01*
X109663283Y-69273006D01*
X107061618Y-66671341D01*
X107032332Y-66635656D01*
X106889960Y-66518814D01*
X106727528Y-66431993D01*
X106551280Y-66378529D01*
X106413920Y-66365000D01*
X106367988Y-66360476D01*
X106322056Y-66365000D01*
X98887290Y-66365000D01*
X98202597Y-65680307D01*
X98396746Y-65810034D01*
X98728411Y-65947414D01*
X99080504Y-66017450D01*
X99439496Y-66017450D01*
X99791589Y-65947414D01*
X100123254Y-65810034D01*
X100421744Y-65610589D01*
X100675589Y-65356744D01*
X100875034Y-65058254D01*
X101012414Y-64726589D01*
X101082450Y-64374496D01*
X101082450Y-64015504D01*
X101012414Y-63663411D01*
X100910467Y-63417288D01*
X101113696Y-63376863D01*
X101319398Y-63291659D01*
X101504524Y-63167961D01*
X101661961Y-63010524D01*
X101785659Y-62825398D01*
X101800000Y-62790776D01*
X101814341Y-62825398D01*
X101938039Y-63010524D01*
X102095476Y-63167961D01*
X102280602Y-63291659D01*
X102486304Y-63376863D01*
X102689533Y-63417288D01*
X102587586Y-63663411D01*
X102517550Y-64015504D01*
X102517550Y-64374496D01*
X102587586Y-64726589D01*
X102724966Y-65058254D01*
X102924411Y-65356744D01*
X103178256Y-65610589D01*
X103476746Y-65810034D01*
X103808411Y-65947414D01*
X104160504Y-66017450D01*
X104519496Y-66017450D01*
X104871589Y-65947414D01*
X105203254Y-65810034D01*
X105501744Y-65610589D01*
X105755589Y-65356744D01*
X105955034Y-65058254D01*
X106092414Y-64726589D01*
X106162450Y-64374496D01*
X106162450Y-64015504D01*
X106092414Y-63663411D01*
X105955034Y-63331746D01*
X105755589Y-63033256D01*
X105501744Y-62779411D01*
X105203254Y-62579966D01*
X104871589Y-62442586D01*
X104519496Y-62372550D01*
X104160504Y-62372550D01*
X103943435Y-62415728D01*
X103946300Y-62401325D01*
X103946300Y-62178675D01*
X103902863Y-61960304D01*
X103901878Y-61957926D01*
X105890692Y-61957926D01*
X105928014Y-61961602D01*
X105965336Y-61957926D01*
X105965347Y-61957926D01*
X106077000Y-61946929D01*
X106220261Y-61903472D01*
X106352290Y-61832900D01*
X106455215Y-61748432D01*
X106472068Y-61833158D01*
X106584010Y-62103411D01*
X106746525Y-62346632D01*
X106953368Y-62553475D01*
X107196589Y-62715990D01*
X107466842Y-62827932D01*
X107753740Y-62885000D01*
X108046260Y-62885000D01*
X108333158Y-62827932D01*
X108603411Y-62715990D01*
X108846632Y-62553475D01*
X109053475Y-62346632D01*
X109175195Y-62164466D01*
X109244822Y-62281355D01*
X109439731Y-62497588D01*
X109673080Y-62671641D01*
X109935901Y-62796825D01*
X110083110Y-62841476D01*
X110313000Y-62720155D01*
X110313000Y-61527000D01*
X110567000Y-61527000D01*
X110567000Y-62720155D01*
X110796890Y-62841476D01*
X110944099Y-62796825D01*
X111206920Y-62671641D01*
X111440269Y-62497588D01*
X111635178Y-62281355D01*
X111784157Y-62031252D01*
X111881481Y-61756891D01*
X111760814Y-61527000D01*
X110567000Y-61527000D01*
X110313000Y-61527000D01*
X110293000Y-61527000D01*
X110293000Y-61273000D01*
X110313000Y-61273000D01*
X110313000Y-60079845D01*
X110567000Y-60079845D01*
X110567000Y-61273000D01*
X111760814Y-61273000D01*
X111881481Y-61043109D01*
X111784157Y-60768748D01*
X111635178Y-60518645D01*
X111440269Y-60302412D01*
X111206920Y-60128359D01*
X110944099Y-60003175D01*
X110796890Y-59958524D01*
X110567000Y-60079845D01*
X110313000Y-60079845D01*
X110083110Y-59958524D01*
X109935901Y-60003175D01*
X109673080Y-60128359D01*
X109439731Y-60302412D01*
X109244822Y-60518645D01*
X109175195Y-60635534D01*
X109053475Y-60453368D01*
X108846632Y-60246525D01*
X108603411Y-60084010D01*
X108333158Y-59972068D01*
X108098849Y-59925461D01*
X108099014Y-59924915D01*
X108110011Y-59813262D01*
X108110011Y-59813253D01*
X108113687Y-59775930D01*
X108110011Y-59738607D01*
X108110011Y-58326332D01*
X108113687Y-58289009D01*
X108110011Y-58251686D01*
X108110011Y-58251676D01*
X108099014Y-58140023D01*
X108086874Y-58100000D01*
X113336928Y-58100000D01*
X113340000Y-58714250D01*
X113498750Y-58873000D01*
X114510500Y-58873000D01*
X114510500Y-57623750D01*
X114473000Y-57586250D01*
X114473000Y-56327000D01*
X113823750Y-56327000D01*
X113665000Y-56485750D01*
X113661928Y-57150000D01*
X113674188Y-57274482D01*
X113710498Y-57394180D01*
X113766833Y-57499574D01*
X113730820Y-57510498D01*
X113620506Y-57569463D01*
X113523815Y-57648815D01*
X113444463Y-57745506D01*
X113385498Y-57855820D01*
X113349188Y-57975518D01*
X113336928Y-58100000D01*
X108086874Y-58100000D01*
X108055557Y-57996762D01*
X107984985Y-57864733D01*
X107890012Y-57749008D01*
X107861014Y-57725210D01*
X103034999Y-52899196D01*
X103034999Y-52450000D01*
X109761928Y-52450000D01*
X109761928Y-55250000D01*
X109774188Y-55374482D01*
X109810498Y-55494180D01*
X109869463Y-55604494D01*
X109948815Y-55701185D01*
X110045506Y-55780537D01*
X110155820Y-55839502D01*
X110275518Y-55875812D01*
X110400000Y-55888072D01*
X112500000Y-55888072D01*
X112624482Y-55875812D01*
X112744180Y-55839502D01*
X112854494Y-55780537D01*
X112951185Y-55701185D01*
X113030537Y-55604494D01*
X113089502Y-55494180D01*
X113125812Y-55374482D01*
X113138072Y-55250000D01*
X113661928Y-55250000D01*
X113665000Y-55914250D01*
X113823750Y-56073000D01*
X114473000Y-56073000D01*
X114473000Y-54773750D01*
X114314250Y-54615000D01*
X114300000Y-54611928D01*
X114175518Y-54624188D01*
X114055820Y-54660498D01*
X113945506Y-54719463D01*
X113848815Y-54798815D01*
X113769463Y-54895506D01*
X113710498Y-55005820D01*
X113674188Y-55125518D01*
X113661928Y-55250000D01*
X113138072Y-55250000D01*
X113138072Y-52450000D01*
X113125812Y-52325518D01*
X113089502Y-52205820D01*
X113030537Y-52095506D01*
X112951185Y-51998815D01*
X112854494Y-51919463D01*
X112744180Y-51860498D01*
X112624482Y-51824188D01*
X112500000Y-51811928D01*
X110400000Y-51811928D01*
X110275518Y-51824188D01*
X110155820Y-51860498D01*
X110045506Y-51919463D01*
X109948815Y-51998815D01*
X109869463Y-52095506D01*
X109810498Y-52205820D01*
X109774188Y-52325518D01*
X109761928Y-52450000D01*
X103034999Y-52450000D01*
X103034999Y-51635010D01*
X103101943Y-51635010D01*
X103301902Y-51595236D01*
X103490260Y-51517215D01*
X103659778Y-51403947D01*
X103803941Y-51259784D01*
X103917209Y-51090266D01*
X103995230Y-50901908D01*
X104035004Y-50701949D01*
X104035004Y-50498071D01*
X103995230Y-50298112D01*
X103917209Y-50109754D01*
X103803941Y-49940236D01*
X103760004Y-49896299D01*
X103760004Y-49080033D01*
X103843377Y-49181623D01*
X103976058Y-49290512D01*
X104127433Y-49371423D01*
X104291684Y-49421248D01*
X104462500Y-49438072D01*
X104937500Y-49438072D01*
X105108316Y-49421248D01*
X105272567Y-49371423D01*
X105423942Y-49290512D01*
X105450000Y-49269127D01*
X105476058Y-49290512D01*
X105627433Y-49371423D01*
X105791684Y-49421248D01*
X105962500Y-49438072D01*
X106437500Y-49438072D01*
X106608316Y-49421248D01*
X106772567Y-49371423D01*
X106923942Y-49290512D01*
X107056623Y-49181623D01*
X107078609Y-49154833D01*
X107094463Y-49184494D01*
X107132590Y-49230953D01*
X107104776Y-49298102D01*
X107065002Y-49498061D01*
X107065002Y-49701939D01*
X107104776Y-49901898D01*
X107182797Y-50090256D01*
X107296065Y-50259774D01*
X107440228Y-50403937D01*
X107609746Y-50517205D01*
X107798104Y-50595226D01*
X107998063Y-50635000D01*
X108201941Y-50635000D01*
X108401900Y-50595226D01*
X108590258Y-50517205D01*
X108759776Y-50403937D01*
X108903939Y-50259774D01*
X109017207Y-50090256D01*
X109095228Y-49901898D01*
X109135002Y-49701939D01*
X109135002Y-49498061D01*
X109095384Y-49298886D01*
X109170506Y-49360537D01*
X109280820Y-49419502D01*
X109400518Y-49455812D01*
X109525000Y-49468072D01*
X110175000Y-49468072D01*
X110299482Y-49455812D01*
X110419180Y-49419502D01*
X110529494Y-49360537D01*
X110626185Y-49281185D01*
X110705537Y-49184494D01*
X110764502Y-49074180D01*
X110800812Y-48954482D01*
X110813072Y-48830000D01*
X110813072Y-48810000D01*
X113135199Y-48810000D01*
X114110822Y-49785624D01*
G37*
%TD.AperFunction*%
D24*
X115210498Y-62010000D02*
X115236928Y-62010000D01*
X115236928Y-62646057D01*
X115174838Y-62646057D01*
X115103000Y-62574219D01*
X115103000Y-62373000D01*
X115123000Y-62373000D01*
X115123000Y-61938750D01*
X115210498Y-61851252D01*
X115210498Y-62010000D01*
%TA.AperFunction,Conductor*%
D25*
G36*
X115210498Y-62010000D02*
G01*
X115236928Y-62010000D01*
X115236928Y-62646057D01*
X115174838Y-62646057D01*
X115103000Y-62574219D01*
X115103000Y-62373000D01*
X115123000Y-62373000D01*
X115123000Y-61938750D01*
X115210498Y-61851252D01*
X115210498Y-62010000D01*
G37*
%TD.AperFunction*%
D24*
X124576480Y-32518388D02*
X124418388Y-32676480D01*
X124294176Y-32862376D01*
X124208617Y-33068933D01*
X124165000Y-33288212D01*
X124165000Y-33511788D01*
X124208617Y-33731067D01*
X124294176Y-33937624D01*
X124418388Y-34123520D01*
X124576480Y-34281612D01*
X124762376Y-34405824D01*
X124968933Y-34491383D01*
X125188212Y-34535000D01*
X125411788Y-34535000D01*
X125631067Y-34491383D01*
X125837624Y-34405824D01*
X126023520Y-34281612D01*
X126181612Y-34123520D01*
X126305824Y-33937624D01*
X126365000Y-33794761D01*
X126365000Y-33961033D01*
X126427832Y-34276912D01*
X126551082Y-34574463D01*
X126730013Y-34842252D01*
X126957748Y-35069987D01*
X127225537Y-35248918D01*
X127523088Y-35372168D01*
X127838967Y-35435000D01*
X128161033Y-35435000D01*
X128476912Y-35372168D01*
X128774463Y-35248918D01*
X128873000Y-35183078D01*
X128873000Y-56216922D01*
X128774463Y-56151082D01*
X128476912Y-56027832D01*
X128255426Y-55983776D01*
X128260000Y-55937333D01*
X128263677Y-55900000D01*
X128260000Y-55862667D01*
X128260000Y-43837322D01*
X128263676Y-43799999D01*
X128260000Y-43762677D01*
X128260000Y-42337333D01*
X128263677Y-42300000D01*
X128249003Y-42151014D01*
X128205546Y-42007753D01*
X128134974Y-41875724D01*
X128104074Y-41838072D01*
X128040001Y-41759999D01*
X128011004Y-41736202D01*
X127287724Y-41012922D01*
X127300000Y-41013072D01*
X127424482Y-41000812D01*
X127544180Y-40964502D01*
X127654494Y-40905537D01*
X127751185Y-40826185D01*
X127830537Y-40729494D01*
X127889502Y-40619180D01*
X127925812Y-40499482D01*
X127938072Y-40375000D01*
X127935000Y-40185750D01*
X127776250Y-40027000D01*
X126889500Y-40027000D01*
X126889500Y-40047000D01*
X126635500Y-40047000D01*
X126635500Y-40027000D01*
X126615500Y-40027000D01*
X126615500Y-39773000D01*
X126635500Y-39773000D01*
X126635500Y-38948750D01*
X126889500Y-38948750D01*
X126889500Y-39773000D01*
X127776250Y-39773000D01*
X127935000Y-39614250D01*
X127938072Y-39425000D01*
X127925812Y-39300518D01*
X127889502Y-39180820D01*
X127830537Y-39070506D01*
X127751185Y-38973815D01*
X127654494Y-38894463D01*
X127544180Y-38835498D01*
X127424482Y-38799188D01*
X127300000Y-38786928D01*
X127048250Y-38790000D01*
X126889500Y-38948750D01*
X126635500Y-38948750D01*
X126476750Y-38790000D01*
X126225000Y-38786928D01*
X126100518Y-38799188D01*
X126035000Y-38819063D01*
X126035000Y-38798061D01*
X125995226Y-38598102D01*
X125917205Y-38409744D01*
X125803937Y-38240226D01*
X125659774Y-38096063D01*
X125490256Y-37982795D01*
X125301898Y-37904774D01*
X125101939Y-37865000D01*
X124898061Y-37865000D01*
X124698102Y-37904774D01*
X124509744Y-37982795D01*
X124391992Y-38061474D01*
X124356623Y-38018377D01*
X124223942Y-37909488D01*
X124072567Y-37828577D01*
X123908316Y-37778752D01*
X123737500Y-37761928D01*
X123262500Y-37761928D01*
X123091684Y-37778752D01*
X122927433Y-37828577D01*
X122776058Y-37909488D01*
X122643377Y-38018377D01*
X122543563Y-38140000D01*
X122537322Y-38140000D01*
X122499999Y-38136324D01*
X122462676Y-38140000D01*
X122462667Y-38140000D01*
X122351014Y-38150997D01*
X122207753Y-38194454D01*
X122075773Y-38265000D01*
X121998061Y-38265000D01*
X121798102Y-38304774D01*
X121769999Y-38316415D01*
X121769999Y-34187321D01*
X121773675Y-34149998D01*
X121769999Y-34112675D01*
X121769999Y-34112666D01*
X121759002Y-34001013D01*
X121715545Y-33857752D01*
X121688480Y-33807117D01*
X121644973Y-33725722D01*
X121600251Y-33671228D01*
X121645000Y-33446260D01*
X121645000Y-33153740D01*
X121587932Y-32866842D01*
X121475990Y-32596589D01*
X121384724Y-32460000D01*
X124663864Y-32460000D01*
X124576480Y-32518388D01*
%TA.AperFunction,Conductor*%
D25*
G36*
X124576480Y-32518388D02*
G01*
X124418388Y-32676480D01*
X124294176Y-32862376D01*
X124208617Y-33068933D01*
X124165000Y-33288212D01*
X124165000Y-33511788D01*
X124208617Y-33731067D01*
X124294176Y-33937624D01*
X124418388Y-34123520D01*
X124576480Y-34281612D01*
X124762376Y-34405824D01*
X124968933Y-34491383D01*
X125188212Y-34535000D01*
X125411788Y-34535000D01*
X125631067Y-34491383D01*
X125837624Y-34405824D01*
X126023520Y-34281612D01*
X126181612Y-34123520D01*
X126305824Y-33937624D01*
X126365000Y-33794761D01*
X126365000Y-33961033D01*
X126427832Y-34276912D01*
X126551082Y-34574463D01*
X126730013Y-34842252D01*
X126957748Y-35069987D01*
X127225537Y-35248918D01*
X127523088Y-35372168D01*
X127838967Y-35435000D01*
X128161033Y-35435000D01*
X128476912Y-35372168D01*
X128774463Y-35248918D01*
X128873000Y-35183078D01*
X128873000Y-56216922D01*
X128774463Y-56151082D01*
X128476912Y-56027832D01*
X128255426Y-55983776D01*
X128260000Y-55937333D01*
X128263677Y-55900000D01*
X128260000Y-55862667D01*
X128260000Y-43837322D01*
X128263676Y-43799999D01*
X128260000Y-43762677D01*
X128260000Y-42337333D01*
X128263677Y-42300000D01*
X128249003Y-42151014D01*
X128205546Y-42007753D01*
X128134974Y-41875724D01*
X128104074Y-41838072D01*
X128040001Y-41759999D01*
X128011004Y-41736202D01*
X127287724Y-41012922D01*
X127300000Y-41013072D01*
X127424482Y-41000812D01*
X127544180Y-40964502D01*
X127654494Y-40905537D01*
X127751185Y-40826185D01*
X127830537Y-40729494D01*
X127889502Y-40619180D01*
X127925812Y-40499482D01*
X127938072Y-40375000D01*
X127935000Y-40185750D01*
X127776250Y-40027000D01*
X126889500Y-40027000D01*
X126889500Y-40047000D01*
X126635500Y-40047000D01*
X126635500Y-40027000D01*
X126615500Y-40027000D01*
X126615500Y-39773000D01*
X126635500Y-39773000D01*
X126635500Y-38948750D01*
X126889500Y-38948750D01*
X126889500Y-39773000D01*
X127776250Y-39773000D01*
X127935000Y-39614250D01*
X127938072Y-39425000D01*
X127925812Y-39300518D01*
X127889502Y-39180820D01*
X127830537Y-39070506D01*
X127751185Y-38973815D01*
X127654494Y-38894463D01*
X127544180Y-38835498D01*
X127424482Y-38799188D01*
X127300000Y-38786928D01*
X127048250Y-38790000D01*
X126889500Y-38948750D01*
X126635500Y-38948750D01*
X126476750Y-38790000D01*
X126225000Y-38786928D01*
X126100518Y-38799188D01*
X126035000Y-38819063D01*
X126035000Y-38798061D01*
X125995226Y-38598102D01*
X125917205Y-38409744D01*
X125803937Y-38240226D01*
X125659774Y-38096063D01*
X125490256Y-37982795D01*
X125301898Y-37904774D01*
X125101939Y-37865000D01*
X124898061Y-37865000D01*
X124698102Y-37904774D01*
X124509744Y-37982795D01*
X124391992Y-38061474D01*
X124356623Y-38018377D01*
X124223942Y-37909488D01*
X124072567Y-37828577D01*
X123908316Y-37778752D01*
X123737500Y-37761928D01*
X123262500Y-37761928D01*
X123091684Y-37778752D01*
X122927433Y-37828577D01*
X122776058Y-37909488D01*
X122643377Y-38018377D01*
X122543563Y-38140000D01*
X122537322Y-38140000D01*
X122499999Y-38136324D01*
X122462676Y-38140000D01*
X122462667Y-38140000D01*
X122351014Y-38150997D01*
X122207753Y-38194454D01*
X122075773Y-38265000D01*
X121998061Y-38265000D01*
X121798102Y-38304774D01*
X121769999Y-38316415D01*
X121769999Y-34187321D01*
X121773675Y-34149998D01*
X121769999Y-34112675D01*
X121769999Y-34112666D01*
X121759002Y-34001013D01*
X121715545Y-33857752D01*
X121688480Y-33807117D01*
X121644973Y-33725722D01*
X121600251Y-33671228D01*
X121645000Y-33446260D01*
X121645000Y-33153740D01*
X121587932Y-32866842D01*
X121475990Y-32596589D01*
X121384724Y-32460000D01*
X124663864Y-32460000D01*
X124576480Y-32518388D01*
G37*
%TD.AperFunction*%
D24*
X103657748Y-32530013D02*
X103430013Y-32757748D01*
X103251082Y-33025537D01*
X103127832Y-33323088D01*
X103065000Y-33638967D01*
X103065000Y-33961033D01*
X103127832Y-34276912D01*
X103251082Y-34574463D01*
X103430013Y-34842252D01*
X103657748Y-35069987D01*
X103925537Y-35248918D01*
X104223088Y-35372168D01*
X104538967Y-35435000D01*
X104861033Y-35435000D01*
X105176912Y-35372168D01*
X105474463Y-35248918D01*
X105742252Y-35069987D01*
X105969987Y-34842252D01*
X106148918Y-34574463D01*
X106272168Y-34276912D01*
X106335000Y-33961033D01*
X106335000Y-33638967D01*
X106272168Y-33323088D01*
X106148918Y-33025537D01*
X105969987Y-32757748D01*
X105742252Y-32530013D01*
X105637470Y-32460000D01*
X106863864Y-32460000D01*
X106776480Y-32518388D01*
X106618388Y-32676480D01*
X106494176Y-32862376D01*
X106408617Y-33068933D01*
X106365000Y-33288212D01*
X106365000Y-33511788D01*
X106408617Y-33731067D01*
X106494176Y-33937624D01*
X106618388Y-34123520D01*
X106776480Y-34281612D01*
X106962376Y-34405824D01*
X107168933Y-34491383D01*
X107388212Y-34535000D01*
X107611788Y-34535000D01*
X107831067Y-34491383D01*
X108037624Y-34405824D01*
X108223520Y-34281612D01*
X108381612Y-34123520D01*
X108505824Y-33937624D01*
X108591383Y-33731067D01*
X108635000Y-33511788D01*
X108635000Y-33288212D01*
X108591383Y-33068933D01*
X108505824Y-32862376D01*
X108381612Y-32676480D01*
X108223520Y-32518388D01*
X108136136Y-32460000D01*
X111483396Y-32460000D01*
X111262528Y-32528843D01*
X111136629Y-32792883D01*
X111064661Y-33076411D01*
X111049389Y-33368531D01*
X111091401Y-33658019D01*
X111189081Y-33933747D01*
X111262528Y-34071157D01*
X111511603Y-34148792D01*
X112360395Y-33300000D01*
X112346253Y-33285858D01*
X112525858Y-33106253D01*
X112540000Y-33120395D01*
X112554143Y-33106253D01*
X112733748Y-33285858D01*
X112719605Y-33300000D01*
X112733748Y-33314143D01*
X112554143Y-33493748D01*
X112540000Y-33479605D01*
X111691208Y-34328397D01*
X111768843Y-34577472D01*
X112032883Y-34703371D01*
X112316411Y-34775339D01*
X112398101Y-34779610D01*
X111394850Y-35782861D01*
X110276876Y-35782861D01*
X110230944Y-35778337D01*
X110047653Y-35796390D01*
X109871405Y-35849854D01*
X109843069Y-35865000D01*
X100845932Y-35865000D01*
X100800000Y-35860476D01*
X100754068Y-35865000D01*
X100616708Y-35878529D01*
X100440460Y-35931993D01*
X100278028Y-36018814D01*
X100135656Y-36135656D01*
X100106370Y-36171341D01*
X98564718Y-37712993D01*
X98529039Y-37742274D01*
X98412197Y-37884646D01*
X98340717Y-38018377D01*
X98325376Y-38047078D01*
X98271911Y-38223327D01*
X98253858Y-38406618D01*
X98258383Y-38452560D01*
X98258383Y-46753023D01*
X98184719Y-46753023D01*
X97984760Y-46792797D01*
X97796402Y-46870818D01*
X97626884Y-46984086D01*
X97571934Y-47039036D01*
X97428726Y-47082477D01*
X97296697Y-47153049D01*
X97180972Y-47248022D01*
X97157174Y-47277020D01*
X96160000Y-48274195D01*
X96160000Y-32460000D01*
X103762530Y-32460000D01*
X103657748Y-32530013D01*
%TA.AperFunction,Conductor*%
D25*
G36*
X103657748Y-32530013D02*
G01*
X103430013Y-32757748D01*
X103251082Y-33025537D01*
X103127832Y-33323088D01*
X103065000Y-33638967D01*
X103065000Y-33961033D01*
X103127832Y-34276912D01*
X103251082Y-34574463D01*
X103430013Y-34842252D01*
X103657748Y-35069987D01*
X103925537Y-35248918D01*
X104223088Y-35372168D01*
X104538967Y-35435000D01*
X104861033Y-35435000D01*
X105176912Y-35372168D01*
X105474463Y-35248918D01*
X105742252Y-35069987D01*
X105969987Y-34842252D01*
X106148918Y-34574463D01*
X106272168Y-34276912D01*
X106335000Y-33961033D01*
X106335000Y-33638967D01*
X106272168Y-33323088D01*
X106148918Y-33025537D01*
X105969987Y-32757748D01*
X105742252Y-32530013D01*
X105637470Y-32460000D01*
X106863864Y-32460000D01*
X106776480Y-32518388D01*
X106618388Y-32676480D01*
X106494176Y-32862376D01*
X106408617Y-33068933D01*
X106365000Y-33288212D01*
X106365000Y-33511788D01*
X106408617Y-33731067D01*
X106494176Y-33937624D01*
X106618388Y-34123520D01*
X106776480Y-34281612D01*
X106962376Y-34405824D01*
X107168933Y-34491383D01*
X107388212Y-34535000D01*
X107611788Y-34535000D01*
X107831067Y-34491383D01*
X108037624Y-34405824D01*
X108223520Y-34281612D01*
X108381612Y-34123520D01*
X108505824Y-33937624D01*
X108591383Y-33731067D01*
X108635000Y-33511788D01*
X108635000Y-33288212D01*
X108591383Y-33068933D01*
X108505824Y-32862376D01*
X108381612Y-32676480D01*
X108223520Y-32518388D01*
X108136136Y-32460000D01*
X111483396Y-32460000D01*
X111262528Y-32528843D01*
X111136629Y-32792883D01*
X111064661Y-33076411D01*
X111049389Y-33368531D01*
X111091401Y-33658019D01*
X111189081Y-33933747D01*
X111262528Y-34071157D01*
X111511603Y-34148792D01*
X112360395Y-33300000D01*
X112346253Y-33285858D01*
X112525858Y-33106253D01*
X112540000Y-33120395D01*
X112554143Y-33106253D01*
X112733748Y-33285858D01*
X112719605Y-33300000D01*
X112733748Y-33314143D01*
X112554143Y-33493748D01*
X112540000Y-33479605D01*
X111691208Y-34328397D01*
X111768843Y-34577472D01*
X112032883Y-34703371D01*
X112316411Y-34775339D01*
X112398101Y-34779610D01*
X111394850Y-35782861D01*
X110276876Y-35782861D01*
X110230944Y-35778337D01*
X110047653Y-35796390D01*
X109871405Y-35849854D01*
X109843069Y-35865000D01*
X100845932Y-35865000D01*
X100800000Y-35860476D01*
X100754068Y-35865000D01*
X100616708Y-35878529D01*
X100440460Y-35931993D01*
X100278028Y-36018814D01*
X100135656Y-36135656D01*
X100106370Y-36171341D01*
X98564718Y-37712993D01*
X98529039Y-37742274D01*
X98412197Y-37884646D01*
X98340717Y-38018377D01*
X98325376Y-38047078D01*
X98271911Y-38223327D01*
X98253858Y-38406618D01*
X98258383Y-38452560D01*
X98258383Y-46753023D01*
X98184719Y-46753023D01*
X97984760Y-46792797D01*
X97796402Y-46870818D01*
X97626884Y-46984086D01*
X97571934Y-47039036D01*
X97428726Y-47082477D01*
X97296697Y-47153049D01*
X97180972Y-47248022D01*
X97157174Y-47277020D01*
X96160000Y-48274195D01*
X96160000Y-32460000D01*
X103762530Y-32460000D01*
X103657748Y-32530013D01*
G37*
%TD.AperFunction*%
D24*
X110596063Y-42759774D02*
X110740226Y-42903937D01*
X110909744Y-43017205D01*
X111040000Y-43071159D01*
X111039999Y-44775201D01*
X110810369Y-45004831D01*
X110813072Y-44570000D01*
X110800812Y-44445518D01*
X110764502Y-44325820D01*
X110705537Y-44215506D01*
X110626185Y-44118815D01*
X110529494Y-44039463D01*
X110419180Y-43980498D01*
X110299482Y-43944188D01*
X110175000Y-43931928D01*
X110135750Y-43935000D01*
X109977000Y-44093750D01*
X109977000Y-45223000D01*
X109997000Y-45223000D01*
X109997000Y-45477000D01*
X109977000Y-45477000D01*
X109977000Y-45497000D01*
X109863072Y-45497000D01*
X109863072Y-44570000D01*
X109850812Y-44445518D01*
X109814502Y-44325820D01*
X109755537Y-44215506D01*
X109723000Y-44175859D01*
X109723000Y-44093750D01*
X109564250Y-43935000D01*
X109525000Y-43931928D01*
X109400518Y-43944188D01*
X109375000Y-43951929D01*
X109349482Y-43944188D01*
X109225000Y-43931928D01*
X108575000Y-43931928D01*
X108450518Y-43944188D01*
X108425000Y-43951929D01*
X108399482Y-43944188D01*
X108275000Y-43931928D01*
X107906730Y-43931928D01*
X107738300Y-43763499D01*
X107900142Y-43601658D01*
X109348018Y-43601658D01*
X109385340Y-43605334D01*
X109422662Y-43601658D01*
X109422673Y-43601658D01*
X109534326Y-43590661D01*
X109677587Y-43547204D01*
X109809616Y-43476632D01*
X109925341Y-43381659D01*
X109949144Y-43352655D01*
X110574419Y-42727381D01*
X110596063Y-42759774D01*
%TA.AperFunction,Conductor*%
D25*
G36*
X110596063Y-42759774D02*
G01*
X110740226Y-42903937D01*
X110909744Y-43017205D01*
X111040000Y-43071159D01*
X111039999Y-44775201D01*
X110810369Y-45004831D01*
X110813072Y-44570000D01*
X110800812Y-44445518D01*
X110764502Y-44325820D01*
X110705537Y-44215506D01*
X110626185Y-44118815D01*
X110529494Y-44039463D01*
X110419180Y-43980498D01*
X110299482Y-43944188D01*
X110175000Y-43931928D01*
X110135750Y-43935000D01*
X109977000Y-44093750D01*
X109977000Y-45223000D01*
X109997000Y-45223000D01*
X109997000Y-45477000D01*
X109977000Y-45477000D01*
X109977000Y-45497000D01*
X109863072Y-45497000D01*
X109863072Y-44570000D01*
X109850812Y-44445518D01*
X109814502Y-44325820D01*
X109755537Y-44215506D01*
X109723000Y-44175859D01*
X109723000Y-44093750D01*
X109564250Y-43935000D01*
X109525000Y-43931928D01*
X109400518Y-43944188D01*
X109375000Y-43951929D01*
X109349482Y-43944188D01*
X109225000Y-43931928D01*
X108575000Y-43931928D01*
X108450518Y-43944188D01*
X108425000Y-43951929D01*
X108399482Y-43944188D01*
X108275000Y-43931928D01*
X107906730Y-43931928D01*
X107738300Y-43763499D01*
X107900142Y-43601658D01*
X109348018Y-43601658D01*
X109385340Y-43605334D01*
X109422662Y-43601658D01*
X109422673Y-43601658D01*
X109534326Y-43590661D01*
X109677587Y-43547204D01*
X109809616Y-43476632D01*
X109925341Y-43381659D01*
X109949144Y-43352655D01*
X110574419Y-42727381D01*
X110596063Y-42759774D01*
G37*
%TD.AperFunction*%
%TD*%
M02*
