%TF.GenerationSoftware,KiCad,Pcbnew,5.1.10*%
%TF.CreationDate,2021-12-12T23:24:33+01:00*%
%TF.ProjectId,board,626f6172-642e-46b6-9963-61645f706362,rev?*%
%TF.SameCoordinates,Original*%
%TF.FileFunction,Soldermask,Bot*%
%TF.FilePolarity,Negative*%
%FSLAX46Y46*%
G04 Gerber Fmt 4.6, Leading zero omitted, Abs format (unit mm)*
G04 Created by KiCad (PCBNEW 5.1.10) date 2021-12-12 23:24:33*
%MOMM*%
%LPD*%
G01*
G04 APERTURE LIST*
%ADD10O,1.700000X1.700000*%
%ADD11C,1.700000*%
%ADD12C,2.000000*%
%ADD13C,2.374900*%
%ADD14C,0.990600*%
%ADD15R,0.650000X1.560000*%
%ADD16R,0.650000X1.060000*%
%ADD17R,2.100000X2.800000*%
%ADD18R,0.600000X1.900000*%
G04 APERTURE END LIST*
D10*
%TO.C,J2*%
X121520000Y-71000000D03*
X118980000Y-71000000D03*
X116440000Y-71000000D03*
D11*
X113900000Y-71000000D03*
%TD*%
D10*
%TO.C,JP1*%
X110440000Y-61400000D03*
D11*
X107900000Y-61400000D03*
%TD*%
%TO.C,R13*%
G36*
G01*
X103525000Y-41737500D02*
X103525000Y-41262500D01*
G75*
G02*
X103762500Y-41025000I237500J0D01*
G01*
X104262500Y-41025000D01*
G75*
G02*
X104500000Y-41262500I0J-237500D01*
G01*
X104500000Y-41737500D01*
G75*
G02*
X104262500Y-41975000I-237500J0D01*
G01*
X103762500Y-41975000D01*
G75*
G02*
X103525000Y-41737500I0J237500D01*
G01*
G37*
G36*
G01*
X101700000Y-41737500D02*
X101700000Y-41262500D01*
G75*
G02*
X101937500Y-41025000I237500J0D01*
G01*
X102437500Y-41025000D01*
G75*
G02*
X102675000Y-41262500I0J-237500D01*
G01*
X102675000Y-41737500D01*
G75*
G02*
X102437500Y-41975000I-237500J0D01*
G01*
X101937500Y-41975000D01*
G75*
G02*
X101700000Y-41737500I0J237500D01*
G01*
G37*
%TD*%
%TO.C,R12*%
G36*
G01*
X103525000Y-39737500D02*
X103525000Y-39262500D01*
G75*
G02*
X103762500Y-39025000I237500J0D01*
G01*
X104262500Y-39025000D01*
G75*
G02*
X104500000Y-39262500I0J-237500D01*
G01*
X104500000Y-39737500D01*
G75*
G02*
X104262500Y-39975000I-237500J0D01*
G01*
X103762500Y-39975000D01*
G75*
G02*
X103525000Y-39737500I0J237500D01*
G01*
G37*
G36*
G01*
X101700000Y-39737500D02*
X101700000Y-39262500D01*
G75*
G02*
X101937500Y-39025000I237500J0D01*
G01*
X102437500Y-39025000D01*
G75*
G02*
X102675000Y-39262500I0J-237500D01*
G01*
X102675000Y-39737500D01*
G75*
G02*
X102437500Y-39975000I-237500J0D01*
G01*
X101937500Y-39975000D01*
G75*
G02*
X101700000Y-39737500I0J237500D01*
G01*
G37*
%TD*%
D12*
%TO.C,X2*%
X104700000Y-33800000D03*
D11*
X115080000Y-33300000D03*
X112540000Y-33300000D03*
X117620000Y-33300000D03*
X120160000Y-33300000D03*
D12*
X128000000Y-33800000D03*
X104700000Y-57600000D03*
X128000000Y-57600000D03*
%TD*%
%TO.C,FID8*%
X132000000Y-61500000D03*
%TD*%
%TO.C,FID7*%
X129300000Y-61500000D03*
%TD*%
%TO.C,FID4*%
X125300000Y-33400000D03*
%TD*%
%TO.C,FID3*%
X107500000Y-33400000D03*
%TD*%
D13*
%TO.C,X1*%
X99260000Y-64195000D03*
X104340000Y-64195000D03*
X104340000Y-69910000D03*
X99260000Y-69910000D03*
D14*
X101800000Y-69910000D03*
X102816000Y-62290000D03*
X100784000Y-62290000D03*
%TD*%
D15*
%TO.C,U3*%
X107950000Y-48050000D03*
X109850000Y-48050000D03*
X109850000Y-45350000D03*
X108900000Y-45350000D03*
X107950000Y-45350000D03*
%TD*%
D16*
%TO.C,U1*%
X116200000Y-64700000D03*
X115250000Y-64700000D03*
X117150000Y-64700000D03*
X117150000Y-62500000D03*
X116200000Y-62500000D03*
X115250000Y-62500000D03*
%TD*%
D12*
%TO.C,SW1*%
X125100000Y-64400000D03*
X129600000Y-64400000D03*
X125100000Y-70900000D03*
X129600000Y-70900000D03*
%TD*%
%TO.C,R11*%
G36*
G01*
X122275000Y-49062500D02*
X122275000Y-49537500D01*
G75*
G02*
X122037500Y-49775000I-237500J0D01*
G01*
X121537500Y-49775000D01*
G75*
G02*
X121300000Y-49537500I0J237500D01*
G01*
X121300000Y-49062500D01*
G75*
G02*
X121537500Y-48825000I237500J0D01*
G01*
X122037500Y-48825000D01*
G75*
G02*
X122275000Y-49062500I0J-237500D01*
G01*
G37*
G36*
G01*
X124100000Y-49062500D02*
X124100000Y-49537500D01*
G75*
G02*
X123862500Y-49775000I-237500J0D01*
G01*
X123362500Y-49775000D01*
G75*
G02*
X123125000Y-49537500I0J237500D01*
G01*
X123125000Y-49062500D01*
G75*
G02*
X123362500Y-48825000I237500J0D01*
G01*
X123862500Y-48825000D01*
G75*
G02*
X124100000Y-49062500I0J-237500D01*
G01*
G37*
%TD*%
%TO.C,R10*%
G36*
G01*
X122275000Y-50562500D02*
X122275000Y-51037500D01*
G75*
G02*
X122037500Y-51275000I-237500J0D01*
G01*
X121537500Y-51275000D01*
G75*
G02*
X121300000Y-51037500I0J237500D01*
G01*
X121300000Y-50562500D01*
G75*
G02*
X121537500Y-50325000I237500J0D01*
G01*
X122037500Y-50325000D01*
G75*
G02*
X122275000Y-50562500I0J-237500D01*
G01*
G37*
G36*
G01*
X124100000Y-50562500D02*
X124100000Y-51037500D01*
G75*
G02*
X123862500Y-51275000I-237500J0D01*
G01*
X123362500Y-51275000D01*
G75*
G02*
X123125000Y-51037500I0J237500D01*
G01*
X123125000Y-50562500D01*
G75*
G02*
X123362500Y-50325000I237500J0D01*
G01*
X123862500Y-50325000D01*
G75*
G02*
X124100000Y-50562500I0J-237500D01*
G01*
G37*
%TD*%
%TO.C,R9*%
G36*
G01*
X122437500Y-64775000D02*
X121962500Y-64775000D01*
G75*
G02*
X121725000Y-64537500I0J237500D01*
G01*
X121725000Y-64037500D01*
G75*
G02*
X121962500Y-63800000I237500J0D01*
G01*
X122437500Y-63800000D01*
G75*
G02*
X122675000Y-64037500I0J-237500D01*
G01*
X122675000Y-64537500D01*
G75*
G02*
X122437500Y-64775000I-237500J0D01*
G01*
G37*
G36*
G01*
X122437500Y-66600000D02*
X121962500Y-66600000D01*
G75*
G02*
X121725000Y-66362500I0J237500D01*
G01*
X121725000Y-65862500D01*
G75*
G02*
X121962500Y-65625000I237500J0D01*
G01*
X122437500Y-65625000D01*
G75*
G02*
X122675000Y-65862500I0J-237500D01*
G01*
X122675000Y-66362500D01*
G75*
G02*
X122437500Y-66600000I-237500J0D01*
G01*
G37*
%TD*%
%TO.C,R8*%
G36*
G01*
X120225000Y-66037500D02*
X120225000Y-65562500D01*
G75*
G02*
X120462500Y-65325000I237500J0D01*
G01*
X120962500Y-65325000D01*
G75*
G02*
X121200000Y-65562500I0J-237500D01*
G01*
X121200000Y-66037500D01*
G75*
G02*
X120962500Y-66275000I-237500J0D01*
G01*
X120462500Y-66275000D01*
G75*
G02*
X120225000Y-66037500I0J237500D01*
G01*
G37*
G36*
G01*
X118400000Y-66037500D02*
X118400000Y-65562500D01*
G75*
G02*
X118637500Y-65325000I237500J0D01*
G01*
X119137500Y-65325000D01*
G75*
G02*
X119375000Y-65562500I0J-237500D01*
G01*
X119375000Y-66037500D01*
G75*
G02*
X119137500Y-66275000I-237500J0D01*
G01*
X118637500Y-66275000D01*
G75*
G02*
X118400000Y-66037500I0J237500D01*
G01*
G37*
%TD*%
%TO.C,R7*%
G36*
G01*
X105962500Y-47825000D02*
X106437500Y-47825000D01*
G75*
G02*
X106675000Y-48062500I0J-237500D01*
G01*
X106675000Y-48562500D01*
G75*
G02*
X106437500Y-48800000I-237500J0D01*
G01*
X105962500Y-48800000D01*
G75*
G02*
X105725000Y-48562500I0J237500D01*
G01*
X105725000Y-48062500D01*
G75*
G02*
X105962500Y-47825000I237500J0D01*
G01*
G37*
G36*
G01*
X105962500Y-46000000D02*
X106437500Y-46000000D01*
G75*
G02*
X106675000Y-46237500I0J-237500D01*
G01*
X106675000Y-46737500D01*
G75*
G02*
X106437500Y-46975000I-237500J0D01*
G01*
X105962500Y-46975000D01*
G75*
G02*
X105725000Y-46737500I0J237500D01*
G01*
X105725000Y-46237500D01*
G75*
G02*
X105962500Y-46000000I237500J0D01*
G01*
G37*
%TD*%
%TO.C,R6*%
G36*
G01*
X104462500Y-47825000D02*
X104937500Y-47825000D01*
G75*
G02*
X105175000Y-48062500I0J-237500D01*
G01*
X105175000Y-48562500D01*
G75*
G02*
X104937500Y-48800000I-237500J0D01*
G01*
X104462500Y-48800000D01*
G75*
G02*
X104225000Y-48562500I0J237500D01*
G01*
X104225000Y-48062500D01*
G75*
G02*
X104462500Y-47825000I237500J0D01*
G01*
G37*
G36*
G01*
X104462500Y-46000000D02*
X104937500Y-46000000D01*
G75*
G02*
X105175000Y-46237500I0J-237500D01*
G01*
X105175000Y-46737500D01*
G75*
G02*
X104937500Y-46975000I-237500J0D01*
G01*
X104462500Y-46975000D01*
G75*
G02*
X104225000Y-46737500I0J237500D01*
G01*
X104225000Y-46237500D01*
G75*
G02*
X104462500Y-46000000I237500J0D01*
G01*
G37*
%TD*%
%TO.C,R5*%
G36*
G01*
X119375000Y-67062500D02*
X119375000Y-67537500D01*
G75*
G02*
X119137500Y-67775000I-237500J0D01*
G01*
X118637500Y-67775000D01*
G75*
G02*
X118400000Y-67537500I0J237500D01*
G01*
X118400000Y-67062500D01*
G75*
G02*
X118637500Y-66825000I237500J0D01*
G01*
X119137500Y-66825000D01*
G75*
G02*
X119375000Y-67062500I0J-237500D01*
G01*
G37*
G36*
G01*
X121200000Y-67062500D02*
X121200000Y-67537500D01*
G75*
G02*
X120962500Y-67775000I-237500J0D01*
G01*
X120462500Y-67775000D01*
G75*
G02*
X120225000Y-67537500I0J237500D01*
G01*
X120225000Y-67062500D01*
G75*
G02*
X120462500Y-66825000I237500J0D01*
G01*
X120962500Y-66825000D01*
G75*
G02*
X121200000Y-67062500I0J-237500D01*
G01*
G37*
%TD*%
%TO.C,R4*%
G36*
G01*
X126125000Y-43937500D02*
X126125000Y-43462500D01*
G75*
G02*
X126362500Y-43225000I237500J0D01*
G01*
X126862500Y-43225000D01*
G75*
G02*
X127100000Y-43462500I0J-237500D01*
G01*
X127100000Y-43937500D01*
G75*
G02*
X126862500Y-44175000I-237500J0D01*
G01*
X126362500Y-44175000D01*
G75*
G02*
X126125000Y-43937500I0J237500D01*
G01*
G37*
G36*
G01*
X124300000Y-43937500D02*
X124300000Y-43462500D01*
G75*
G02*
X124537500Y-43225000I237500J0D01*
G01*
X125037500Y-43225000D01*
G75*
G02*
X125275000Y-43462500I0J-237500D01*
G01*
X125275000Y-43937500D01*
G75*
G02*
X125037500Y-44175000I-237500J0D01*
G01*
X124537500Y-44175000D01*
G75*
G02*
X124300000Y-43937500I0J237500D01*
G01*
G37*
%TD*%
%TO.C,R3*%
G36*
G01*
X119375000Y-62562500D02*
X119375000Y-63037500D01*
G75*
G02*
X119137500Y-63275000I-237500J0D01*
G01*
X118637500Y-63275000D01*
G75*
G02*
X118400000Y-63037500I0J237500D01*
G01*
X118400000Y-62562500D01*
G75*
G02*
X118637500Y-62325000I237500J0D01*
G01*
X119137500Y-62325000D01*
G75*
G02*
X119375000Y-62562500I0J-237500D01*
G01*
G37*
G36*
G01*
X121200000Y-62562500D02*
X121200000Y-63037500D01*
G75*
G02*
X120962500Y-63275000I-237500J0D01*
G01*
X120462500Y-63275000D01*
G75*
G02*
X120225000Y-63037500I0J237500D01*
G01*
X120225000Y-62562500D01*
G75*
G02*
X120462500Y-62325000I237500J0D01*
G01*
X120962500Y-62325000D01*
G75*
G02*
X121200000Y-62562500I0J-237500D01*
G01*
G37*
%TD*%
%TO.C,R2*%
G36*
G01*
X119375000Y-61062500D02*
X119375000Y-61537500D01*
G75*
G02*
X119137500Y-61775000I-237500J0D01*
G01*
X118637500Y-61775000D01*
G75*
G02*
X118400000Y-61537500I0J237500D01*
G01*
X118400000Y-61062500D01*
G75*
G02*
X118637500Y-60825000I237500J0D01*
G01*
X119137500Y-60825000D01*
G75*
G02*
X119375000Y-61062500I0J-237500D01*
G01*
G37*
G36*
G01*
X121200000Y-61062500D02*
X121200000Y-61537500D01*
G75*
G02*
X120962500Y-61775000I-237500J0D01*
G01*
X120462500Y-61775000D01*
G75*
G02*
X120225000Y-61537500I0J237500D01*
G01*
X120225000Y-61062500D01*
G75*
G02*
X120462500Y-60825000I237500J0D01*
G01*
X120962500Y-60825000D01*
G75*
G02*
X121200000Y-61062500I0J-237500D01*
G01*
G37*
%TD*%
%TO.C,R1*%
G36*
G01*
X123262500Y-40225000D02*
X123737500Y-40225000D01*
G75*
G02*
X123975000Y-40462500I0J-237500D01*
G01*
X123975000Y-40962500D01*
G75*
G02*
X123737500Y-41200000I-237500J0D01*
G01*
X123262500Y-41200000D01*
G75*
G02*
X123025000Y-40962500I0J237500D01*
G01*
X123025000Y-40462500D01*
G75*
G02*
X123262500Y-40225000I237500J0D01*
G01*
G37*
G36*
G01*
X123262500Y-38400000D02*
X123737500Y-38400000D01*
G75*
G02*
X123975000Y-38637500I0J-237500D01*
G01*
X123975000Y-39137500D01*
G75*
G02*
X123737500Y-39375000I-237500J0D01*
G01*
X123262500Y-39375000D01*
G75*
G02*
X123025000Y-39137500I0J237500D01*
G01*
X123025000Y-38637500D01*
G75*
G02*
X123262500Y-38400000I237500J0D01*
G01*
G37*
%TD*%
D17*
%TO.C,J1*%
X111450000Y-53850000D03*
X120750000Y-53850000D03*
D18*
X117600000Y-56200000D03*
X116600000Y-56200000D03*
X115600000Y-56200000D03*
X114600000Y-56200000D03*
%TD*%
%TO.C,C5*%
G36*
G01*
X119475000Y-64062500D02*
X119475000Y-64537500D01*
G75*
G02*
X119237500Y-64775000I-237500J0D01*
G01*
X118637500Y-64775000D01*
G75*
G02*
X118400000Y-64537500I0J237500D01*
G01*
X118400000Y-64062500D01*
G75*
G02*
X118637500Y-63825000I237500J0D01*
G01*
X119237500Y-63825000D01*
G75*
G02*
X119475000Y-64062500I0J-237500D01*
G01*
G37*
G36*
G01*
X121200000Y-64062500D02*
X121200000Y-64537500D01*
G75*
G02*
X120962500Y-64775000I-237500J0D01*
G01*
X120362500Y-64775000D01*
G75*
G02*
X120125000Y-64537500I0J237500D01*
G01*
X120125000Y-64062500D01*
G75*
G02*
X120362500Y-63825000I237500J0D01*
G01*
X120962500Y-63825000D01*
G75*
G02*
X121200000Y-64062500I0J-237500D01*
G01*
G37*
%TD*%
%TO.C,C4*%
G36*
G01*
X114925000Y-66637500D02*
X114925000Y-66162500D01*
G75*
G02*
X115162500Y-65925000I237500J0D01*
G01*
X115762500Y-65925000D01*
G75*
G02*
X116000000Y-66162500I0J-237500D01*
G01*
X116000000Y-66637500D01*
G75*
G02*
X115762500Y-66875000I-237500J0D01*
G01*
X115162500Y-66875000D01*
G75*
G02*
X114925000Y-66637500I0J237500D01*
G01*
G37*
G36*
G01*
X113200000Y-66637500D02*
X113200000Y-66162500D01*
G75*
G02*
X113437500Y-65925000I237500J0D01*
G01*
X114037500Y-65925000D01*
G75*
G02*
X114275000Y-66162500I0J-237500D01*
G01*
X114275000Y-66637500D01*
G75*
G02*
X114037500Y-66875000I-237500J0D01*
G01*
X113437500Y-66875000D01*
G75*
G02*
X113200000Y-66637500I0J237500D01*
G01*
G37*
%TD*%
%TO.C,C3*%
G36*
G01*
X115875000Y-60662500D02*
X115875000Y-61137500D01*
G75*
G02*
X115637500Y-61375000I-237500J0D01*
G01*
X115037500Y-61375000D01*
G75*
G02*
X114800000Y-61137500I0J237500D01*
G01*
X114800000Y-60662500D01*
G75*
G02*
X115037500Y-60425000I237500J0D01*
G01*
X115637500Y-60425000D01*
G75*
G02*
X115875000Y-60662500I0J-237500D01*
G01*
G37*
G36*
G01*
X117600000Y-60662500D02*
X117600000Y-61137500D01*
G75*
G02*
X117362500Y-61375000I-237500J0D01*
G01*
X116762500Y-61375000D01*
G75*
G02*
X116525000Y-61137500I0J237500D01*
G01*
X116525000Y-60662500D01*
G75*
G02*
X116762500Y-60425000I237500J0D01*
G01*
X117362500Y-60425000D01*
G75*
G02*
X117600000Y-60662500I0J-237500D01*
G01*
G37*
%TD*%
%TO.C,C2*%
G36*
G01*
X115300000Y-58349999D02*
X115300000Y-59650001D01*
G75*
G02*
X115050001Y-59900000I-249999J0D01*
G01*
X114224999Y-59900000D01*
G75*
G02*
X113975000Y-59650001I0J249999D01*
G01*
X113975000Y-58349999D01*
G75*
G02*
X114224999Y-58100000I249999J0D01*
G01*
X115050001Y-58100000D01*
G75*
G02*
X115300000Y-58349999I0J-249999D01*
G01*
G37*
G36*
G01*
X118425000Y-58349999D02*
X118425000Y-59650001D01*
G75*
G02*
X118175001Y-59900000I-249999J0D01*
G01*
X117349999Y-59900000D01*
G75*
G02*
X117100000Y-59650001I0J249999D01*
G01*
X117100000Y-58349999D01*
G75*
G02*
X117349999Y-58100000I249999J0D01*
G01*
X118175001Y-58100000D01*
G75*
G02*
X118425000Y-58349999I0J-249999D01*
G01*
G37*
%TD*%
%TO.C,C1*%
G36*
G01*
X126225000Y-40137500D02*
X126225000Y-39662500D01*
G75*
G02*
X126462500Y-39425000I237500J0D01*
G01*
X127062500Y-39425000D01*
G75*
G02*
X127300000Y-39662500I0J-237500D01*
G01*
X127300000Y-40137500D01*
G75*
G02*
X127062500Y-40375000I-237500J0D01*
G01*
X126462500Y-40375000D01*
G75*
G02*
X126225000Y-40137500I0J237500D01*
G01*
G37*
G36*
G01*
X124500000Y-40137500D02*
X124500000Y-39662500D01*
G75*
G02*
X124737500Y-39425000I237500J0D01*
G01*
X125337500Y-39425000D01*
G75*
G02*
X125575000Y-39662500I0J-237500D01*
G01*
X125575000Y-40137500D01*
G75*
G02*
X125337500Y-40375000I-237500J0D01*
G01*
X124737500Y-40375000D01*
G75*
G02*
X124500000Y-40137500I0J237500D01*
G01*
G37*
%TD*%
M02*
