%TF.GenerationSoftware,KiCad,Pcbnew,5.1.10*%
%TF.CreationDate,2021-12-12T23:24:33+01:00*%
%TF.ProjectId,board,626f6172-642e-46b6-9963-61645f706362,rev?*%
%TF.SameCoordinates,Original*%
%TF.FileFunction,Legend,Bot*%
%TF.FilePolarity,Positive*%
%FSLAX46Y46*%
G04 Gerber Fmt 4.6, Leading zero omitted, Abs format (unit mm)*
G04 Created by KiCad (PCBNEW 5.1.10) date 2021-12-12 23:24:33*
%MOMM*%
%LPD*%
G01*
G04 APERTURE LIST*
%ADD10C,0.010000*%
%ADD11C,0.120000*%
G04 APERTURE END LIST*
D10*
%TO.C,LOGO2*%
G36*
X118377533Y-40094191D02*
G01*
X118377526Y-40162478D01*
X118377505Y-40229285D01*
X118377471Y-40294394D01*
X118377425Y-40357584D01*
X118377366Y-40418637D01*
X118377296Y-40477333D01*
X118377215Y-40533452D01*
X118377123Y-40586777D01*
X118377022Y-40637087D01*
X118376911Y-40684164D01*
X118376792Y-40727787D01*
X118376664Y-40767738D01*
X118376529Y-40803798D01*
X118376387Y-40835747D01*
X118376238Y-40863366D01*
X118376083Y-40886436D01*
X118375923Y-40904737D01*
X118375758Y-40918050D01*
X118375589Y-40926157D01*
X118375417Y-40928838D01*
X118372585Y-40927079D01*
X118365693Y-40922617D01*
X118355379Y-40915872D01*
X118342285Y-40907266D01*
X118327052Y-40897217D01*
X118311211Y-40886736D01*
X118245017Y-40843687D01*
X118180477Y-40803429D01*
X118116291Y-40765212D01*
X118051155Y-40728289D01*
X117983769Y-40691914D01*
X117912829Y-40655338D01*
X117876589Y-40637221D01*
X117742174Y-40573650D01*
X117606420Y-40515441D01*
X117469009Y-40462483D01*
X117329628Y-40414662D01*
X117187961Y-40371866D01*
X117043692Y-40333984D01*
X116988294Y-40320893D01*
X116966422Y-40315879D01*
X116966422Y-39258578D01*
X115233578Y-39258578D01*
X115233578Y-40316013D01*
X115217350Y-40319494D01*
X115201225Y-40323130D01*
X115180648Y-40328045D01*
X115156602Y-40333984D01*
X115130067Y-40340695D01*
X115102024Y-40347923D01*
X115073455Y-40355414D01*
X115045340Y-40362914D01*
X115018661Y-40370169D01*
X114994399Y-40376925D01*
X114983335Y-40380079D01*
X114850046Y-40421157D01*
X114717033Y-40467538D01*
X114584852Y-40518962D01*
X114454061Y-40575172D01*
X114325214Y-40635907D01*
X114198869Y-40700908D01*
X114075582Y-40769916D01*
X113955910Y-40842672D01*
X113870419Y-40898494D01*
X113856522Y-40907824D01*
X113844217Y-40916037D01*
X113834278Y-40922622D01*
X113827476Y-40927068D01*
X113824583Y-40928863D01*
X113824410Y-40926155D01*
X113824241Y-40918022D01*
X113824076Y-40904683D01*
X113823916Y-40886357D01*
X113823761Y-40863263D01*
X113823612Y-40835622D01*
X113823470Y-40803652D01*
X113823335Y-40767572D01*
X113823207Y-40727601D01*
X113823088Y-40683960D01*
X113822977Y-40636866D01*
X113822876Y-40586540D01*
X113822785Y-40533201D01*
X113822704Y-40477067D01*
X113822633Y-40418359D01*
X113822575Y-40357295D01*
X113822528Y-40294094D01*
X113822494Y-40228977D01*
X113822474Y-40162162D01*
X113822467Y-40094191D01*
X113822467Y-39258578D01*
X112092523Y-39258578D01*
X112091778Y-41734372D01*
X112091745Y-41853093D01*
X112091716Y-41970650D01*
X112091692Y-42086909D01*
X112091673Y-42201735D01*
X112091658Y-42314992D01*
X112091648Y-42426547D01*
X112091642Y-42536264D01*
X112091640Y-42644010D01*
X112091643Y-42749648D01*
X112091651Y-42853045D01*
X112091662Y-42954065D01*
X112091678Y-43052574D01*
X112091697Y-43148437D01*
X112091721Y-43241520D01*
X112091749Y-43331687D01*
X112091780Y-43418804D01*
X112091816Y-43502736D01*
X112091855Y-43583349D01*
X112091898Y-43660507D01*
X112091944Y-43734076D01*
X112091995Y-43803922D01*
X112092048Y-43869909D01*
X112092105Y-43931902D01*
X112092166Y-43989768D01*
X112092230Y-44043370D01*
X112092297Y-44092575D01*
X112092367Y-44137248D01*
X112092441Y-44177254D01*
X112092517Y-44212458D01*
X112092597Y-44242725D01*
X112092680Y-44267922D01*
X112092765Y-44287912D01*
X112092854Y-44302562D01*
X112092945Y-44311736D01*
X112092968Y-44313178D01*
X112094422Y-44373288D01*
X112096501Y-44429436D01*
X112099313Y-44483280D01*
X112102964Y-44536477D01*
X112107563Y-44590686D01*
X112113215Y-44647565D01*
X112116597Y-44678656D01*
X112135825Y-44825653D01*
X112160580Y-44971828D01*
X112190785Y-45116989D01*
X112226362Y-45260943D01*
X112267234Y-45403496D01*
X112313325Y-45544456D01*
X112364557Y-45683630D01*
X112420852Y-45820826D01*
X112482135Y-45955849D01*
X112548327Y-46088508D01*
X112619352Y-46218610D01*
X112695132Y-46345962D01*
X112775590Y-46470371D01*
X112860649Y-46591644D01*
X112906215Y-46652800D01*
X112972237Y-46737104D01*
X113041763Y-46821094D01*
X113114017Y-46903928D01*
X113188222Y-46984763D01*
X113263603Y-47062759D01*
X113339385Y-47137072D01*
X113414790Y-47206863D01*
X113426650Y-47217448D01*
X113436034Y-47225949D01*
X113443608Y-47233130D01*
X113448511Y-47238153D01*
X113449933Y-47240093D01*
X113448539Y-47242705D01*
X113444431Y-47250005D01*
X113437725Y-47261796D01*
X113428535Y-47277879D01*
X113416974Y-47298058D01*
X113403156Y-47322133D01*
X113387197Y-47349909D01*
X113369209Y-47381187D01*
X113349308Y-47415769D01*
X113327607Y-47453459D01*
X113304221Y-47494058D01*
X113279263Y-47537369D01*
X113252848Y-47583194D01*
X113225090Y-47631336D01*
X113196103Y-47681597D01*
X113166001Y-47733779D01*
X113134899Y-47787685D01*
X113102910Y-47843118D01*
X113070149Y-47899879D01*
X113036730Y-47957771D01*
X113002767Y-48016597D01*
X112968374Y-48076158D01*
X112933665Y-48136258D01*
X112898755Y-48196699D01*
X112863757Y-48257282D01*
X112828786Y-48317811D01*
X112793956Y-48378088D01*
X112759381Y-48437916D01*
X112725176Y-48497096D01*
X112691453Y-48555430D01*
X112658328Y-48612723D01*
X112625915Y-48668775D01*
X112594328Y-48723390D01*
X112563681Y-48776369D01*
X112534087Y-48827515D01*
X112505662Y-48876631D01*
X112478520Y-48923519D01*
X112452774Y-48967981D01*
X112428539Y-49009820D01*
X112405928Y-49048837D01*
X112385057Y-49084837D01*
X112366039Y-49117620D01*
X112348988Y-49146989D01*
X112334019Y-49172747D01*
X112321245Y-49194696D01*
X112310781Y-49212639D01*
X112302742Y-49226378D01*
X112297240Y-49235714D01*
X112294390Y-49240452D01*
X112294013Y-49241021D01*
X112290997Y-49246103D01*
X112291619Y-49248914D01*
X112294667Y-49251024D01*
X112301806Y-49255667D01*
X112312333Y-49262397D01*
X112325544Y-49270764D01*
X112340739Y-49280323D01*
X112350678Y-49286544D01*
X112522512Y-49390619D01*
X112696689Y-49489564D01*
X112873158Y-49583357D01*
X113051866Y-49671980D01*
X113232762Y-49755411D01*
X113415792Y-49833632D01*
X113600905Y-49906621D01*
X113788049Y-49974360D01*
X113977172Y-50036828D01*
X114168221Y-50094004D01*
X114361144Y-50145870D01*
X114555890Y-50192404D01*
X114752406Y-50233587D01*
X114875842Y-50256554D01*
X114981748Y-50274331D01*
X115091573Y-50290898D01*
X115203677Y-50306044D01*
X115316425Y-50319564D01*
X115428178Y-50331249D01*
X115537301Y-50340890D01*
X115544022Y-50341422D01*
X115565926Y-50343147D01*
X115585741Y-50344703D01*
X115603855Y-50346097D01*
X115620656Y-50347339D01*
X115636530Y-50348440D01*
X115651865Y-50349407D01*
X115667047Y-50350251D01*
X115682465Y-50350981D01*
X115698504Y-50351605D01*
X115715553Y-50352134D01*
X115733999Y-50352577D01*
X115754228Y-50352942D01*
X115776628Y-50353240D01*
X115801586Y-50353480D01*
X115829490Y-50353671D01*
X115860725Y-50353822D01*
X115895681Y-50353942D01*
X115934743Y-50354042D01*
X115978299Y-50354130D01*
X116026736Y-50354215D01*
X116078833Y-50354305D01*
X116137203Y-50354394D01*
X116190218Y-50354445D01*
X116238165Y-50354456D01*
X116281335Y-50354426D01*
X116320014Y-50354352D01*
X116354493Y-50354232D01*
X116385060Y-50354064D01*
X116412003Y-50353846D01*
X116435611Y-50353576D01*
X116456174Y-50353251D01*
X116473978Y-50352870D01*
X116489314Y-50352430D01*
X116502470Y-50351930D01*
X116513735Y-50351367D01*
X116517689Y-50351130D01*
X116701798Y-50337362D01*
X116882556Y-50319513D01*
X117060612Y-50297485D01*
X117236617Y-50271179D01*
X117411221Y-50240495D01*
X117585074Y-50205334D01*
X117758826Y-50165596D01*
X117800930Y-50155281D01*
X117994677Y-50104327D01*
X118186313Y-50048138D01*
X118375840Y-49986713D01*
X118563261Y-49920053D01*
X118748578Y-49848155D01*
X118931791Y-49771019D01*
X119112905Y-49688645D01*
X119291919Y-49601031D01*
X119468837Y-49508177D01*
X119643660Y-49410081D01*
X119816391Y-49306743D01*
X119844446Y-49289341D01*
X119863862Y-49277214D01*
X119878973Y-49267682D01*
X119890272Y-49260368D01*
X119898254Y-49254896D01*
X119903413Y-49250891D01*
X119906242Y-49247975D01*
X119907236Y-49245773D01*
X119906888Y-49243910D01*
X119906019Y-49242470D01*
X119904218Y-49239468D01*
X119899720Y-49231792D01*
X119892642Y-49219640D01*
X119883096Y-49203210D01*
X119871197Y-49182700D01*
X119857059Y-49158308D01*
X119840797Y-49130230D01*
X119822524Y-49098666D01*
X119802354Y-49063812D01*
X119780402Y-49025866D01*
X119756781Y-48985026D01*
X119731607Y-48941490D01*
X119704993Y-48895455D01*
X119677053Y-48847119D01*
X119647901Y-48796680D01*
X119617652Y-48744335D01*
X119586420Y-48690282D01*
X119554319Y-48634720D01*
X119521462Y-48577844D01*
X119487965Y-48519855D01*
X119453941Y-48460948D01*
X119419505Y-48401321D01*
X119384770Y-48341173D01*
X119349851Y-48280701D01*
X119314862Y-48220103D01*
X119279917Y-48159576D01*
X119245130Y-48099319D01*
X119210615Y-48039528D01*
X119176487Y-47980402D01*
X119142860Y-47922138D01*
X119109847Y-47864935D01*
X119077564Y-47808988D01*
X119046124Y-47754498D01*
X119015641Y-47701660D01*
X118986229Y-47650673D01*
X118958003Y-47601735D01*
X118931076Y-47555042D01*
X118905564Y-47510794D01*
X118881580Y-47469187D01*
X118859237Y-47430420D01*
X118838651Y-47394689D01*
X118819936Y-47362193D01*
X118803205Y-47333130D01*
X118788573Y-47307697D01*
X118776154Y-47286091D01*
X118766062Y-47268511D01*
X118758411Y-47255155D01*
X118753316Y-47246219D01*
X118750890Y-47241901D01*
X118750692Y-47241516D01*
X118752486Y-47238819D01*
X118757944Y-47232929D01*
X118766504Y-47224395D01*
X118777606Y-47213767D01*
X118790689Y-47201594D01*
X118801443Y-47191800D01*
X118844672Y-47151879D01*
X118890172Y-47108187D01*
X118937061Y-47061635D01*
X118984456Y-47013133D01*
X119031474Y-46963591D01*
X119077234Y-46913919D01*
X119120851Y-46865029D01*
X119143130Y-46839359D01*
X119238176Y-46724376D01*
X119328681Y-46606108D01*
X119414579Y-46484711D01*
X119495803Y-46360340D01*
X119572288Y-46233151D01*
X119643968Y-46103298D01*
X119710776Y-45970937D01*
X119772646Y-45836222D01*
X119829514Y-45699309D01*
X119881312Y-45560354D01*
X119927975Y-45419511D01*
X119969437Y-45276935D01*
X120005631Y-45132782D01*
X120036492Y-44987207D01*
X120061955Y-44840365D01*
X120081952Y-44692411D01*
X120090568Y-44610922D01*
X120095907Y-44550113D01*
X120100137Y-44490788D01*
X120103362Y-44431099D01*
X120105684Y-44369199D01*
X120107002Y-44314589D01*
X120107096Y-44306759D01*
X120107186Y-44293419D01*
X120107274Y-44274705D01*
X120107358Y-44250751D01*
X120107440Y-44221691D01*
X120107519Y-44187662D01*
X120107595Y-44148796D01*
X120107667Y-44105231D01*
X120107736Y-44057100D01*
X120107802Y-44004537D01*
X120107865Y-43947679D01*
X120107924Y-43886660D01*
X120107979Y-43821614D01*
X120108032Y-43752677D01*
X120108080Y-43679983D01*
X120108125Y-43603667D01*
X120108166Y-43523865D01*
X120108203Y-43440710D01*
X120108237Y-43354338D01*
X120108266Y-43264883D01*
X120108292Y-43172481D01*
X120108313Y-43077266D01*
X120108330Y-42979373D01*
X120108344Y-42878937D01*
X120108352Y-42776093D01*
X120108357Y-42670976D01*
X120108357Y-42585998D01*
X118453823Y-42585998D01*
X118452945Y-43704294D01*
X118452869Y-43799214D01*
X118452795Y-43888658D01*
X118452722Y-43972793D01*
X118452648Y-44051788D01*
X118452574Y-44125809D01*
X118452498Y-44195026D01*
X118452419Y-44259606D01*
X118452337Y-44319716D01*
X118452251Y-44375525D01*
X118452160Y-44427200D01*
X118452062Y-44474910D01*
X118451958Y-44518822D01*
X118451846Y-44559105D01*
X118451726Y-44595925D01*
X118451597Y-44629452D01*
X118451457Y-44659852D01*
X118451307Y-44687294D01*
X118451145Y-44711946D01*
X118450970Y-44733975D01*
X118450782Y-44753550D01*
X118450579Y-44770837D01*
X118450362Y-44786007D01*
X118450128Y-44799225D01*
X118449878Y-44810660D01*
X118449610Y-44820480D01*
X118449324Y-44828853D01*
X118449018Y-44835946D01*
X118448692Y-44841928D01*
X118448346Y-44846966D01*
X118447977Y-44851229D01*
X118447586Y-44854883D01*
X118447212Y-44857807D01*
X118434441Y-44936513D01*
X118418069Y-45012764D01*
X118397858Y-45087211D01*
X118373576Y-45160505D01*
X118344985Y-45233298D01*
X118311851Y-45306240D01*
X118273938Y-45379984D01*
X118232049Y-45453444D01*
X118180558Y-45535245D01*
X118123527Y-45617349D01*
X118061049Y-45699681D01*
X117993215Y-45782163D01*
X117920117Y-45864719D01*
X117841847Y-45947272D01*
X117758498Y-46029745D01*
X117670161Y-46112061D01*
X117576928Y-46194143D01*
X117478892Y-46275914D01*
X117376143Y-46357298D01*
X117268774Y-46438217D01*
X117156878Y-46518595D01*
X117040546Y-46598355D01*
X116919869Y-46677420D01*
X116794941Y-46755713D01*
X116665852Y-46833157D01*
X116532695Y-46909675D01*
X116406211Y-46979441D01*
X116390402Y-46987893D01*
X116371720Y-46997715D01*
X116350686Y-47008645D01*
X116327823Y-47020422D01*
X116303652Y-47032784D01*
X116278697Y-47045470D01*
X116253477Y-47058217D01*
X116228517Y-47070765D01*
X116204337Y-47082851D01*
X116181461Y-47094215D01*
X116160409Y-47104593D01*
X116141705Y-47113726D01*
X116125870Y-47121350D01*
X116113426Y-47127206D01*
X116104895Y-47131029D01*
X116100799Y-47132561D01*
X116100635Y-47132578D01*
X116096832Y-47131391D01*
X116088762Y-47128067D01*
X116077223Y-47122963D01*
X116063013Y-47116434D01*
X116046930Y-47108838D01*
X116039441Y-47105238D01*
X115994788Y-47083318D01*
X115946380Y-47058942D01*
X115895242Y-47032653D01*
X115842400Y-47004994D01*
X115788879Y-46976509D01*
X115735706Y-46947742D01*
X115683905Y-46919236D01*
X115634502Y-46891535D01*
X115611602Y-46878490D01*
X115480299Y-46801609D01*
X115352812Y-46723629D01*
X115229292Y-46644665D01*
X115109889Y-46564834D01*
X114994753Y-46484252D01*
X114884034Y-46403034D01*
X114777881Y-46321296D01*
X114676446Y-46239155D01*
X114579878Y-46156725D01*
X114488328Y-46074124D01*
X114401945Y-45991467D01*
X114320880Y-45908870D01*
X114245282Y-45826449D01*
X114236433Y-45816403D01*
X114165505Y-45732537D01*
X114100181Y-45649103D01*
X114040441Y-45566062D01*
X113986264Y-45483376D01*
X113937631Y-45401007D01*
X113894520Y-45318915D01*
X113856911Y-45237063D01*
X113824785Y-45155411D01*
X113798119Y-45073922D01*
X113776894Y-44992557D01*
X113763232Y-44924138D01*
X113761817Y-44916009D01*
X113760484Y-44908456D01*
X113759229Y-44901304D01*
X113758050Y-44894380D01*
X113756944Y-44887510D01*
X113755911Y-44880519D01*
X113754946Y-44873234D01*
X113754047Y-44865479D01*
X113753213Y-44857081D01*
X113752441Y-44847867D01*
X113751728Y-44837660D01*
X113751072Y-44826289D01*
X113750471Y-44813577D01*
X113749922Y-44799352D01*
X113749424Y-44783439D01*
X113748972Y-44765663D01*
X113748566Y-44745851D01*
X113748203Y-44723829D01*
X113747881Y-44699423D01*
X113747596Y-44672457D01*
X113747347Y-44642759D01*
X113747132Y-44610153D01*
X113746947Y-44574467D01*
X113746791Y-44535525D01*
X113746661Y-44493153D01*
X113746555Y-44447178D01*
X113746471Y-44397425D01*
X113746405Y-44343720D01*
X113746356Y-44285889D01*
X113746322Y-44223757D01*
X113746299Y-44157151D01*
X113746286Y-44085897D01*
X113746281Y-44009820D01*
X113746280Y-43928746D01*
X113746281Y-43842501D01*
X113746283Y-43750911D01*
X113746283Y-43681722D01*
X113746267Y-42586011D01*
X113770961Y-42570035D01*
X113800897Y-42551392D01*
X113835783Y-42530975D01*
X113875277Y-42508973D01*
X113919038Y-42485576D01*
X113966725Y-42460972D01*
X113976278Y-42456138D01*
X114093359Y-42399827D01*
X114214792Y-42346792D01*
X114340270Y-42297125D01*
X114469485Y-42250915D01*
X114602131Y-42208251D01*
X114737900Y-42169224D01*
X114876487Y-42133923D01*
X115017583Y-42102437D01*
X115160883Y-42074858D01*
X115306078Y-42051273D01*
X115408555Y-42037205D01*
X115573020Y-42018887D01*
X115738247Y-42005566D01*
X115903904Y-41997224D01*
X116069660Y-41993840D01*
X116235184Y-41995394D01*
X116400144Y-42001866D01*
X116564210Y-42013236D01*
X116727050Y-42029485D01*
X116888333Y-42050591D01*
X117047728Y-42076536D01*
X117204904Y-42107298D01*
X117359528Y-42142859D01*
X117422211Y-42158848D01*
X117517256Y-42184945D01*
X117611810Y-42213155D01*
X117705409Y-42243289D01*
X117797589Y-42275155D01*
X117887886Y-42308565D01*
X117975837Y-42343327D01*
X118060976Y-42379252D01*
X118142840Y-42416149D01*
X118220965Y-42453828D01*
X118294887Y-42492099D01*
X118364142Y-42530772D01*
X118428265Y-42569657D01*
X118434728Y-42573774D01*
X118453823Y-42585998D01*
X120108357Y-42585998D01*
X120108357Y-42563720D01*
X120108353Y-42454460D01*
X120108344Y-42343331D01*
X120108331Y-42230468D01*
X120108313Y-42116006D01*
X120108290Y-42000080D01*
X120108263Y-41882824D01*
X120108231Y-41764374D01*
X120108222Y-41734372D01*
X120107477Y-39258578D01*
X118377533Y-39258578D01*
X118377533Y-40094191D01*
G37*
X118377533Y-40094191D02*
X118377526Y-40162478D01*
X118377505Y-40229285D01*
X118377471Y-40294394D01*
X118377425Y-40357584D01*
X118377366Y-40418637D01*
X118377296Y-40477333D01*
X118377215Y-40533452D01*
X118377123Y-40586777D01*
X118377022Y-40637087D01*
X118376911Y-40684164D01*
X118376792Y-40727787D01*
X118376664Y-40767738D01*
X118376529Y-40803798D01*
X118376387Y-40835747D01*
X118376238Y-40863366D01*
X118376083Y-40886436D01*
X118375923Y-40904737D01*
X118375758Y-40918050D01*
X118375589Y-40926157D01*
X118375417Y-40928838D01*
X118372585Y-40927079D01*
X118365693Y-40922617D01*
X118355379Y-40915872D01*
X118342285Y-40907266D01*
X118327052Y-40897217D01*
X118311211Y-40886736D01*
X118245017Y-40843687D01*
X118180477Y-40803429D01*
X118116291Y-40765212D01*
X118051155Y-40728289D01*
X117983769Y-40691914D01*
X117912829Y-40655338D01*
X117876589Y-40637221D01*
X117742174Y-40573650D01*
X117606420Y-40515441D01*
X117469009Y-40462483D01*
X117329628Y-40414662D01*
X117187961Y-40371866D01*
X117043692Y-40333984D01*
X116988294Y-40320893D01*
X116966422Y-40315879D01*
X116966422Y-39258578D01*
X115233578Y-39258578D01*
X115233578Y-40316013D01*
X115217350Y-40319494D01*
X115201225Y-40323130D01*
X115180648Y-40328045D01*
X115156602Y-40333984D01*
X115130067Y-40340695D01*
X115102024Y-40347923D01*
X115073455Y-40355414D01*
X115045340Y-40362914D01*
X115018661Y-40370169D01*
X114994399Y-40376925D01*
X114983335Y-40380079D01*
X114850046Y-40421157D01*
X114717033Y-40467538D01*
X114584852Y-40518962D01*
X114454061Y-40575172D01*
X114325214Y-40635907D01*
X114198869Y-40700908D01*
X114075582Y-40769916D01*
X113955910Y-40842672D01*
X113870419Y-40898494D01*
X113856522Y-40907824D01*
X113844217Y-40916037D01*
X113834278Y-40922622D01*
X113827476Y-40927068D01*
X113824583Y-40928863D01*
X113824410Y-40926155D01*
X113824241Y-40918022D01*
X113824076Y-40904683D01*
X113823916Y-40886357D01*
X113823761Y-40863263D01*
X113823612Y-40835622D01*
X113823470Y-40803652D01*
X113823335Y-40767572D01*
X113823207Y-40727601D01*
X113823088Y-40683960D01*
X113822977Y-40636866D01*
X113822876Y-40586540D01*
X113822785Y-40533201D01*
X113822704Y-40477067D01*
X113822633Y-40418359D01*
X113822575Y-40357295D01*
X113822528Y-40294094D01*
X113822494Y-40228977D01*
X113822474Y-40162162D01*
X113822467Y-40094191D01*
X113822467Y-39258578D01*
X112092523Y-39258578D01*
X112091778Y-41734372D01*
X112091745Y-41853093D01*
X112091716Y-41970650D01*
X112091692Y-42086909D01*
X112091673Y-42201735D01*
X112091658Y-42314992D01*
X112091648Y-42426547D01*
X112091642Y-42536264D01*
X112091640Y-42644010D01*
X112091643Y-42749648D01*
X112091651Y-42853045D01*
X112091662Y-42954065D01*
X112091678Y-43052574D01*
X112091697Y-43148437D01*
X112091721Y-43241520D01*
X112091749Y-43331687D01*
X112091780Y-43418804D01*
X112091816Y-43502736D01*
X112091855Y-43583349D01*
X112091898Y-43660507D01*
X112091944Y-43734076D01*
X112091995Y-43803922D01*
X112092048Y-43869909D01*
X112092105Y-43931902D01*
X112092166Y-43989768D01*
X112092230Y-44043370D01*
X112092297Y-44092575D01*
X112092367Y-44137248D01*
X112092441Y-44177254D01*
X112092517Y-44212458D01*
X112092597Y-44242725D01*
X112092680Y-44267922D01*
X112092765Y-44287912D01*
X112092854Y-44302562D01*
X112092945Y-44311736D01*
X112092968Y-44313178D01*
X112094422Y-44373288D01*
X112096501Y-44429436D01*
X112099313Y-44483280D01*
X112102964Y-44536477D01*
X112107563Y-44590686D01*
X112113215Y-44647565D01*
X112116597Y-44678656D01*
X112135825Y-44825653D01*
X112160580Y-44971828D01*
X112190785Y-45116989D01*
X112226362Y-45260943D01*
X112267234Y-45403496D01*
X112313325Y-45544456D01*
X112364557Y-45683630D01*
X112420852Y-45820826D01*
X112482135Y-45955849D01*
X112548327Y-46088508D01*
X112619352Y-46218610D01*
X112695132Y-46345962D01*
X112775590Y-46470371D01*
X112860649Y-46591644D01*
X112906215Y-46652800D01*
X112972237Y-46737104D01*
X113041763Y-46821094D01*
X113114017Y-46903928D01*
X113188222Y-46984763D01*
X113263603Y-47062759D01*
X113339385Y-47137072D01*
X113414790Y-47206863D01*
X113426650Y-47217448D01*
X113436034Y-47225949D01*
X113443608Y-47233130D01*
X113448511Y-47238153D01*
X113449933Y-47240093D01*
X113448539Y-47242705D01*
X113444431Y-47250005D01*
X113437725Y-47261796D01*
X113428535Y-47277879D01*
X113416974Y-47298058D01*
X113403156Y-47322133D01*
X113387197Y-47349909D01*
X113369209Y-47381187D01*
X113349308Y-47415769D01*
X113327607Y-47453459D01*
X113304221Y-47494058D01*
X113279263Y-47537369D01*
X113252848Y-47583194D01*
X113225090Y-47631336D01*
X113196103Y-47681597D01*
X113166001Y-47733779D01*
X113134899Y-47787685D01*
X113102910Y-47843118D01*
X113070149Y-47899879D01*
X113036730Y-47957771D01*
X113002767Y-48016597D01*
X112968374Y-48076158D01*
X112933665Y-48136258D01*
X112898755Y-48196699D01*
X112863757Y-48257282D01*
X112828786Y-48317811D01*
X112793956Y-48378088D01*
X112759381Y-48437916D01*
X112725176Y-48497096D01*
X112691453Y-48555430D01*
X112658328Y-48612723D01*
X112625915Y-48668775D01*
X112594328Y-48723390D01*
X112563681Y-48776369D01*
X112534087Y-48827515D01*
X112505662Y-48876631D01*
X112478520Y-48923519D01*
X112452774Y-48967981D01*
X112428539Y-49009820D01*
X112405928Y-49048837D01*
X112385057Y-49084837D01*
X112366039Y-49117620D01*
X112348988Y-49146989D01*
X112334019Y-49172747D01*
X112321245Y-49194696D01*
X112310781Y-49212639D01*
X112302742Y-49226378D01*
X112297240Y-49235714D01*
X112294390Y-49240452D01*
X112294013Y-49241021D01*
X112290997Y-49246103D01*
X112291619Y-49248914D01*
X112294667Y-49251024D01*
X112301806Y-49255667D01*
X112312333Y-49262397D01*
X112325544Y-49270764D01*
X112340739Y-49280323D01*
X112350678Y-49286544D01*
X112522512Y-49390619D01*
X112696689Y-49489564D01*
X112873158Y-49583357D01*
X113051866Y-49671980D01*
X113232762Y-49755411D01*
X113415792Y-49833632D01*
X113600905Y-49906621D01*
X113788049Y-49974360D01*
X113977172Y-50036828D01*
X114168221Y-50094004D01*
X114361144Y-50145870D01*
X114555890Y-50192404D01*
X114752406Y-50233587D01*
X114875842Y-50256554D01*
X114981748Y-50274331D01*
X115091573Y-50290898D01*
X115203677Y-50306044D01*
X115316425Y-50319564D01*
X115428178Y-50331249D01*
X115537301Y-50340890D01*
X115544022Y-50341422D01*
X115565926Y-50343147D01*
X115585741Y-50344703D01*
X115603855Y-50346097D01*
X115620656Y-50347339D01*
X115636530Y-50348440D01*
X115651865Y-50349407D01*
X115667047Y-50350251D01*
X115682465Y-50350981D01*
X115698504Y-50351605D01*
X115715553Y-50352134D01*
X115733999Y-50352577D01*
X115754228Y-50352942D01*
X115776628Y-50353240D01*
X115801586Y-50353480D01*
X115829490Y-50353671D01*
X115860725Y-50353822D01*
X115895681Y-50353942D01*
X115934743Y-50354042D01*
X115978299Y-50354130D01*
X116026736Y-50354215D01*
X116078833Y-50354305D01*
X116137203Y-50354394D01*
X116190218Y-50354445D01*
X116238165Y-50354456D01*
X116281335Y-50354426D01*
X116320014Y-50354352D01*
X116354493Y-50354232D01*
X116385060Y-50354064D01*
X116412003Y-50353846D01*
X116435611Y-50353576D01*
X116456174Y-50353251D01*
X116473978Y-50352870D01*
X116489314Y-50352430D01*
X116502470Y-50351930D01*
X116513735Y-50351367D01*
X116517689Y-50351130D01*
X116701798Y-50337362D01*
X116882556Y-50319513D01*
X117060612Y-50297485D01*
X117236617Y-50271179D01*
X117411221Y-50240495D01*
X117585074Y-50205334D01*
X117758826Y-50165596D01*
X117800930Y-50155281D01*
X117994677Y-50104327D01*
X118186313Y-50048138D01*
X118375840Y-49986713D01*
X118563261Y-49920053D01*
X118748578Y-49848155D01*
X118931791Y-49771019D01*
X119112905Y-49688645D01*
X119291919Y-49601031D01*
X119468837Y-49508177D01*
X119643660Y-49410081D01*
X119816391Y-49306743D01*
X119844446Y-49289341D01*
X119863862Y-49277214D01*
X119878973Y-49267682D01*
X119890272Y-49260368D01*
X119898254Y-49254896D01*
X119903413Y-49250891D01*
X119906242Y-49247975D01*
X119907236Y-49245773D01*
X119906888Y-49243910D01*
X119906019Y-49242470D01*
X119904218Y-49239468D01*
X119899720Y-49231792D01*
X119892642Y-49219640D01*
X119883096Y-49203210D01*
X119871197Y-49182700D01*
X119857059Y-49158308D01*
X119840797Y-49130230D01*
X119822524Y-49098666D01*
X119802354Y-49063812D01*
X119780402Y-49025866D01*
X119756781Y-48985026D01*
X119731607Y-48941490D01*
X119704993Y-48895455D01*
X119677053Y-48847119D01*
X119647901Y-48796680D01*
X119617652Y-48744335D01*
X119586420Y-48690282D01*
X119554319Y-48634720D01*
X119521462Y-48577844D01*
X119487965Y-48519855D01*
X119453941Y-48460948D01*
X119419505Y-48401321D01*
X119384770Y-48341173D01*
X119349851Y-48280701D01*
X119314862Y-48220103D01*
X119279917Y-48159576D01*
X119245130Y-48099319D01*
X119210615Y-48039528D01*
X119176487Y-47980402D01*
X119142860Y-47922138D01*
X119109847Y-47864935D01*
X119077564Y-47808988D01*
X119046124Y-47754498D01*
X119015641Y-47701660D01*
X118986229Y-47650673D01*
X118958003Y-47601735D01*
X118931076Y-47555042D01*
X118905564Y-47510794D01*
X118881580Y-47469187D01*
X118859237Y-47430420D01*
X118838651Y-47394689D01*
X118819936Y-47362193D01*
X118803205Y-47333130D01*
X118788573Y-47307697D01*
X118776154Y-47286091D01*
X118766062Y-47268511D01*
X118758411Y-47255155D01*
X118753316Y-47246219D01*
X118750890Y-47241901D01*
X118750692Y-47241516D01*
X118752486Y-47238819D01*
X118757944Y-47232929D01*
X118766504Y-47224395D01*
X118777606Y-47213767D01*
X118790689Y-47201594D01*
X118801443Y-47191800D01*
X118844672Y-47151879D01*
X118890172Y-47108187D01*
X118937061Y-47061635D01*
X118984456Y-47013133D01*
X119031474Y-46963591D01*
X119077234Y-46913919D01*
X119120851Y-46865029D01*
X119143130Y-46839359D01*
X119238176Y-46724376D01*
X119328681Y-46606108D01*
X119414579Y-46484711D01*
X119495803Y-46360340D01*
X119572288Y-46233151D01*
X119643968Y-46103298D01*
X119710776Y-45970937D01*
X119772646Y-45836222D01*
X119829514Y-45699309D01*
X119881312Y-45560354D01*
X119927975Y-45419511D01*
X119969437Y-45276935D01*
X120005631Y-45132782D01*
X120036492Y-44987207D01*
X120061955Y-44840365D01*
X120081952Y-44692411D01*
X120090568Y-44610922D01*
X120095907Y-44550113D01*
X120100137Y-44490788D01*
X120103362Y-44431099D01*
X120105684Y-44369199D01*
X120107002Y-44314589D01*
X120107096Y-44306759D01*
X120107186Y-44293419D01*
X120107274Y-44274705D01*
X120107358Y-44250751D01*
X120107440Y-44221691D01*
X120107519Y-44187662D01*
X120107595Y-44148796D01*
X120107667Y-44105231D01*
X120107736Y-44057100D01*
X120107802Y-44004537D01*
X120107865Y-43947679D01*
X120107924Y-43886660D01*
X120107979Y-43821614D01*
X120108032Y-43752677D01*
X120108080Y-43679983D01*
X120108125Y-43603667D01*
X120108166Y-43523865D01*
X120108203Y-43440710D01*
X120108237Y-43354338D01*
X120108266Y-43264883D01*
X120108292Y-43172481D01*
X120108313Y-43077266D01*
X120108330Y-42979373D01*
X120108344Y-42878937D01*
X120108352Y-42776093D01*
X120108357Y-42670976D01*
X120108357Y-42585998D01*
X118453823Y-42585998D01*
X118452945Y-43704294D01*
X118452869Y-43799214D01*
X118452795Y-43888658D01*
X118452722Y-43972793D01*
X118452648Y-44051788D01*
X118452574Y-44125809D01*
X118452498Y-44195026D01*
X118452419Y-44259606D01*
X118452337Y-44319716D01*
X118452251Y-44375525D01*
X118452160Y-44427200D01*
X118452062Y-44474910D01*
X118451958Y-44518822D01*
X118451846Y-44559105D01*
X118451726Y-44595925D01*
X118451597Y-44629452D01*
X118451457Y-44659852D01*
X118451307Y-44687294D01*
X118451145Y-44711946D01*
X118450970Y-44733975D01*
X118450782Y-44753550D01*
X118450579Y-44770837D01*
X118450362Y-44786007D01*
X118450128Y-44799225D01*
X118449878Y-44810660D01*
X118449610Y-44820480D01*
X118449324Y-44828853D01*
X118449018Y-44835946D01*
X118448692Y-44841928D01*
X118448346Y-44846966D01*
X118447977Y-44851229D01*
X118447586Y-44854883D01*
X118447212Y-44857807D01*
X118434441Y-44936513D01*
X118418069Y-45012764D01*
X118397858Y-45087211D01*
X118373576Y-45160505D01*
X118344985Y-45233298D01*
X118311851Y-45306240D01*
X118273938Y-45379984D01*
X118232049Y-45453444D01*
X118180558Y-45535245D01*
X118123527Y-45617349D01*
X118061049Y-45699681D01*
X117993215Y-45782163D01*
X117920117Y-45864719D01*
X117841847Y-45947272D01*
X117758498Y-46029745D01*
X117670161Y-46112061D01*
X117576928Y-46194143D01*
X117478892Y-46275914D01*
X117376143Y-46357298D01*
X117268774Y-46438217D01*
X117156878Y-46518595D01*
X117040546Y-46598355D01*
X116919869Y-46677420D01*
X116794941Y-46755713D01*
X116665852Y-46833157D01*
X116532695Y-46909675D01*
X116406211Y-46979441D01*
X116390402Y-46987893D01*
X116371720Y-46997715D01*
X116350686Y-47008645D01*
X116327823Y-47020422D01*
X116303652Y-47032784D01*
X116278697Y-47045470D01*
X116253477Y-47058217D01*
X116228517Y-47070765D01*
X116204337Y-47082851D01*
X116181461Y-47094215D01*
X116160409Y-47104593D01*
X116141705Y-47113726D01*
X116125870Y-47121350D01*
X116113426Y-47127206D01*
X116104895Y-47131029D01*
X116100799Y-47132561D01*
X116100635Y-47132578D01*
X116096832Y-47131391D01*
X116088762Y-47128067D01*
X116077223Y-47122963D01*
X116063013Y-47116434D01*
X116046930Y-47108838D01*
X116039441Y-47105238D01*
X115994788Y-47083318D01*
X115946380Y-47058942D01*
X115895242Y-47032653D01*
X115842400Y-47004994D01*
X115788879Y-46976509D01*
X115735706Y-46947742D01*
X115683905Y-46919236D01*
X115634502Y-46891535D01*
X115611602Y-46878490D01*
X115480299Y-46801609D01*
X115352812Y-46723629D01*
X115229292Y-46644665D01*
X115109889Y-46564834D01*
X114994753Y-46484252D01*
X114884034Y-46403034D01*
X114777881Y-46321296D01*
X114676446Y-46239155D01*
X114579878Y-46156725D01*
X114488328Y-46074124D01*
X114401945Y-45991467D01*
X114320880Y-45908870D01*
X114245282Y-45826449D01*
X114236433Y-45816403D01*
X114165505Y-45732537D01*
X114100181Y-45649103D01*
X114040441Y-45566062D01*
X113986264Y-45483376D01*
X113937631Y-45401007D01*
X113894520Y-45318915D01*
X113856911Y-45237063D01*
X113824785Y-45155411D01*
X113798119Y-45073922D01*
X113776894Y-44992557D01*
X113763232Y-44924138D01*
X113761817Y-44916009D01*
X113760484Y-44908456D01*
X113759229Y-44901304D01*
X113758050Y-44894380D01*
X113756944Y-44887510D01*
X113755911Y-44880519D01*
X113754946Y-44873234D01*
X113754047Y-44865479D01*
X113753213Y-44857081D01*
X113752441Y-44847867D01*
X113751728Y-44837660D01*
X113751072Y-44826289D01*
X113750471Y-44813577D01*
X113749922Y-44799352D01*
X113749424Y-44783439D01*
X113748972Y-44765663D01*
X113748566Y-44745851D01*
X113748203Y-44723829D01*
X113747881Y-44699423D01*
X113747596Y-44672457D01*
X113747347Y-44642759D01*
X113747132Y-44610153D01*
X113746947Y-44574467D01*
X113746791Y-44535525D01*
X113746661Y-44493153D01*
X113746555Y-44447178D01*
X113746471Y-44397425D01*
X113746405Y-44343720D01*
X113746356Y-44285889D01*
X113746322Y-44223757D01*
X113746299Y-44157151D01*
X113746286Y-44085897D01*
X113746281Y-44009820D01*
X113746280Y-43928746D01*
X113746281Y-43842501D01*
X113746283Y-43750911D01*
X113746283Y-43681722D01*
X113746267Y-42586011D01*
X113770961Y-42570035D01*
X113800897Y-42551392D01*
X113835783Y-42530975D01*
X113875277Y-42508973D01*
X113919038Y-42485576D01*
X113966725Y-42460972D01*
X113976278Y-42456138D01*
X114093359Y-42399827D01*
X114214792Y-42346792D01*
X114340270Y-42297125D01*
X114469485Y-42250915D01*
X114602131Y-42208251D01*
X114737900Y-42169224D01*
X114876487Y-42133923D01*
X115017583Y-42102437D01*
X115160883Y-42074858D01*
X115306078Y-42051273D01*
X115408555Y-42037205D01*
X115573020Y-42018887D01*
X115738247Y-42005566D01*
X115903904Y-41997224D01*
X116069660Y-41993840D01*
X116235184Y-41995394D01*
X116400144Y-42001866D01*
X116564210Y-42013236D01*
X116727050Y-42029485D01*
X116888333Y-42050591D01*
X117047728Y-42076536D01*
X117204904Y-42107298D01*
X117359528Y-42142859D01*
X117422211Y-42158848D01*
X117517256Y-42184945D01*
X117611810Y-42213155D01*
X117705409Y-42243289D01*
X117797589Y-42275155D01*
X117887886Y-42308565D01*
X117975837Y-42343327D01*
X118060976Y-42379252D01*
X118142840Y-42416149D01*
X118220965Y-42453828D01*
X118294887Y-42492099D01*
X118364142Y-42530772D01*
X118428265Y-42569657D01*
X118434728Y-42573774D01*
X118453823Y-42585998D01*
X120108357Y-42585998D01*
X120108357Y-42563720D01*
X120108353Y-42454460D01*
X120108344Y-42343331D01*
X120108331Y-42230468D01*
X120108313Y-42116006D01*
X120108290Y-42000080D01*
X120108263Y-41882824D01*
X120108231Y-41764374D01*
X120108222Y-41734372D01*
X120107477Y-39258578D01*
X118377533Y-39258578D01*
X118377533Y-40094191D01*
D11*
%TO.C,R13*%
X102845276Y-42022500D02*
X103354724Y-42022500D01*
X102845276Y-40977500D02*
X103354724Y-40977500D01*
%TO.C,R12*%
X102845276Y-40022500D02*
X103354724Y-40022500D01*
X102845276Y-38977500D02*
X103354724Y-38977500D01*
%TO.C,U3*%
X107290000Y-47600000D02*
X107290000Y-45150000D01*
X110510000Y-45800000D02*
X110510000Y-47600000D01*
%TO.C,U1*%
X114590000Y-64500000D02*
X114590000Y-62050000D01*
X117810000Y-62700000D02*
X117810000Y-64500000D01*
%TO.C,R11*%
X122954724Y-49822500D02*
X122445276Y-49822500D01*
X122954724Y-48777500D02*
X122445276Y-48777500D01*
%TO.C,R10*%
X122954724Y-51322500D02*
X122445276Y-51322500D01*
X122954724Y-50277500D02*
X122445276Y-50277500D01*
%TO.C,R9*%
X121677500Y-65454724D02*
X121677500Y-64945276D01*
X122722500Y-65454724D02*
X122722500Y-64945276D01*
%TO.C,R8*%
X119545276Y-65277500D02*
X120054724Y-65277500D01*
X119545276Y-66322500D02*
X120054724Y-66322500D01*
%TO.C,R7*%
X106722500Y-47145276D02*
X106722500Y-47654724D01*
X105677500Y-47145276D02*
X105677500Y-47654724D01*
%TO.C,R6*%
X105222500Y-47145276D02*
X105222500Y-47654724D01*
X104177500Y-47145276D02*
X104177500Y-47654724D01*
%TO.C,R5*%
X120054724Y-67822500D02*
X119545276Y-67822500D01*
X120054724Y-66777500D02*
X119545276Y-66777500D01*
%TO.C,R4*%
X125445276Y-43177500D02*
X125954724Y-43177500D01*
X125445276Y-44222500D02*
X125954724Y-44222500D01*
%TO.C,R3*%
X120054724Y-63322500D02*
X119545276Y-63322500D01*
X120054724Y-62277500D02*
X119545276Y-62277500D01*
%TO.C,R2*%
X120054724Y-61822500D02*
X119545276Y-61822500D01*
X120054724Y-60777500D02*
X119545276Y-60777500D01*
%TO.C,R1*%
X124022500Y-39545276D02*
X124022500Y-40054724D01*
X122977500Y-39545276D02*
X122977500Y-40054724D01*
%TO.C,C5*%
X119946267Y-64810000D02*
X119653733Y-64810000D01*
X119946267Y-63790000D02*
X119653733Y-63790000D01*
%TO.C,C4*%
X114453733Y-65890000D02*
X114746267Y-65890000D01*
X114453733Y-66910000D02*
X114746267Y-66910000D01*
%TO.C,C3*%
X116346267Y-61410000D02*
X116053733Y-61410000D01*
X116346267Y-60390000D02*
X116053733Y-60390000D01*
%TO.C,C2*%
X116911252Y-59910000D02*
X115488748Y-59910000D01*
X116911252Y-58090000D02*
X115488748Y-58090000D01*
%TO.C,C1*%
X125753733Y-39390000D02*
X126046267Y-39390000D01*
X125753733Y-40410000D02*
X126046267Y-40410000D01*
%TD*%
M02*
