M48
; DRILL file {KiCad 5.1.10} date Sun Dec 12 23:24:45 2021
; FORMAT={-:-/ absolute / metric / decimal}
; #@! TF.CreationDate,2021-12-12T23:24:45+01:00
; #@! TF.GenerationSoftware,Kicad,Pcbnew,5.1.10
FMAT,2
METRIC
T1C0.400
T2C0.800
T3C1.000
T4C1.100
T5C0.991
T6C2.000
T7C2.375
%
G90
G05
T1
X98.253Y-48.794
X98.287Y-47.788
X100.7Y-61.198
X101.5Y-40.5
X102.1Y-42.7
X102.607Y-43.562
X103.0Y-50.6
X103.825Y-59.429
X104.541Y-60.259
X106.1Y-45.4
X106.625Y-59.428
X108.1Y-49.6
X108.3Y-38.925
X108.4Y-65.1
X109.1Y-41.4
X109.128Y-71.333
X110.4Y-70.0
X110.435Y-39.553
X110.685Y-38.585
X110.8Y-44.7
X111.0Y-40.4
X111.337Y-69.063
X111.4Y-42.1
X111.8Y-71.7
X114.5Y-39.9
X114.871Y-52.529
X115.106Y-38.8
X116.395Y-52.529
X116.5Y-38.8
X117.395Y-52.605
X118.7Y-52.6
X118.8Y-50.475
X120.1Y-49.2
X120.1Y-69.8
X122.1Y-39.3
X123.0Y-47.9
X123.2Y-64.3
X125.0Y-38.9
X128.4Y-39.9
T2
X116.2Y-59.4
T3
X107.9Y-61.4
X110.44Y-61.4
X112.54Y-33.3
X113.9Y-71.0
X114.151Y-63.581
X115.08Y-33.3
X116.44Y-71.0
X117.62Y-33.3
X118.98Y-71.0
X120.16Y-33.3
X121.52Y-71.0
X123.7Y-42.2
X123.7Y-57.9
T4
X125.1Y-64.4
X125.1Y-70.9
X129.6Y-64.4
X129.6Y-70.9
T5
X100.784Y-62.29
X101.8Y-69.91
X102.816Y-62.29
T6
X104.7Y-33.8
X104.7Y-57.6
X128.0Y-33.8
X128.0Y-57.6
T7
X99.26Y-64.195
X99.26Y-69.91
X104.34Y-64.195
X104.34Y-69.91
T0
M30
